M48
; DRILL file {KiCad (5.1.10)-1} date 12/10/21 13:26:09
; FORMAT={-:-/ absolute / metric / decimal}
; #@! TF.CreationDate,2021-12-10T13:26:09-08:00
; #@! TF.GenerationSoftware,Kicad,Pcbnew,(5.1.10)-1
; #@! TF.FileFunction,Plated,1,2,PTH
FMAT,2
METRIC
T1C0.300
T2C0.400
T3C0.600
T4C0.800
T5C1.000
%
G90
G05
T1
X91.831Y-111.18
X92.584Y-109.279
X92.6Y-111.4
X93.412Y-111.402
T2
X82.6Y-109.0
X84.7Y-108.4
X85.0Y-109.7
X86.1Y-108.4
X87.1Y-119.5
X87.7Y-114.1
X87.8Y-107.9
X89.198Y-111.072
X89.2Y-110.072
X90.2Y-119.4
X90.4Y-113.4
X91.6Y-116.5
X92.9Y-119.3
X93.04Y-107.487
X93.545Y-113.176
X94.3Y-119.5
X94.6Y-105.0
X96.9Y-113.7
X98.4Y-118.0
X98.609Y-119.309
X99.1Y-113.0
X99.3Y-106.7
X99.5Y-115.4
X99.845Y-111.961
X99.9Y-108.0
X100.0Y-110.8
X100.123Y-109.808
T4
X101.1Y-113.4
T5
X82.55Y-104.14
X82.55Y-106.68
X82.55Y-114.3
X82.55Y-116.84
X82.55Y-119.38
X102.87Y-104.14
X102.87Y-106.68
X102.87Y-109.22
X102.87Y-111.76
X102.87Y-114.3
X102.87Y-116.84
X102.87Y-119.38
T3
X88.39Y-97.95G85X88.39Y-96.75
G05
X88.39Y-101.75G85X88.39Y-100.95
G05
X88.39Y-101.75G85X88.39Y-100.95
G05
X97.03Y-97.95G85X97.03Y-96.75
G05
X97.03Y-101.75G85X97.03Y-100.95
G05
T0
M30
