G04 #@! TF.GenerationSoftware,KiCad,Pcbnew,(5.1.10)-1*
G04 #@! TF.CreationDate,2021-12-10T13:25:55-08:00*
G04 #@! TF.ProjectId,BQ25798,42513235-3739-4382-9e6b-696361645f70,rev?*
G04 #@! TF.SameCoordinates,Original*
G04 #@! TF.FileFunction,Soldermask,Top*
G04 #@! TF.FilePolarity,Negative*
%FSLAX46Y46*%
G04 Gerber Fmt 4.6, Leading zero omitted, Abs format (unit mm)*
G04 Created by KiCad (PCBNEW (5.1.10)-1) date 2021-12-10 13:25:55*
%MOMM*%
%LPD*%
G01*
G04 APERTURE LIST*
%ADD10R,0.700000X0.200000*%
%ADD11R,1.000000X0.200000*%
%ADD12R,0.600000X0.200000*%
%ADD13R,0.200000X0.950000*%
%ADD14R,0.200000X0.600000*%
%ADD15R,0.200000X0.900000*%
%ADD16O,1.700000X1.700000*%
%ADD17R,1.700000X1.700000*%
%ADD18R,0.600000X1.150000*%
%ADD19R,0.300000X1.150000*%
%ADD20O,1.000000X2.200000*%
%ADD21O,1.000000X1.800000*%
G04 APERTURE END LIST*
D10*
X90955001Y-111784999D03*
X90955001Y-108984999D03*
X94655001Y-111734999D03*
X94655001Y-109034999D03*
D11*
X94505001Y-109484999D03*
X94505001Y-109934999D03*
X94505001Y-110384999D03*
X94505001Y-110834999D03*
X94505001Y-111284999D03*
D12*
X90905001Y-111384999D03*
X90905001Y-110984999D03*
X90905001Y-110584999D03*
X90905001Y-110184999D03*
X90905001Y-109784999D03*
X90905001Y-109384999D03*
D13*
X94405001Y-112109999D03*
D14*
X94005001Y-112284999D03*
X93605001Y-112284999D03*
X93205001Y-112284999D03*
X92805001Y-112284999D03*
X92805001Y-112284999D03*
X92405001Y-112284999D03*
X92005001Y-112284999D03*
X91605001Y-112284999D03*
D15*
X91205001Y-112134999D03*
X91205001Y-108634999D03*
D14*
X91605001Y-108484999D03*
X92005001Y-108484999D03*
X92405001Y-108484999D03*
X92805001Y-108484999D03*
X93205001Y-108484999D03*
X93605001Y-108484999D03*
X94005001Y-108484999D03*
D13*
X94405001Y-108659999D03*
G36*
G01*
X88890000Y-111745000D02*
X88890000Y-112115000D01*
G75*
G02*
X88755000Y-112250000I-135000J0D01*
G01*
X88485000Y-112250000D01*
G75*
G02*
X88350000Y-112115000I0J135000D01*
G01*
X88350000Y-111745000D01*
G75*
G02*
X88485000Y-111610000I135000J0D01*
G01*
X88755000Y-111610000D01*
G75*
G02*
X88890000Y-111745000I0J-135000D01*
G01*
G37*
G36*
G01*
X89910000Y-111745000D02*
X89910000Y-112115000D01*
G75*
G02*
X89775000Y-112250000I-135000J0D01*
G01*
X89505000Y-112250000D01*
G75*
G02*
X89370000Y-112115000I0J135000D01*
G01*
X89370000Y-111745000D01*
G75*
G02*
X89505000Y-111610000I135000J0D01*
G01*
X89775000Y-111610000D01*
G75*
G02*
X89910000Y-111745000I0J-135000D01*
G01*
G37*
G36*
G01*
X89370000Y-113215000D02*
X89370000Y-112845000D01*
G75*
G02*
X89505000Y-112710000I135000J0D01*
G01*
X89775000Y-112710000D01*
G75*
G02*
X89910000Y-112845000I0J-135000D01*
G01*
X89910000Y-113215000D01*
G75*
G02*
X89775000Y-113350000I-135000J0D01*
G01*
X89505000Y-113350000D01*
G75*
G02*
X89370000Y-113215000I0J135000D01*
G01*
G37*
G36*
G01*
X88350000Y-113215000D02*
X88350000Y-112845000D01*
G75*
G02*
X88485000Y-112710000I135000J0D01*
G01*
X88755000Y-112710000D01*
G75*
G02*
X88890000Y-112845000I0J-135000D01*
G01*
X88890000Y-113215000D01*
G75*
G02*
X88755000Y-113350000I-135000J0D01*
G01*
X88485000Y-113350000D01*
G75*
G02*
X88350000Y-113215000I0J135000D01*
G01*
G37*
G36*
G01*
X87715000Y-112290000D02*
X87345000Y-112290000D01*
G75*
G02*
X87210000Y-112155000I0J135000D01*
G01*
X87210000Y-111885000D01*
G75*
G02*
X87345000Y-111750000I135000J0D01*
G01*
X87715000Y-111750000D01*
G75*
G02*
X87850000Y-111885000I0J-135000D01*
G01*
X87850000Y-112155000D01*
G75*
G02*
X87715000Y-112290000I-135000J0D01*
G01*
G37*
G36*
G01*
X87715000Y-113310000D02*
X87345000Y-113310000D01*
G75*
G02*
X87210000Y-113175000I0J135000D01*
G01*
X87210000Y-112905000D01*
G75*
G02*
X87345000Y-112770000I135000J0D01*
G01*
X87715000Y-112770000D01*
G75*
G02*
X87850000Y-112905000I0J-135000D01*
G01*
X87850000Y-113175000D01*
G75*
G02*
X87715000Y-113310000I-135000J0D01*
G01*
G37*
G36*
G01*
X91915000Y-114690000D02*
X91545000Y-114690000D01*
G75*
G02*
X91410000Y-114555000I0J135000D01*
G01*
X91410000Y-114285000D01*
G75*
G02*
X91545000Y-114150000I135000J0D01*
G01*
X91915000Y-114150000D01*
G75*
G02*
X92050000Y-114285000I0J-135000D01*
G01*
X92050000Y-114555000D01*
G75*
G02*
X91915000Y-114690000I-135000J0D01*
G01*
G37*
G36*
G01*
X91915000Y-115710000D02*
X91545000Y-115710000D01*
G75*
G02*
X91410000Y-115575000I0J135000D01*
G01*
X91410000Y-115305000D01*
G75*
G02*
X91545000Y-115170000I135000J0D01*
G01*
X91915000Y-115170000D01*
G75*
G02*
X92050000Y-115305000I0J-135000D01*
G01*
X92050000Y-115575000D01*
G75*
G02*
X91915000Y-115710000I-135000J0D01*
G01*
G37*
G36*
G01*
X101085000Y-111460000D02*
X100715000Y-111460000D01*
G75*
G02*
X100580000Y-111325000I0J135000D01*
G01*
X100580000Y-111055000D01*
G75*
G02*
X100715000Y-110920000I135000J0D01*
G01*
X101085000Y-110920000D01*
G75*
G02*
X101220000Y-111055000I0J-135000D01*
G01*
X101220000Y-111325000D01*
G75*
G02*
X101085000Y-111460000I-135000J0D01*
G01*
G37*
G36*
G01*
X101085000Y-112480000D02*
X100715000Y-112480000D01*
G75*
G02*
X100580000Y-112345000I0J135000D01*
G01*
X100580000Y-112075000D01*
G75*
G02*
X100715000Y-111940000I135000J0D01*
G01*
X101085000Y-111940000D01*
G75*
G02*
X101220000Y-112075000I0J-135000D01*
G01*
X101220000Y-112345000D01*
G75*
G02*
X101085000Y-112480000I-135000J0D01*
G01*
G37*
G36*
G01*
X100715000Y-109940000D02*
X101085000Y-109940000D01*
G75*
G02*
X101220000Y-110075000I0J-135000D01*
G01*
X101220000Y-110345000D01*
G75*
G02*
X101085000Y-110480000I-135000J0D01*
G01*
X100715000Y-110480000D01*
G75*
G02*
X100580000Y-110345000I0J135000D01*
G01*
X100580000Y-110075000D01*
G75*
G02*
X100715000Y-109940000I135000J0D01*
G01*
G37*
G36*
G01*
X100715000Y-108920000D02*
X101085000Y-108920000D01*
G75*
G02*
X101220000Y-109055000I0J-135000D01*
G01*
X101220000Y-109325000D01*
G75*
G02*
X101085000Y-109460000I-135000J0D01*
G01*
X100715000Y-109460000D01*
G75*
G02*
X100580000Y-109325000I0J135000D01*
G01*
X100580000Y-109055000D01*
G75*
G02*
X100715000Y-108920000I135000J0D01*
G01*
G37*
G36*
G01*
X90445000Y-115170000D02*
X90815000Y-115170000D01*
G75*
G02*
X90950000Y-115305000I0J-135000D01*
G01*
X90950000Y-115575000D01*
G75*
G02*
X90815000Y-115710000I-135000J0D01*
G01*
X90445000Y-115710000D01*
G75*
G02*
X90310000Y-115575000I0J135000D01*
G01*
X90310000Y-115305000D01*
G75*
G02*
X90445000Y-115170000I135000J0D01*
G01*
G37*
G36*
G01*
X90445000Y-114150000D02*
X90815000Y-114150000D01*
G75*
G02*
X90950000Y-114285000I0J-135000D01*
G01*
X90950000Y-114555000D01*
G75*
G02*
X90815000Y-114690000I-135000J0D01*
G01*
X90445000Y-114690000D01*
G75*
G02*
X90310000Y-114555000I0J135000D01*
G01*
X90310000Y-114285000D01*
G75*
G02*
X90445000Y-114150000I135000J0D01*
G01*
G37*
G36*
G01*
X89715000Y-114690000D02*
X89345000Y-114690000D01*
G75*
G02*
X89210000Y-114555000I0J135000D01*
G01*
X89210000Y-114285000D01*
G75*
G02*
X89345000Y-114150000I135000J0D01*
G01*
X89715000Y-114150000D01*
G75*
G02*
X89850000Y-114285000I0J-135000D01*
G01*
X89850000Y-114555000D01*
G75*
G02*
X89715000Y-114690000I-135000J0D01*
G01*
G37*
G36*
G01*
X89715000Y-115710000D02*
X89345000Y-115710000D01*
G75*
G02*
X89210000Y-115575000I0J135000D01*
G01*
X89210000Y-115305000D01*
G75*
G02*
X89345000Y-115170000I135000J0D01*
G01*
X89715000Y-115170000D01*
G75*
G02*
X89850000Y-115305000I0J-135000D01*
G01*
X89850000Y-115575000D01*
G75*
G02*
X89715000Y-115710000I-135000J0D01*
G01*
G37*
G36*
G01*
X92645000Y-115170000D02*
X93015000Y-115170000D01*
G75*
G02*
X93150000Y-115305000I0J-135000D01*
G01*
X93150000Y-115575000D01*
G75*
G02*
X93015000Y-115710000I-135000J0D01*
G01*
X92645000Y-115710000D01*
G75*
G02*
X92510000Y-115575000I0J135000D01*
G01*
X92510000Y-115305000D01*
G75*
G02*
X92645000Y-115170000I135000J0D01*
G01*
G37*
G36*
G01*
X92645000Y-114150000D02*
X93015000Y-114150000D01*
G75*
G02*
X93150000Y-114285000I0J-135000D01*
G01*
X93150000Y-114555000D01*
G75*
G02*
X93015000Y-114690000I-135000J0D01*
G01*
X92645000Y-114690000D01*
G75*
G02*
X92510000Y-114555000I0J135000D01*
G01*
X92510000Y-114285000D01*
G75*
G02*
X92645000Y-114150000I135000J0D01*
G01*
G37*
G36*
G01*
X96348750Y-111255000D02*
X97111250Y-111255000D01*
G75*
G02*
X97330000Y-111473750I0J-218750D01*
G01*
X97330000Y-111911250D01*
G75*
G02*
X97111250Y-112130000I-218750J0D01*
G01*
X96348750Y-112130000D01*
G75*
G02*
X96130000Y-111911250I0J218750D01*
G01*
X96130000Y-111473750D01*
G75*
G02*
X96348750Y-111255000I218750J0D01*
G01*
G37*
G36*
G01*
X96348750Y-109130000D02*
X97111250Y-109130000D01*
G75*
G02*
X97330000Y-109348750I0J-218750D01*
G01*
X97330000Y-109786250D01*
G75*
G02*
X97111250Y-110005000I-218750J0D01*
G01*
X96348750Y-110005000D01*
G75*
G02*
X96130000Y-109786250I0J218750D01*
G01*
X96130000Y-109348750D01*
G75*
G02*
X96348750Y-109130000I218750J0D01*
G01*
G37*
D16*
X102870000Y-119380000D03*
X102870000Y-116840000D03*
X102870000Y-114300000D03*
X102870000Y-111760000D03*
X102870000Y-109220000D03*
X102870000Y-106680000D03*
D17*
X102870000Y-104140000D03*
D18*
X90310000Y-101925000D03*
X95110000Y-101925000D03*
X95910000Y-101925000D03*
X89510000Y-101925000D03*
D19*
X94460000Y-101925000D03*
X93960000Y-101925000D03*
X93460000Y-101925000D03*
X90960000Y-101925000D03*
X91460000Y-101925000D03*
X91960000Y-101925000D03*
X92460000Y-101925000D03*
X92960000Y-101925000D03*
D20*
X88390000Y-97350000D03*
X97030000Y-97350000D03*
D21*
X88390000Y-101350000D03*
X88390000Y-101350000D03*
X97030000Y-101350000D03*
D16*
X82550000Y-119380000D03*
X82550000Y-116840000D03*
D17*
X82550000Y-114300000D03*
D16*
X82550000Y-106680000D03*
D17*
X82550000Y-104140000D03*
G36*
G01*
X82427500Y-110790000D02*
X82772500Y-110790000D01*
G75*
G02*
X82920000Y-110937500I0J-147500D01*
G01*
X82920000Y-111232500D01*
G75*
G02*
X82772500Y-111380000I-147500J0D01*
G01*
X82427500Y-111380000D01*
G75*
G02*
X82280000Y-111232500I0J147500D01*
G01*
X82280000Y-110937500D01*
G75*
G02*
X82427500Y-110790000I147500J0D01*
G01*
G37*
G36*
G01*
X82427500Y-109820000D02*
X82772500Y-109820000D01*
G75*
G02*
X82920000Y-109967500I0J-147500D01*
G01*
X82920000Y-110262500D01*
G75*
G02*
X82772500Y-110410000I-147500J0D01*
G01*
X82427500Y-110410000D01*
G75*
G02*
X82280000Y-110262500I0J147500D01*
G01*
X82280000Y-109967500D01*
G75*
G02*
X82427500Y-109820000I147500J0D01*
G01*
G37*
G36*
G01*
X98250000Y-112725000D02*
X98750000Y-112725000D01*
G75*
G02*
X98975000Y-112950000I0J-225000D01*
G01*
X98975000Y-113400000D01*
G75*
G02*
X98750000Y-113625000I-225000J0D01*
G01*
X98250000Y-113625000D01*
G75*
G02*
X98025000Y-113400000I0J225000D01*
G01*
X98025000Y-112950000D01*
G75*
G02*
X98250000Y-112725000I225000J0D01*
G01*
G37*
G36*
G01*
X98250000Y-111175000D02*
X98750000Y-111175000D01*
G75*
G02*
X98975000Y-111400000I0J-225000D01*
G01*
X98975000Y-111850000D01*
G75*
G02*
X98750000Y-112075000I-225000J0D01*
G01*
X98250000Y-112075000D01*
G75*
G02*
X98025000Y-111850000I0J225000D01*
G01*
X98025000Y-111400000D01*
G75*
G02*
X98250000Y-111175000I225000J0D01*
G01*
G37*
G36*
G01*
X98550000Y-109125000D02*
X99050000Y-109125000D01*
G75*
G02*
X99275000Y-109350000I0J-225000D01*
G01*
X99275000Y-109800000D01*
G75*
G02*
X99050000Y-110025000I-225000J0D01*
G01*
X98550000Y-110025000D01*
G75*
G02*
X98325000Y-109800000I0J225000D01*
G01*
X98325000Y-109350000D01*
G75*
G02*
X98550000Y-109125000I225000J0D01*
G01*
G37*
G36*
G01*
X98550000Y-107575000D02*
X99050000Y-107575000D01*
G75*
G02*
X99275000Y-107800000I0J-225000D01*
G01*
X99275000Y-108250000D01*
G75*
G02*
X99050000Y-108475000I-225000J0D01*
G01*
X98550000Y-108475000D01*
G75*
G02*
X98325000Y-108250000I0J225000D01*
G01*
X98325000Y-107800000D01*
G75*
G02*
X98550000Y-107575000I225000J0D01*
G01*
G37*
G36*
G01*
X96580000Y-117180000D02*
X96580000Y-116680000D01*
G75*
G02*
X96805000Y-116455000I225000J0D01*
G01*
X97255000Y-116455000D01*
G75*
G02*
X97480000Y-116680000I0J-225000D01*
G01*
X97480000Y-117180000D01*
G75*
G02*
X97255000Y-117405000I-225000J0D01*
G01*
X96805000Y-117405000D01*
G75*
G02*
X96580000Y-117180000I0J225000D01*
G01*
G37*
G36*
G01*
X95030000Y-117180000D02*
X95030000Y-116680000D01*
G75*
G02*
X95255000Y-116455000I225000J0D01*
G01*
X95705000Y-116455000D01*
G75*
G02*
X95930000Y-116680000I0J-225000D01*
G01*
X95930000Y-117180000D01*
G75*
G02*
X95705000Y-117405000I-225000J0D01*
G01*
X95255000Y-117405000D01*
G75*
G02*
X95030000Y-117180000I0J225000D01*
G01*
G37*
G36*
G01*
X93450000Y-105275000D02*
X92950000Y-105275000D01*
G75*
G02*
X92725000Y-105050000I0J225000D01*
G01*
X92725000Y-104600000D01*
G75*
G02*
X92950000Y-104375000I225000J0D01*
G01*
X93450000Y-104375000D01*
G75*
G02*
X93675000Y-104600000I0J-225000D01*
G01*
X93675000Y-105050000D01*
G75*
G02*
X93450000Y-105275000I-225000J0D01*
G01*
G37*
G36*
G01*
X93450000Y-106825000D02*
X92950000Y-106825000D01*
G75*
G02*
X92725000Y-106600000I0J225000D01*
G01*
X92725000Y-106150000D01*
G75*
G02*
X92950000Y-105925000I225000J0D01*
G01*
X93450000Y-105925000D01*
G75*
G02*
X93675000Y-106150000I0J-225000D01*
G01*
X93675000Y-106600000D01*
G75*
G02*
X93450000Y-106825000I-225000J0D01*
G01*
G37*
G36*
G01*
X96580000Y-118480000D02*
X96580000Y-117980000D01*
G75*
G02*
X96805000Y-117755000I225000J0D01*
G01*
X97255000Y-117755000D01*
G75*
G02*
X97480000Y-117980000I0J-225000D01*
G01*
X97480000Y-118480000D01*
G75*
G02*
X97255000Y-118705000I-225000J0D01*
G01*
X96805000Y-118705000D01*
G75*
G02*
X96580000Y-118480000I0J225000D01*
G01*
G37*
G36*
G01*
X95030000Y-118480000D02*
X95030000Y-117980000D01*
G75*
G02*
X95255000Y-117755000I225000J0D01*
G01*
X95705000Y-117755000D01*
G75*
G02*
X95930000Y-117980000I0J-225000D01*
G01*
X95930000Y-118480000D01*
G75*
G02*
X95705000Y-118705000I-225000J0D01*
G01*
X95255000Y-118705000D01*
G75*
G02*
X95030000Y-118480000I0J225000D01*
G01*
G37*
G36*
G01*
X96555000Y-115880000D02*
X96555000Y-115380000D01*
G75*
G02*
X96780000Y-115155000I225000J0D01*
G01*
X97230000Y-115155000D01*
G75*
G02*
X97455000Y-115380000I0J-225000D01*
G01*
X97455000Y-115880000D01*
G75*
G02*
X97230000Y-116105000I-225000J0D01*
G01*
X96780000Y-116105000D01*
G75*
G02*
X96555000Y-115880000I0J225000D01*
G01*
G37*
G36*
G01*
X95005000Y-115880000D02*
X95005000Y-115380000D01*
G75*
G02*
X95230000Y-115155000I225000J0D01*
G01*
X95680000Y-115155000D01*
G75*
G02*
X95905000Y-115380000I0J-225000D01*
G01*
X95905000Y-115880000D01*
G75*
G02*
X95680000Y-116105000I-225000J0D01*
G01*
X95230000Y-116105000D01*
G75*
G02*
X95005000Y-115880000I0J225000D01*
G01*
G37*
G36*
G01*
X96955000Y-105880000D02*
X96955000Y-105380000D01*
G75*
G02*
X97180000Y-105155000I225000J0D01*
G01*
X97630000Y-105155000D01*
G75*
G02*
X97855000Y-105380000I0J-225000D01*
G01*
X97855000Y-105880000D01*
G75*
G02*
X97630000Y-106105000I-225000J0D01*
G01*
X97180000Y-106105000D01*
G75*
G02*
X96955000Y-105880000I0J225000D01*
G01*
G37*
G36*
G01*
X95405000Y-105880000D02*
X95405000Y-105380000D01*
G75*
G02*
X95630000Y-105155000I225000J0D01*
G01*
X96080000Y-105155000D01*
G75*
G02*
X96305000Y-105380000I0J-225000D01*
G01*
X96305000Y-105880000D01*
G75*
G02*
X96080000Y-106105000I-225000J0D01*
G01*
X95630000Y-106105000D01*
G75*
G02*
X95405000Y-105880000I0J225000D01*
G01*
G37*
G36*
G01*
X93880000Y-115255000D02*
X94380000Y-115255000D01*
G75*
G02*
X94605000Y-115480000I0J-225000D01*
G01*
X94605000Y-115930000D01*
G75*
G02*
X94380000Y-116155000I-225000J0D01*
G01*
X93880000Y-116155000D01*
G75*
G02*
X93655000Y-115930000I0J225000D01*
G01*
X93655000Y-115480000D01*
G75*
G02*
X93880000Y-115255000I225000J0D01*
G01*
G37*
G36*
G01*
X93880000Y-113705000D02*
X94380000Y-113705000D01*
G75*
G02*
X94605000Y-113930000I0J-225000D01*
G01*
X94605000Y-114380000D01*
G75*
G02*
X94380000Y-114605000I-225000J0D01*
G01*
X93880000Y-114605000D01*
G75*
G02*
X93655000Y-114380000I0J225000D01*
G01*
X93655000Y-113930000D01*
G75*
G02*
X93880000Y-113705000I225000J0D01*
G01*
G37*
G36*
G01*
X96580000Y-119780000D02*
X96580000Y-119280000D01*
G75*
G02*
X96805000Y-119055000I225000J0D01*
G01*
X97255000Y-119055000D01*
G75*
G02*
X97480000Y-119280000I0J-225000D01*
G01*
X97480000Y-119780000D01*
G75*
G02*
X97255000Y-120005000I-225000J0D01*
G01*
X96805000Y-120005000D01*
G75*
G02*
X96580000Y-119780000I0J225000D01*
G01*
G37*
G36*
G01*
X95030000Y-119780000D02*
X95030000Y-119280000D01*
G75*
G02*
X95255000Y-119055000I225000J0D01*
G01*
X95705000Y-119055000D01*
G75*
G02*
X95930000Y-119280000I0J-225000D01*
G01*
X95930000Y-119780000D01*
G75*
G02*
X95705000Y-120005000I-225000J0D01*
G01*
X95255000Y-120005000D01*
G75*
G02*
X95030000Y-119780000I0J225000D01*
G01*
G37*
G36*
G01*
X96955000Y-107180000D02*
X96955000Y-106680000D01*
G75*
G02*
X97180000Y-106455000I225000J0D01*
G01*
X97630000Y-106455000D01*
G75*
G02*
X97855000Y-106680000I0J-225000D01*
G01*
X97855000Y-107180000D01*
G75*
G02*
X97630000Y-107405000I-225000J0D01*
G01*
X97180000Y-107405000D01*
G75*
G02*
X96955000Y-107180000I0J225000D01*
G01*
G37*
G36*
G01*
X95405000Y-107180000D02*
X95405000Y-106680000D01*
G75*
G02*
X95630000Y-106455000I225000J0D01*
G01*
X96080000Y-106455000D01*
G75*
G02*
X96305000Y-106680000I0J-225000D01*
G01*
X96305000Y-107180000D01*
G75*
G02*
X96080000Y-107405000I-225000J0D01*
G01*
X95630000Y-107405000D01*
G75*
G02*
X95405000Y-107180000I0J225000D01*
G01*
G37*
G36*
G01*
X87510000Y-105925000D02*
X88010000Y-105925000D01*
G75*
G02*
X88235000Y-106150000I0J-225000D01*
G01*
X88235000Y-106600000D01*
G75*
G02*
X88010000Y-106825000I-225000J0D01*
G01*
X87510000Y-106825000D01*
G75*
G02*
X87285000Y-106600000I0J225000D01*
G01*
X87285000Y-106150000D01*
G75*
G02*
X87510000Y-105925000I225000J0D01*
G01*
G37*
G36*
G01*
X87510000Y-104375000D02*
X88010000Y-104375000D01*
G75*
G02*
X88235000Y-104600000I0J-225000D01*
G01*
X88235000Y-105050000D01*
G75*
G02*
X88010000Y-105275000I-225000J0D01*
G01*
X87510000Y-105275000D01*
G75*
G02*
X87285000Y-105050000I0J225000D01*
G01*
X87285000Y-104600000D01*
G75*
G02*
X87510000Y-104375000I225000J0D01*
G01*
G37*
G36*
G01*
X86950000Y-117425000D02*
X87450000Y-117425000D01*
G75*
G02*
X87675000Y-117650000I0J-225000D01*
G01*
X87675000Y-118100000D01*
G75*
G02*
X87450000Y-118325000I-225000J0D01*
G01*
X86950000Y-118325000D01*
G75*
G02*
X86725000Y-118100000I0J225000D01*
G01*
X86725000Y-117650000D01*
G75*
G02*
X86950000Y-117425000I225000J0D01*
G01*
G37*
G36*
G01*
X86950000Y-115875000D02*
X87450000Y-115875000D01*
G75*
G02*
X87675000Y-116100000I0J-225000D01*
G01*
X87675000Y-116550000D01*
G75*
G02*
X87450000Y-116775000I-225000J0D01*
G01*
X86950000Y-116775000D01*
G75*
G02*
X86725000Y-116550000I0J225000D01*
G01*
X86725000Y-116100000D01*
G75*
G02*
X86950000Y-115875000I225000J0D01*
G01*
G37*
G36*
G01*
X96555000Y-114580000D02*
X96555000Y-114080000D01*
G75*
G02*
X96780000Y-113855000I225000J0D01*
G01*
X97230000Y-113855000D01*
G75*
G02*
X97455000Y-114080000I0J-225000D01*
G01*
X97455000Y-114580000D01*
G75*
G02*
X97230000Y-114805000I-225000J0D01*
G01*
X96780000Y-114805000D01*
G75*
G02*
X96555000Y-114580000I0J225000D01*
G01*
G37*
G36*
G01*
X95005000Y-114580000D02*
X95005000Y-114080000D01*
G75*
G02*
X95230000Y-113855000I225000J0D01*
G01*
X95680000Y-113855000D01*
G75*
G02*
X95905000Y-114080000I0J-225000D01*
G01*
X95905000Y-114580000D01*
G75*
G02*
X95680000Y-114805000I-225000J0D01*
G01*
X95230000Y-114805000D01*
G75*
G02*
X95005000Y-114580000I0J225000D01*
G01*
G37*
G36*
G01*
X96980000Y-108480000D02*
X96980000Y-107980000D01*
G75*
G02*
X97205000Y-107755000I225000J0D01*
G01*
X97655000Y-107755000D01*
G75*
G02*
X97880000Y-107980000I0J-225000D01*
G01*
X97880000Y-108480000D01*
G75*
G02*
X97655000Y-108705000I-225000J0D01*
G01*
X97205000Y-108705000D01*
G75*
G02*
X96980000Y-108480000I0J225000D01*
G01*
G37*
G36*
G01*
X95430000Y-108480000D02*
X95430000Y-107980000D01*
G75*
G02*
X95655000Y-107755000I225000J0D01*
G01*
X96105000Y-107755000D01*
G75*
G02*
X96330000Y-107980000I0J-225000D01*
G01*
X96330000Y-108480000D01*
G75*
G02*
X96105000Y-108705000I-225000J0D01*
G01*
X95655000Y-108705000D01*
G75*
G02*
X95430000Y-108480000I0J225000D01*
G01*
G37*
G36*
G01*
X86110000Y-105925000D02*
X86610000Y-105925000D01*
G75*
G02*
X86835000Y-106150000I0J-225000D01*
G01*
X86835000Y-106600000D01*
G75*
G02*
X86610000Y-106825000I-225000J0D01*
G01*
X86110000Y-106825000D01*
G75*
G02*
X85885000Y-106600000I0J225000D01*
G01*
X85885000Y-106150000D01*
G75*
G02*
X86110000Y-105925000I225000J0D01*
G01*
G37*
G36*
G01*
X86110000Y-104375000D02*
X86610000Y-104375000D01*
G75*
G02*
X86835000Y-104600000I0J-225000D01*
G01*
X86835000Y-105050000D01*
G75*
G02*
X86610000Y-105275000I-225000J0D01*
G01*
X86110000Y-105275000D01*
G75*
G02*
X85885000Y-105050000I0J225000D01*
G01*
X85885000Y-104600000D01*
G75*
G02*
X86110000Y-104375000I225000J0D01*
G01*
G37*
G36*
G01*
X85550000Y-117425000D02*
X86050000Y-117425000D01*
G75*
G02*
X86275000Y-117650000I0J-225000D01*
G01*
X86275000Y-118100000D01*
G75*
G02*
X86050000Y-118325000I-225000J0D01*
G01*
X85550000Y-118325000D01*
G75*
G02*
X85325000Y-118100000I0J225000D01*
G01*
X85325000Y-117650000D01*
G75*
G02*
X85550000Y-117425000I225000J0D01*
G01*
G37*
G36*
G01*
X85550000Y-115875000D02*
X86050000Y-115875000D01*
G75*
G02*
X86275000Y-116100000I0J-225000D01*
G01*
X86275000Y-116550000D01*
G75*
G02*
X86050000Y-116775000I-225000J0D01*
G01*
X85550000Y-116775000D01*
G75*
G02*
X85325000Y-116550000I0J225000D01*
G01*
X85325000Y-116100000D01*
G75*
G02*
X85550000Y-115875000I225000J0D01*
G01*
G37*
G36*
G01*
X96555000Y-113280000D02*
X96555000Y-112780000D01*
G75*
G02*
X96780000Y-112555000I225000J0D01*
G01*
X97230000Y-112555000D01*
G75*
G02*
X97455000Y-112780000I0J-225000D01*
G01*
X97455000Y-113280000D01*
G75*
G02*
X97230000Y-113505000I-225000J0D01*
G01*
X96780000Y-113505000D01*
G75*
G02*
X96555000Y-113280000I0J225000D01*
G01*
G37*
G36*
G01*
X95005000Y-113280000D02*
X95005000Y-112780000D01*
G75*
G02*
X95230000Y-112555000I225000J0D01*
G01*
X95680000Y-112555000D01*
G75*
G02*
X95905000Y-112780000I0J-225000D01*
G01*
X95905000Y-113280000D01*
G75*
G02*
X95680000Y-113505000I-225000J0D01*
G01*
X95230000Y-113505000D01*
G75*
G02*
X95005000Y-113280000I0J225000D01*
G01*
G37*
G36*
G01*
X96955000Y-104580000D02*
X96955000Y-104080000D01*
G75*
G02*
X97180000Y-103855000I225000J0D01*
G01*
X97630000Y-103855000D01*
G75*
G02*
X97855000Y-104080000I0J-225000D01*
G01*
X97855000Y-104580000D01*
G75*
G02*
X97630000Y-104805000I-225000J0D01*
G01*
X97180000Y-104805000D01*
G75*
G02*
X96955000Y-104580000I0J225000D01*
G01*
G37*
G36*
G01*
X95405000Y-104580000D02*
X95405000Y-104080000D01*
G75*
G02*
X95630000Y-103855000I225000J0D01*
G01*
X96080000Y-103855000D01*
G75*
G02*
X96305000Y-104080000I0J-225000D01*
G01*
X96305000Y-104580000D01*
G75*
G02*
X96080000Y-104805000I-225000J0D01*
G01*
X95630000Y-104805000D01*
G75*
G02*
X95405000Y-104580000I0J225000D01*
G01*
G37*
G36*
G01*
X84710000Y-105925000D02*
X85210000Y-105925000D01*
G75*
G02*
X85435000Y-106150000I0J-225000D01*
G01*
X85435000Y-106600000D01*
G75*
G02*
X85210000Y-106825000I-225000J0D01*
G01*
X84710000Y-106825000D01*
G75*
G02*
X84485000Y-106600000I0J225000D01*
G01*
X84485000Y-106150000D01*
G75*
G02*
X84710000Y-105925000I225000J0D01*
G01*
G37*
G36*
G01*
X84710000Y-104375000D02*
X85210000Y-104375000D01*
G75*
G02*
X85435000Y-104600000I0J-225000D01*
G01*
X85435000Y-105050000D01*
G75*
G02*
X85210000Y-105275000I-225000J0D01*
G01*
X84710000Y-105275000D01*
G75*
G02*
X84485000Y-105050000I0J225000D01*
G01*
X84485000Y-104600000D01*
G75*
G02*
X84710000Y-104375000I225000J0D01*
G01*
G37*
M02*
