%FSLAX45Y45*%
G04 Gerber Fmt 4.5, Leading zero omitted, Abs format (unit mm)*
G04 Created by KiCad (PCBNEW (5.1.10)-1) date 2021-12-13 17:09:44*
%MOMM*%
%LPD*%
G01*
G04 APERTURE LIST*
%TA.AperFunction,Profile*%
%ADD10C,0.050000*%
%TD*%
%ADD11C,0.200000*%
%ADD12C,0.300000*%
G04 APERTURE END LIST*
D10*
X13144500Y-10604500D02*
X13144500Y-11239500D01*
X13970000Y-10414000D02*
G75*
G02*
X14160500Y-10604500I0J-190500D01*
G01*
X14160500Y-11239500D02*
G75*
G02*
X13970000Y-11430000I-190500J0D01*
G01*
X13335000Y-11430000D02*
G75*
G02*
X13144500Y-11239500I0J190500D01*
G01*
X13144500Y-10604500D02*
G75*
G02*
X13335000Y-10414000I190500J0D01*
G01*
X13970000Y-11430000D02*
X13335000Y-11430000D01*
X14160500Y-10604500D02*
X14160500Y-11239500D01*
X13335000Y-10414000D02*
X13970000Y-10414000D01*
D11*
D12*
X13428428Y-11898214D02*
X13428428Y-11598214D01*
X13499857Y-11598214D01*
X13542714Y-11612500D01*
X13571286Y-11641071D01*
X13585571Y-11669643D01*
X13599857Y-11726786D01*
X13599857Y-11769643D01*
X13585571Y-11826786D01*
X13571286Y-11855357D01*
X13542714Y-11883929D01*
X13499857Y-11898214D01*
X13428428Y-11898214D01*
X13728428Y-11898214D02*
X13728428Y-11698214D01*
X13728428Y-11755357D02*
X13742714Y-11726786D01*
X13757000Y-11712500D01*
X13785571Y-11698214D01*
X13814143Y-11698214D01*
X13914143Y-11898214D02*
X13914143Y-11698214D01*
X13914143Y-11598214D02*
X13899857Y-11612500D01*
X13914143Y-11626786D01*
X13928428Y-11612500D01*
X13914143Y-11598214D01*
X13914143Y-11626786D01*
X14099857Y-11898214D02*
X14071286Y-11883929D01*
X14057000Y-11855357D01*
X14057000Y-11598214D01*
X14257000Y-11898214D02*
X14228428Y-11883929D01*
X14214143Y-11855357D01*
X14214143Y-11598214D01*
X14599857Y-11898214D02*
X14599857Y-11598214D01*
X14699857Y-11812500D01*
X14799857Y-11598214D01*
X14799857Y-11898214D01*
X15071286Y-11898214D02*
X15071286Y-11741071D01*
X15057000Y-11712500D01*
X15028428Y-11698214D01*
X14971286Y-11698214D01*
X14942714Y-11712500D01*
X15071286Y-11883929D02*
X15042714Y-11898214D01*
X14971286Y-11898214D01*
X14942714Y-11883929D01*
X14928428Y-11855357D01*
X14928428Y-11826786D01*
X14942714Y-11798214D01*
X14971286Y-11783929D01*
X15042714Y-11783929D01*
X15071286Y-11769643D01*
X15214143Y-11698214D02*
X15214143Y-11998214D01*
X15214143Y-11712500D02*
X15242714Y-11698214D01*
X15299857Y-11698214D01*
X15328428Y-11712500D01*
X15342714Y-11726786D01*
X15357000Y-11755357D01*
X15357000Y-11841071D01*
X15342714Y-11869643D01*
X15328428Y-11883929D01*
X15299857Y-11898214D01*
X15242714Y-11898214D01*
X15214143Y-11883929D01*
X15485571Y-11869643D02*
X15499857Y-11883929D01*
X15485571Y-11898214D01*
X15471286Y-11883929D01*
X15485571Y-11869643D01*
X15485571Y-11898214D01*
X15485571Y-11712500D02*
X15499857Y-11726786D01*
X15485571Y-11741071D01*
X15471286Y-11726786D01*
X15485571Y-11712500D01*
X15485571Y-11741071D01*
M02*
