%FSLAX45Y45*%
G04 Gerber Fmt 4.5, Leading zero omitted, Abs format (unit mm)*
G04 Created by KiCad (PCBNEW (5.1.10)-1) date 2021-12-13 17:09:44*
%MOMM*%
%LPD*%
G01*
G04 APERTURE LIST*
%TA.AperFunction,Profile*%
%ADD10C,0.050000*%
%TD*%
%ADD11C,0.200000*%
%ADD12C,0.300000*%
G04 APERTURE END LIST*
D10*
X13144500Y-10604500D02*
X13144500Y-11239500D01*
X13970000Y-10414000D02*
G75*
G02*
X14160500Y-10604500I0J-190500D01*
G01*
X14160500Y-11239500D02*
G75*
G02*
X13970000Y-11430000I-190500J0D01*
G01*
X13335000Y-11430000D02*
G75*
G02*
X13144500Y-11239500I0J190500D01*
G01*
X13144500Y-10604500D02*
G75*
G02*
X13335000Y-10414000I190500J0D01*
G01*
X13970000Y-11430000D02*
X13335000Y-11430000D01*
X14160500Y-10604500D02*
X14160500Y-11239500D01*
X13335000Y-10414000D02*
X13970000Y-10414000D01*
D11*
X13630000Y-10640000D02*
X13670000Y-10680000D01*
X13670000Y-10640000D02*
X13630000Y-10680000D01*
X13696000Y-11283000D02*
X13736000Y-11323000D01*
X13736000Y-11283000D02*
X13696000Y-11323000D01*
X13844576Y-10462979D02*
X13884576Y-10502979D01*
X13884576Y-10462979D02*
X13844576Y-10502979D01*
X13950000Y-10540000D02*
X13990000Y-10580000D01*
X13990000Y-10540000D02*
X13950000Y-10580000D01*
X13950000Y-11283000D02*
X13990000Y-11323000D01*
X13990000Y-11283000D02*
X13950000Y-11323000D01*
X13512000Y-10541000D02*
G75*
G03*
X13512000Y-10541000I-50000J0D01*
G01*
X13512000Y-10795000D02*
G75*
G03*
X13512000Y-10795000I-50000J0D01*
G01*
X13512000Y-11049000D02*
G75*
G03*
X13512000Y-11049000I-50000J0D01*
G01*
X13512000Y-11303000D02*
G75*
G03*
X13512000Y-11303000I-50000J0D01*
G01*
D12*
X13428428Y-11898214D02*
X13428428Y-11598214D01*
X13499857Y-11598214D01*
X13542714Y-11612500D01*
X13571286Y-11641071D01*
X13585571Y-11669643D01*
X13599857Y-11726786D01*
X13599857Y-11769643D01*
X13585571Y-11826786D01*
X13571286Y-11855357D01*
X13542714Y-11883929D01*
X13499857Y-11898214D01*
X13428428Y-11898214D01*
X13728428Y-11898214D02*
X13728428Y-11698214D01*
X13728428Y-11755357D02*
X13742714Y-11726786D01*
X13757000Y-11712500D01*
X13785571Y-11698214D01*
X13814143Y-11698214D01*
X13914143Y-11898214D02*
X13914143Y-11698214D01*
X13914143Y-11598214D02*
X13899857Y-11612500D01*
X13914143Y-11626786D01*
X13928428Y-11612500D01*
X13914143Y-11598214D01*
X13914143Y-11626786D01*
X14099857Y-11898214D02*
X14071286Y-11883929D01*
X14057000Y-11855357D01*
X14057000Y-11598214D01*
X14257000Y-11898214D02*
X14228428Y-11883929D01*
X14214143Y-11855357D01*
X14214143Y-11598214D01*
X14599857Y-11898214D02*
X14599857Y-11598214D01*
X14699857Y-11812500D01*
X14799857Y-11598214D01*
X14799857Y-11898214D01*
X15071286Y-11898214D02*
X15071286Y-11741071D01*
X15057000Y-11712500D01*
X15028428Y-11698214D01*
X14971286Y-11698214D01*
X14942714Y-11712500D01*
X15071286Y-11883929D02*
X15042714Y-11898214D01*
X14971286Y-11898214D01*
X14942714Y-11883929D01*
X14928428Y-11855357D01*
X14928428Y-11826786D01*
X14942714Y-11798214D01*
X14971286Y-11783929D01*
X15042714Y-11783929D01*
X15071286Y-11769643D01*
X15214143Y-11698214D02*
X15214143Y-11998214D01*
X15214143Y-11712500D02*
X15242714Y-11698214D01*
X15299857Y-11698214D01*
X15328428Y-11712500D01*
X15342714Y-11726786D01*
X15357000Y-11755357D01*
X15357000Y-11841071D01*
X15342714Y-11869643D01*
X15328428Y-11883929D01*
X15299857Y-11898214D01*
X15242714Y-11898214D01*
X15214143Y-11883929D01*
X15485571Y-11869643D02*
X15499857Y-11883929D01*
X15485571Y-11898214D01*
X15471286Y-11883929D01*
X15485571Y-11869643D01*
X15485571Y-11898214D01*
X15485571Y-11712500D02*
X15499857Y-11726786D01*
X15485571Y-11741071D01*
X15471286Y-11726786D01*
X15485571Y-11712500D01*
X15485571Y-11741071D01*
X13102000Y-12372500D02*
X13142000Y-12412500D01*
X13142000Y-12372500D02*
X13102000Y-12412500D01*
X13485571Y-12228214D02*
X13514143Y-12228214D01*
X13542714Y-12242500D01*
X13557000Y-12256786D01*
X13571286Y-12285357D01*
X13585571Y-12342500D01*
X13585571Y-12413929D01*
X13571286Y-12471071D01*
X13557000Y-12499643D01*
X13542714Y-12513929D01*
X13514143Y-12528214D01*
X13485571Y-12528214D01*
X13457000Y-12513929D01*
X13442714Y-12499643D01*
X13428428Y-12471071D01*
X13414143Y-12413929D01*
X13414143Y-12342500D01*
X13428428Y-12285357D01*
X13442714Y-12256786D01*
X13457000Y-12242500D01*
X13485571Y-12228214D01*
X13714143Y-12499643D02*
X13728428Y-12513929D01*
X13714143Y-12528214D01*
X13699857Y-12513929D01*
X13714143Y-12499643D01*
X13714143Y-12528214D01*
X13985571Y-12328214D02*
X13985571Y-12528214D01*
X13914143Y-12213929D02*
X13842714Y-12428214D01*
X14028428Y-12428214D01*
X14199857Y-12228214D02*
X14228428Y-12228214D01*
X14257000Y-12242500D01*
X14271286Y-12256786D01*
X14285571Y-12285357D01*
X14299857Y-12342500D01*
X14299857Y-12413929D01*
X14285571Y-12471071D01*
X14271286Y-12499643D01*
X14257000Y-12513929D01*
X14228428Y-12528214D01*
X14199857Y-12528214D01*
X14171286Y-12513929D01*
X14157000Y-12499643D01*
X14142714Y-12471071D01*
X14128428Y-12413929D01*
X14128428Y-12342500D01*
X14142714Y-12285357D01*
X14157000Y-12256786D01*
X14171286Y-12242500D01*
X14199857Y-12228214D01*
X14485571Y-12228214D02*
X14514143Y-12228214D01*
X14542714Y-12242500D01*
X14557000Y-12256786D01*
X14571286Y-12285357D01*
X14585571Y-12342500D01*
X14585571Y-12413929D01*
X14571286Y-12471071D01*
X14557000Y-12499643D01*
X14542714Y-12513929D01*
X14514143Y-12528214D01*
X14485571Y-12528214D01*
X14457000Y-12513929D01*
X14442714Y-12499643D01*
X14428428Y-12471071D01*
X14414143Y-12413929D01*
X14414143Y-12342500D01*
X14428428Y-12285357D01*
X14442714Y-12256786D01*
X14457000Y-12242500D01*
X14485571Y-12228214D01*
X14714143Y-12528214D02*
X14714143Y-12328214D01*
X14714143Y-12356786D02*
X14728428Y-12342500D01*
X14757000Y-12328214D01*
X14799857Y-12328214D01*
X14828428Y-12342500D01*
X14842714Y-12371071D01*
X14842714Y-12528214D01*
X14842714Y-12371071D02*
X14857000Y-12342500D01*
X14885571Y-12328214D01*
X14928428Y-12328214D01*
X14957000Y-12342500D01*
X14971286Y-12371071D01*
X14971286Y-12528214D01*
X15114143Y-12528214D02*
X15114143Y-12328214D01*
X15114143Y-12356786D02*
X15128428Y-12342500D01*
X15157000Y-12328214D01*
X15199857Y-12328214D01*
X15228428Y-12342500D01*
X15242714Y-12371071D01*
X15242714Y-12528214D01*
X15242714Y-12371071D02*
X15257000Y-12342500D01*
X15285571Y-12328214D01*
X15328428Y-12328214D01*
X15357000Y-12342500D01*
X15371286Y-12371071D01*
X15371286Y-12528214D01*
X15957000Y-12213929D02*
X15699857Y-12599643D01*
X16342714Y-12228214D02*
X16371286Y-12228214D01*
X16399857Y-12242500D01*
X16414143Y-12256786D01*
X16428428Y-12285357D01*
X16442714Y-12342500D01*
X16442714Y-12413929D01*
X16428428Y-12471071D01*
X16414143Y-12499643D01*
X16399857Y-12513929D01*
X16371286Y-12528214D01*
X16342714Y-12528214D01*
X16314143Y-12513929D01*
X16299857Y-12499643D01*
X16285571Y-12471071D01*
X16271286Y-12413929D01*
X16271286Y-12342500D01*
X16285571Y-12285357D01*
X16299857Y-12256786D01*
X16314143Y-12242500D01*
X16342714Y-12228214D01*
X16571286Y-12499643D02*
X16585571Y-12513929D01*
X16571286Y-12528214D01*
X16557000Y-12513929D01*
X16571286Y-12499643D01*
X16571286Y-12528214D01*
X16771286Y-12228214D02*
X16799857Y-12228214D01*
X16828428Y-12242500D01*
X16842714Y-12256786D01*
X16857000Y-12285357D01*
X16871286Y-12342500D01*
X16871286Y-12413929D01*
X16857000Y-12471071D01*
X16842714Y-12499643D01*
X16828428Y-12513929D01*
X16799857Y-12528214D01*
X16771286Y-12528214D01*
X16742714Y-12513929D01*
X16728428Y-12499643D01*
X16714143Y-12471071D01*
X16699857Y-12413929D01*
X16699857Y-12342500D01*
X16714143Y-12285357D01*
X16728428Y-12256786D01*
X16742714Y-12242500D01*
X16771286Y-12228214D01*
X17157000Y-12528214D02*
X16985571Y-12528214D01*
X17071286Y-12528214D02*
X17071286Y-12228214D01*
X17042714Y-12271071D01*
X17014143Y-12299643D01*
X16985571Y-12313929D01*
X17428428Y-12228214D02*
X17285571Y-12228214D01*
X17271286Y-12371071D01*
X17285571Y-12356786D01*
X17314143Y-12342500D01*
X17385571Y-12342500D01*
X17414143Y-12356786D01*
X17428428Y-12371071D01*
X17442714Y-12399643D01*
X17442714Y-12471071D01*
X17428428Y-12499643D01*
X17414143Y-12513929D01*
X17385571Y-12528214D01*
X17314143Y-12528214D01*
X17285571Y-12513929D01*
X17271286Y-12499643D01*
X17542714Y-12228214D02*
X17742714Y-12228214D01*
X17614143Y-12528214D01*
X17842714Y-12228214D02*
X17842714Y-12285357D01*
X17957000Y-12228214D02*
X17957000Y-12285357D01*
X18399857Y-12642500D02*
X18385571Y-12628214D01*
X18357000Y-12585357D01*
X18342714Y-12556786D01*
X18328428Y-12513929D01*
X18314143Y-12442500D01*
X18314143Y-12385357D01*
X18328428Y-12313929D01*
X18342714Y-12271071D01*
X18357000Y-12242500D01*
X18385571Y-12199643D01*
X18399857Y-12185357D01*
X18657000Y-12228214D02*
X18514143Y-12228214D01*
X18499857Y-12371071D01*
X18514143Y-12356786D01*
X18542714Y-12342500D01*
X18614143Y-12342500D01*
X18642714Y-12356786D01*
X18657000Y-12371071D01*
X18671286Y-12399643D01*
X18671286Y-12471071D01*
X18657000Y-12499643D01*
X18642714Y-12513929D01*
X18614143Y-12528214D01*
X18542714Y-12528214D01*
X18514143Y-12513929D01*
X18499857Y-12499643D01*
X19028428Y-12528214D02*
X19028428Y-12228214D01*
X19157000Y-12528214D02*
X19157000Y-12371071D01*
X19142714Y-12342500D01*
X19114143Y-12328214D01*
X19071286Y-12328214D01*
X19042714Y-12342500D01*
X19028428Y-12356786D01*
X19342714Y-12528214D02*
X19314143Y-12513929D01*
X19299857Y-12499643D01*
X19285571Y-12471071D01*
X19285571Y-12385357D01*
X19299857Y-12356786D01*
X19314143Y-12342500D01*
X19342714Y-12328214D01*
X19385571Y-12328214D01*
X19414143Y-12342500D01*
X19428428Y-12356786D01*
X19442714Y-12385357D01*
X19442714Y-12471071D01*
X19428428Y-12499643D01*
X19414143Y-12513929D01*
X19385571Y-12528214D01*
X19342714Y-12528214D01*
X19614143Y-12528214D02*
X19585571Y-12513929D01*
X19571286Y-12485357D01*
X19571286Y-12228214D01*
X19842714Y-12513929D02*
X19814143Y-12528214D01*
X19757000Y-12528214D01*
X19728428Y-12513929D01*
X19714143Y-12485357D01*
X19714143Y-12371071D01*
X19728428Y-12342500D01*
X19757000Y-12328214D01*
X19814143Y-12328214D01*
X19842714Y-12342500D01*
X19857000Y-12371071D01*
X19857000Y-12399643D01*
X19714143Y-12428214D01*
X19971286Y-12513929D02*
X19999857Y-12528214D01*
X20057000Y-12528214D01*
X20085571Y-12513929D01*
X20099857Y-12485357D01*
X20099857Y-12471071D01*
X20085571Y-12442500D01*
X20057000Y-12428214D01*
X20014143Y-12428214D01*
X19985571Y-12413929D01*
X19971286Y-12385357D01*
X19971286Y-12371071D01*
X19985571Y-12342500D01*
X20014143Y-12328214D01*
X20057000Y-12328214D01*
X20085571Y-12342500D01*
X20199857Y-12642500D02*
X20214143Y-12628214D01*
X20242714Y-12585357D01*
X20257000Y-12556786D01*
X20271286Y-12513929D01*
X20285571Y-12442500D01*
X20285571Y-12385357D01*
X20271286Y-12313929D01*
X20257000Y-12271071D01*
X20242714Y-12242500D01*
X20214143Y-12199643D01*
X20199857Y-12185357D01*
X13142000Y-12788500D02*
G75*
G03*
X13142000Y-12788500I-50000J0D01*
G01*
X13585571Y-12924214D02*
X13414143Y-12924214D01*
X13499857Y-12924214D02*
X13499857Y-12624214D01*
X13471286Y-12667071D01*
X13442714Y-12695643D01*
X13414143Y-12709929D01*
X13714143Y-12895643D02*
X13728428Y-12909929D01*
X13714143Y-12924214D01*
X13699857Y-12909929D01*
X13714143Y-12895643D01*
X13714143Y-12924214D01*
X13914143Y-12624214D02*
X13942714Y-12624214D01*
X13971286Y-12638500D01*
X13985571Y-12652786D01*
X13999857Y-12681357D01*
X14014143Y-12738500D01*
X14014143Y-12809929D01*
X13999857Y-12867071D01*
X13985571Y-12895643D01*
X13971286Y-12909929D01*
X13942714Y-12924214D01*
X13914143Y-12924214D01*
X13885571Y-12909929D01*
X13871286Y-12895643D01*
X13857000Y-12867071D01*
X13842714Y-12809929D01*
X13842714Y-12738500D01*
X13857000Y-12681357D01*
X13871286Y-12652786D01*
X13885571Y-12638500D01*
X13914143Y-12624214D01*
X14199857Y-12624214D02*
X14228428Y-12624214D01*
X14257000Y-12638500D01*
X14271286Y-12652786D01*
X14285571Y-12681357D01*
X14299857Y-12738500D01*
X14299857Y-12809929D01*
X14285571Y-12867071D01*
X14271286Y-12895643D01*
X14257000Y-12909929D01*
X14228428Y-12924214D01*
X14199857Y-12924214D01*
X14171286Y-12909929D01*
X14157000Y-12895643D01*
X14142714Y-12867071D01*
X14128428Y-12809929D01*
X14128428Y-12738500D01*
X14142714Y-12681357D01*
X14157000Y-12652786D01*
X14171286Y-12638500D01*
X14199857Y-12624214D01*
X14485571Y-12624214D02*
X14514143Y-12624214D01*
X14542714Y-12638500D01*
X14557000Y-12652786D01*
X14571286Y-12681357D01*
X14585571Y-12738500D01*
X14585571Y-12809929D01*
X14571286Y-12867071D01*
X14557000Y-12895643D01*
X14542714Y-12909929D01*
X14514143Y-12924214D01*
X14485571Y-12924214D01*
X14457000Y-12909929D01*
X14442714Y-12895643D01*
X14428428Y-12867071D01*
X14414143Y-12809929D01*
X14414143Y-12738500D01*
X14428428Y-12681357D01*
X14442714Y-12652786D01*
X14457000Y-12638500D01*
X14485571Y-12624214D01*
X14714143Y-12924214D02*
X14714143Y-12724214D01*
X14714143Y-12752786D02*
X14728428Y-12738500D01*
X14757000Y-12724214D01*
X14799857Y-12724214D01*
X14828428Y-12738500D01*
X14842714Y-12767071D01*
X14842714Y-12924214D01*
X14842714Y-12767071D02*
X14857000Y-12738500D01*
X14885571Y-12724214D01*
X14928428Y-12724214D01*
X14957000Y-12738500D01*
X14971286Y-12767071D01*
X14971286Y-12924214D01*
X15114143Y-12924214D02*
X15114143Y-12724214D01*
X15114143Y-12752786D02*
X15128428Y-12738500D01*
X15157000Y-12724214D01*
X15199857Y-12724214D01*
X15228428Y-12738500D01*
X15242714Y-12767071D01*
X15242714Y-12924214D01*
X15242714Y-12767071D02*
X15257000Y-12738500D01*
X15285571Y-12724214D01*
X15328428Y-12724214D01*
X15357000Y-12738500D01*
X15371286Y-12767071D01*
X15371286Y-12924214D01*
X15957000Y-12609929D02*
X15699857Y-12995643D01*
X16342714Y-12624214D02*
X16371286Y-12624214D01*
X16399857Y-12638500D01*
X16414143Y-12652786D01*
X16428428Y-12681357D01*
X16442714Y-12738500D01*
X16442714Y-12809929D01*
X16428428Y-12867071D01*
X16414143Y-12895643D01*
X16399857Y-12909929D01*
X16371286Y-12924214D01*
X16342714Y-12924214D01*
X16314143Y-12909929D01*
X16299857Y-12895643D01*
X16285571Y-12867071D01*
X16271286Y-12809929D01*
X16271286Y-12738500D01*
X16285571Y-12681357D01*
X16299857Y-12652786D01*
X16314143Y-12638500D01*
X16342714Y-12624214D01*
X16571286Y-12895643D02*
X16585571Y-12909929D01*
X16571286Y-12924214D01*
X16557000Y-12909929D01*
X16571286Y-12895643D01*
X16571286Y-12924214D01*
X16771286Y-12624214D02*
X16799857Y-12624214D01*
X16828428Y-12638500D01*
X16842714Y-12652786D01*
X16857000Y-12681357D01*
X16871286Y-12738500D01*
X16871286Y-12809929D01*
X16857000Y-12867071D01*
X16842714Y-12895643D01*
X16828428Y-12909929D01*
X16799857Y-12924214D01*
X16771286Y-12924214D01*
X16742714Y-12909929D01*
X16728428Y-12895643D01*
X16714143Y-12867071D01*
X16699857Y-12809929D01*
X16699857Y-12738500D01*
X16714143Y-12681357D01*
X16728428Y-12652786D01*
X16742714Y-12638500D01*
X16771286Y-12624214D01*
X16971286Y-12624214D02*
X17157000Y-12624214D01*
X17057000Y-12738500D01*
X17099857Y-12738500D01*
X17128428Y-12752786D01*
X17142714Y-12767071D01*
X17157000Y-12795643D01*
X17157000Y-12867071D01*
X17142714Y-12895643D01*
X17128428Y-12909929D01*
X17099857Y-12924214D01*
X17014143Y-12924214D01*
X16985571Y-12909929D01*
X16971286Y-12895643D01*
X17299857Y-12924214D02*
X17357000Y-12924214D01*
X17385571Y-12909929D01*
X17399857Y-12895643D01*
X17428428Y-12852786D01*
X17442714Y-12795643D01*
X17442714Y-12681357D01*
X17428428Y-12652786D01*
X17414143Y-12638500D01*
X17385571Y-12624214D01*
X17328428Y-12624214D01*
X17299857Y-12638500D01*
X17285571Y-12652786D01*
X17271286Y-12681357D01*
X17271286Y-12752786D01*
X17285571Y-12781357D01*
X17299857Y-12795643D01*
X17328428Y-12809929D01*
X17385571Y-12809929D01*
X17414143Y-12795643D01*
X17428428Y-12781357D01*
X17442714Y-12752786D01*
X17699857Y-12724214D02*
X17699857Y-12924214D01*
X17628428Y-12609929D02*
X17557000Y-12824214D01*
X17742714Y-12824214D01*
X17842714Y-12624214D02*
X17842714Y-12681357D01*
X17957000Y-12624214D02*
X17957000Y-12681357D01*
X18399857Y-13038500D02*
X18385571Y-13024214D01*
X18357000Y-12981357D01*
X18342714Y-12952786D01*
X18328428Y-12909929D01*
X18314143Y-12838500D01*
X18314143Y-12781357D01*
X18328428Y-12709929D01*
X18342714Y-12667071D01*
X18357000Y-12638500D01*
X18385571Y-12595643D01*
X18399857Y-12581357D01*
X18642714Y-12724214D02*
X18642714Y-12924214D01*
X18571286Y-12609929D02*
X18499857Y-12824214D01*
X18685571Y-12824214D01*
X19028428Y-12924214D02*
X19028428Y-12624214D01*
X19157000Y-12924214D02*
X19157000Y-12767071D01*
X19142714Y-12738500D01*
X19114143Y-12724214D01*
X19071286Y-12724214D01*
X19042714Y-12738500D01*
X19028428Y-12752786D01*
X19342714Y-12924214D02*
X19314143Y-12909929D01*
X19299857Y-12895643D01*
X19285571Y-12867071D01*
X19285571Y-12781357D01*
X19299857Y-12752786D01*
X19314143Y-12738500D01*
X19342714Y-12724214D01*
X19385571Y-12724214D01*
X19414143Y-12738500D01*
X19428428Y-12752786D01*
X19442714Y-12781357D01*
X19442714Y-12867071D01*
X19428428Y-12895643D01*
X19414143Y-12909929D01*
X19385571Y-12924214D01*
X19342714Y-12924214D01*
X19614143Y-12924214D02*
X19585571Y-12909929D01*
X19571286Y-12881357D01*
X19571286Y-12624214D01*
X19842714Y-12909929D02*
X19814143Y-12924214D01*
X19757000Y-12924214D01*
X19728428Y-12909929D01*
X19714143Y-12881357D01*
X19714143Y-12767071D01*
X19728428Y-12738500D01*
X19757000Y-12724214D01*
X19814143Y-12724214D01*
X19842714Y-12738500D01*
X19857000Y-12767071D01*
X19857000Y-12795643D01*
X19714143Y-12824214D01*
X19971286Y-12909929D02*
X19999857Y-12924214D01*
X20057000Y-12924214D01*
X20085571Y-12909929D01*
X20099857Y-12881357D01*
X20099857Y-12867071D01*
X20085571Y-12838500D01*
X20057000Y-12824214D01*
X20014143Y-12824214D01*
X19985571Y-12809929D01*
X19971286Y-12781357D01*
X19971286Y-12767071D01*
X19985571Y-12738500D01*
X20014143Y-12724214D01*
X20057000Y-12724214D01*
X20085571Y-12738500D01*
X20199857Y-13038500D02*
X20214143Y-13024214D01*
X20242714Y-12981357D01*
X20257000Y-12952786D01*
X20271286Y-12909929D01*
X20285571Y-12838500D01*
X20285571Y-12781357D01*
X20271286Y-12709929D01*
X20257000Y-12667071D01*
X20242714Y-12638500D01*
X20214143Y-12595643D01*
X20199857Y-12581357D01*
M02*
