G04 #@! TF.GenerationSoftware,KiCad,Pcbnew,(5.1.10)-1*
G04 #@! TF.CreationDate,2021-12-10T13:20:38-08:00*
G04 #@! TF.ProjectId,BQ298xyz,42513239-3878-4797-9a2e-6b696361645f,rev?*
G04 #@! TF.SameCoordinates,Original*
G04 #@! TF.FileFunction,Copper,L2,Bot*
G04 #@! TF.FilePolarity,Positive*
%FSLAX46Y46*%
G04 Gerber Fmt 4.6, Leading zero omitted, Abs format (unit mm)*
G04 Created by KiCad (PCBNEW (5.1.10)-1) date 2021-12-10 13:20:38*
%MOMM*%
%LPD*%
G01*
G04 APERTURE LIST*
G04 #@! TA.AperFunction,ComponentPad*
%ADD10C,3.000000*%
G04 #@! TD*
G04 #@! TA.AperFunction,WasherPad*
%ADD11C,3.500000*%
G04 #@! TD*
G04 #@! TA.AperFunction,WasherPad*
%ADD12C,3.200000*%
G04 #@! TD*
G04 #@! TA.AperFunction,ViaPad*
%ADD13C,0.800000*%
G04 #@! TD*
G04 #@! TA.AperFunction,ViaPad*
%ADD14C,2.000000*%
G04 #@! TD*
G04 #@! TA.AperFunction,Conductor*
%ADD15C,0.250000*%
G04 #@! TD*
G04 #@! TA.AperFunction,Conductor*
%ADD16C,4.000000*%
G04 #@! TD*
G04 APERTURE END LIST*
D10*
X190900000Y-121000000D03*
X190900000Y-126000000D03*
D11*
X177074999Y-69484999D03*
D12*
X177074999Y-86984999D03*
D11*
X121874999Y-104484999D03*
D12*
X121874999Y-86984999D03*
D13*
X110800000Y-120800000D03*
X186200000Y-108300000D03*
D14*
X184075010Y-126524990D03*
X178300000Y-126300000D03*
X173000000Y-126300000D03*
D13*
X123044036Y-118285826D03*
X116650000Y-118420000D03*
X115799992Y-119100000D03*
X122901491Y-121560525D03*
D14*
X183000000Y-115800000D03*
D13*
X114900000Y-121500000D03*
X177000000Y-112100000D03*
D14*
X185200000Y-117900000D03*
X187300000Y-120500000D03*
D15*
X123300000Y-108300000D02*
X186200000Y-108300000D01*
X110800000Y-120800000D02*
X123300000Y-108300000D01*
D16*
X190900000Y-126000000D02*
X171700000Y-126000000D01*
D15*
X122909862Y-118420000D02*
X123044036Y-118285826D01*
X116650000Y-118420000D02*
X122909862Y-118420000D01*
X115999992Y-118900000D02*
X115799992Y-119100000D01*
X118260517Y-121560525D02*
X122901491Y-121560525D01*
X115799992Y-119100000D02*
X118260517Y-121560525D01*
X114900000Y-121500000D02*
X114900000Y-118300000D01*
X114900000Y-118300000D02*
X121100000Y-112100000D01*
X121100000Y-112100000D02*
X177000000Y-112100000D01*
D16*
X190900000Y-121000000D02*
X188300000Y-121000000D01*
X188300000Y-121000000D02*
X182600000Y-115300000D01*
M02*
