%FSLAX45Y45*%
G04 Gerber Fmt 4.5, Leading zero omitted, Abs format (unit mm)*
G04 Created by KiCad (PCBNEW (5.1.10)-1) date 2021-12-10 13:21:43*
%MOMM*%
%LPD*%
G01*
G04 APERTURE LIST*
%TA.AperFunction,Profile*%
%ADD10C,0.050000*%
%TD*%
%ADD11C,0.200000*%
%ADD12C,0.300000*%
G04 APERTURE END LIST*
D10*
X10500000Y-13000000D02*
X10500000Y-6500000D01*
X19500000Y-13000000D02*
X10500000Y-13000000D01*
X19500000Y-6500000D02*
X19500000Y-13000000D01*
X10500000Y-6500000D02*
X19500000Y-6500000D01*
D11*
X11060000Y-12060000D02*
X11100000Y-12100000D01*
X11100000Y-12060000D02*
X11060000Y-12100000D01*
X11470000Y-12130000D02*
X11510000Y-12170000D01*
X11510000Y-12130000D02*
X11470000Y-12170000D01*
X11559999Y-11890000D02*
X11599999Y-11930000D01*
X11599999Y-11890000D02*
X11559999Y-11930000D01*
X11645000Y-11822000D02*
X11685000Y-11862000D01*
X11685000Y-11822000D02*
X11645000Y-11862000D01*
X12270149Y-12136052D02*
X12310149Y-12176052D01*
X12310149Y-12136052D02*
X12270149Y-12176052D01*
X12284404Y-11808583D02*
X12324404Y-11848583D01*
X12324404Y-11808583D02*
X12284404Y-11848583D01*
X17680000Y-11190000D02*
X17720000Y-11230000D01*
X17720000Y-11190000D02*
X17680000Y-11230000D01*
X18600000Y-10810000D02*
X18640000Y-10850000D01*
X18640000Y-10810000D02*
X18600000Y-10850000D01*
X17370000Y-12630000D02*
G75*
G03*
X17370000Y-12630000I-70000J0D01*
G01*
X17900000Y-12630000D02*
G75*
G03*
X17900000Y-12630000I-70000J0D01*
G01*
X18370000Y-11580000D02*
G75*
G03*
X18370000Y-11580000I-70000J0D01*
G01*
X18477501Y-12652499D02*
G75*
G03*
X18477501Y-12652499I-70000J0D01*
G01*
X18590000Y-11790000D02*
G75*
G03*
X18590000Y-11790000I-70000J0D01*
G01*
X18800000Y-12050000D02*
G75*
G03*
X18800000Y-12050000I-70000J0D01*
G01*
X19090000Y-12017500D02*
X19090000Y-12182500D01*
X19007500Y-12100000D02*
X19172500Y-12100000D01*
X19090000Y-12517500D02*
X19090000Y-12682500D01*
X19007500Y-12600000D02*
X19172500Y-12600000D01*
D12*
X10783928Y-13468214D02*
X10783928Y-13168214D01*
X10855357Y-13168214D01*
X10898214Y-13182500D01*
X10926786Y-13211071D01*
X10941071Y-13239643D01*
X10955357Y-13296786D01*
X10955357Y-13339643D01*
X10941071Y-13396786D01*
X10926786Y-13425357D01*
X10898214Y-13453929D01*
X10855357Y-13468214D01*
X10783928Y-13468214D01*
X11083928Y-13468214D02*
X11083928Y-13268214D01*
X11083928Y-13325357D02*
X11098214Y-13296786D01*
X11112500Y-13282500D01*
X11141071Y-13268214D01*
X11169643Y-13268214D01*
X11269643Y-13468214D02*
X11269643Y-13268214D01*
X11269643Y-13168214D02*
X11255357Y-13182500D01*
X11269643Y-13196786D01*
X11283928Y-13182500D01*
X11269643Y-13168214D01*
X11269643Y-13196786D01*
X11455357Y-13468214D02*
X11426786Y-13453929D01*
X11412500Y-13425357D01*
X11412500Y-13168214D01*
X11612500Y-13468214D02*
X11583928Y-13453929D01*
X11569643Y-13425357D01*
X11569643Y-13168214D01*
X11955357Y-13468214D02*
X11955357Y-13168214D01*
X12055357Y-13382500D01*
X12155357Y-13168214D01*
X12155357Y-13468214D01*
X12426786Y-13468214D02*
X12426786Y-13311071D01*
X12412500Y-13282500D01*
X12383928Y-13268214D01*
X12326786Y-13268214D01*
X12298214Y-13282500D01*
X12426786Y-13453929D02*
X12398214Y-13468214D01*
X12326786Y-13468214D01*
X12298214Y-13453929D01*
X12283928Y-13425357D01*
X12283928Y-13396786D01*
X12298214Y-13368214D01*
X12326786Y-13353929D01*
X12398214Y-13353929D01*
X12426786Y-13339643D01*
X12569643Y-13268214D02*
X12569643Y-13568214D01*
X12569643Y-13282500D02*
X12598214Y-13268214D01*
X12655357Y-13268214D01*
X12683928Y-13282500D01*
X12698214Y-13296786D01*
X12712500Y-13325357D01*
X12712500Y-13411071D01*
X12698214Y-13439643D01*
X12683928Y-13453929D01*
X12655357Y-13468214D01*
X12598214Y-13468214D01*
X12569643Y-13453929D01*
X12841071Y-13439643D02*
X12855357Y-13453929D01*
X12841071Y-13468214D01*
X12826786Y-13453929D01*
X12841071Y-13439643D01*
X12841071Y-13468214D01*
X12841071Y-13282500D02*
X12855357Y-13296786D01*
X12841071Y-13311071D01*
X12826786Y-13296786D01*
X12841071Y-13282500D01*
X12841071Y-13311071D01*
X10457500Y-13942500D02*
X10497500Y-13982500D01*
X10497500Y-13942500D02*
X10457500Y-13982500D01*
X10841071Y-13798214D02*
X10869643Y-13798214D01*
X10898214Y-13812500D01*
X10912500Y-13826786D01*
X10926786Y-13855357D01*
X10941071Y-13912500D01*
X10941071Y-13983929D01*
X10926786Y-14041071D01*
X10912500Y-14069643D01*
X10898214Y-14083929D01*
X10869643Y-14098214D01*
X10841071Y-14098214D01*
X10812500Y-14083929D01*
X10798214Y-14069643D01*
X10783928Y-14041071D01*
X10769643Y-13983929D01*
X10769643Y-13912500D01*
X10783928Y-13855357D01*
X10798214Y-13826786D01*
X10812500Y-13812500D01*
X10841071Y-13798214D01*
X11069643Y-14069643D02*
X11083928Y-14083929D01*
X11069643Y-14098214D01*
X11055357Y-14083929D01*
X11069643Y-14069643D01*
X11069643Y-14098214D01*
X11341071Y-13898214D02*
X11341071Y-14098214D01*
X11269643Y-13783929D02*
X11198214Y-13998214D01*
X11383928Y-13998214D01*
X11555357Y-13798214D02*
X11583928Y-13798214D01*
X11612500Y-13812500D01*
X11626786Y-13826786D01*
X11641071Y-13855357D01*
X11655357Y-13912500D01*
X11655357Y-13983929D01*
X11641071Y-14041071D01*
X11626786Y-14069643D01*
X11612500Y-14083929D01*
X11583928Y-14098214D01*
X11555357Y-14098214D01*
X11526786Y-14083929D01*
X11512500Y-14069643D01*
X11498214Y-14041071D01*
X11483928Y-13983929D01*
X11483928Y-13912500D01*
X11498214Y-13855357D01*
X11512500Y-13826786D01*
X11526786Y-13812500D01*
X11555357Y-13798214D01*
X11841071Y-13798214D02*
X11869643Y-13798214D01*
X11898214Y-13812500D01*
X11912500Y-13826786D01*
X11926786Y-13855357D01*
X11941071Y-13912500D01*
X11941071Y-13983929D01*
X11926786Y-14041071D01*
X11912500Y-14069643D01*
X11898214Y-14083929D01*
X11869643Y-14098214D01*
X11841071Y-14098214D01*
X11812500Y-14083929D01*
X11798214Y-14069643D01*
X11783928Y-14041071D01*
X11769643Y-13983929D01*
X11769643Y-13912500D01*
X11783928Y-13855357D01*
X11798214Y-13826786D01*
X11812500Y-13812500D01*
X11841071Y-13798214D01*
X12069643Y-14098214D02*
X12069643Y-13898214D01*
X12069643Y-13926786D02*
X12083928Y-13912500D01*
X12112500Y-13898214D01*
X12155357Y-13898214D01*
X12183928Y-13912500D01*
X12198214Y-13941071D01*
X12198214Y-14098214D01*
X12198214Y-13941071D02*
X12212500Y-13912500D01*
X12241071Y-13898214D01*
X12283928Y-13898214D01*
X12312500Y-13912500D01*
X12326786Y-13941071D01*
X12326786Y-14098214D01*
X12469643Y-14098214D02*
X12469643Y-13898214D01*
X12469643Y-13926786D02*
X12483928Y-13912500D01*
X12512500Y-13898214D01*
X12555357Y-13898214D01*
X12583928Y-13912500D01*
X12598214Y-13941071D01*
X12598214Y-14098214D01*
X12598214Y-13941071D02*
X12612500Y-13912500D01*
X12641071Y-13898214D01*
X12683928Y-13898214D01*
X12712500Y-13912500D01*
X12726786Y-13941071D01*
X12726786Y-14098214D01*
X13312500Y-13783929D02*
X13055357Y-14169643D01*
X13698214Y-13798214D02*
X13726786Y-13798214D01*
X13755357Y-13812500D01*
X13769643Y-13826786D01*
X13783928Y-13855357D01*
X13798214Y-13912500D01*
X13798214Y-13983929D01*
X13783928Y-14041071D01*
X13769643Y-14069643D01*
X13755357Y-14083929D01*
X13726786Y-14098214D01*
X13698214Y-14098214D01*
X13669643Y-14083929D01*
X13655357Y-14069643D01*
X13641071Y-14041071D01*
X13626786Y-13983929D01*
X13626786Y-13912500D01*
X13641071Y-13855357D01*
X13655357Y-13826786D01*
X13669643Y-13812500D01*
X13698214Y-13798214D01*
X13926786Y-14069643D02*
X13941071Y-14083929D01*
X13926786Y-14098214D01*
X13912500Y-14083929D01*
X13926786Y-14069643D01*
X13926786Y-14098214D01*
X14126786Y-13798214D02*
X14155357Y-13798214D01*
X14183928Y-13812500D01*
X14198214Y-13826786D01*
X14212500Y-13855357D01*
X14226786Y-13912500D01*
X14226786Y-13983929D01*
X14212500Y-14041071D01*
X14198214Y-14069643D01*
X14183928Y-14083929D01*
X14155357Y-14098214D01*
X14126786Y-14098214D01*
X14098214Y-14083929D01*
X14083928Y-14069643D01*
X14069643Y-14041071D01*
X14055357Y-13983929D01*
X14055357Y-13912500D01*
X14069643Y-13855357D01*
X14083928Y-13826786D01*
X14098214Y-13812500D01*
X14126786Y-13798214D01*
X14512500Y-14098214D02*
X14341071Y-14098214D01*
X14426786Y-14098214D02*
X14426786Y-13798214D01*
X14398214Y-13841071D01*
X14369643Y-13869643D01*
X14341071Y-13883929D01*
X14783928Y-13798214D02*
X14641071Y-13798214D01*
X14626786Y-13941071D01*
X14641071Y-13926786D01*
X14669643Y-13912500D01*
X14741071Y-13912500D01*
X14769643Y-13926786D01*
X14783928Y-13941071D01*
X14798214Y-13969643D01*
X14798214Y-14041071D01*
X14783928Y-14069643D01*
X14769643Y-14083929D01*
X14741071Y-14098214D01*
X14669643Y-14098214D01*
X14641071Y-14083929D01*
X14626786Y-14069643D01*
X14898214Y-13798214D02*
X15098214Y-13798214D01*
X14969643Y-14098214D01*
X15198214Y-13798214D02*
X15198214Y-13855357D01*
X15312500Y-13798214D02*
X15312500Y-13855357D01*
X15755357Y-14212500D02*
X15741071Y-14198214D01*
X15712500Y-14155357D01*
X15698214Y-14126786D01*
X15683928Y-14083929D01*
X15669643Y-14012500D01*
X15669643Y-13955357D01*
X15683928Y-13883929D01*
X15698214Y-13841071D01*
X15712500Y-13812500D01*
X15741071Y-13769643D01*
X15755357Y-13755357D01*
X15912500Y-13926786D02*
X15883928Y-13912500D01*
X15869643Y-13898214D01*
X15855357Y-13869643D01*
X15855357Y-13855357D01*
X15869643Y-13826786D01*
X15883928Y-13812500D01*
X15912500Y-13798214D01*
X15969643Y-13798214D01*
X15998214Y-13812500D01*
X16012500Y-13826786D01*
X16026786Y-13855357D01*
X16026786Y-13869643D01*
X16012500Y-13898214D01*
X15998214Y-13912500D01*
X15969643Y-13926786D01*
X15912500Y-13926786D01*
X15883928Y-13941071D01*
X15869643Y-13955357D01*
X15855357Y-13983929D01*
X15855357Y-14041071D01*
X15869643Y-14069643D01*
X15883928Y-14083929D01*
X15912500Y-14098214D01*
X15969643Y-14098214D01*
X15998214Y-14083929D01*
X16012500Y-14069643D01*
X16026786Y-14041071D01*
X16026786Y-13983929D01*
X16012500Y-13955357D01*
X15998214Y-13941071D01*
X15969643Y-13926786D01*
X16383928Y-14098214D02*
X16383928Y-13798214D01*
X16512500Y-14098214D02*
X16512500Y-13941071D01*
X16498214Y-13912500D01*
X16469643Y-13898214D01*
X16426786Y-13898214D01*
X16398214Y-13912500D01*
X16383928Y-13926786D01*
X16698214Y-14098214D02*
X16669643Y-14083929D01*
X16655357Y-14069643D01*
X16641071Y-14041071D01*
X16641071Y-13955357D01*
X16655357Y-13926786D01*
X16669643Y-13912500D01*
X16698214Y-13898214D01*
X16741071Y-13898214D01*
X16769643Y-13912500D01*
X16783928Y-13926786D01*
X16798214Y-13955357D01*
X16798214Y-14041071D01*
X16783928Y-14069643D01*
X16769643Y-14083929D01*
X16741071Y-14098214D01*
X16698214Y-14098214D01*
X16969643Y-14098214D02*
X16941071Y-14083929D01*
X16926786Y-14055357D01*
X16926786Y-13798214D01*
X17198214Y-14083929D02*
X17169643Y-14098214D01*
X17112500Y-14098214D01*
X17083928Y-14083929D01*
X17069643Y-14055357D01*
X17069643Y-13941071D01*
X17083928Y-13912500D01*
X17112500Y-13898214D01*
X17169643Y-13898214D01*
X17198214Y-13912500D01*
X17212500Y-13941071D01*
X17212500Y-13969643D01*
X17069643Y-13998214D01*
X17326786Y-14083929D02*
X17355357Y-14098214D01*
X17412500Y-14098214D01*
X17441071Y-14083929D01*
X17455357Y-14055357D01*
X17455357Y-14041071D01*
X17441071Y-14012500D01*
X17412500Y-13998214D01*
X17369643Y-13998214D01*
X17341071Y-13983929D01*
X17326786Y-13955357D01*
X17326786Y-13941071D01*
X17341071Y-13912500D01*
X17369643Y-13898214D01*
X17412500Y-13898214D01*
X17441071Y-13912500D01*
X17555357Y-14212500D02*
X17569643Y-14198214D01*
X17598214Y-14155357D01*
X17612500Y-14126786D01*
X17626786Y-14083929D01*
X17641071Y-14012500D01*
X17641071Y-13955357D01*
X17626786Y-13883929D01*
X17612500Y-13841071D01*
X17598214Y-13812500D01*
X17569643Y-13769643D01*
X17555357Y-13755357D01*
X10497500Y-14358500D02*
G75*
G03*
X10497500Y-14358500I-70000J0D01*
G01*
X10941071Y-14494214D02*
X10769643Y-14494214D01*
X10855357Y-14494214D02*
X10855357Y-14194214D01*
X10826786Y-14237071D01*
X10798214Y-14265643D01*
X10769643Y-14279929D01*
X11069643Y-14465643D02*
X11083928Y-14479929D01*
X11069643Y-14494214D01*
X11055357Y-14479929D01*
X11069643Y-14465643D01*
X11069643Y-14494214D01*
X11341071Y-14294214D02*
X11341071Y-14494214D01*
X11269643Y-14179929D02*
X11198214Y-14394214D01*
X11383928Y-14394214D01*
X11555357Y-14194214D02*
X11583928Y-14194214D01*
X11612500Y-14208500D01*
X11626786Y-14222786D01*
X11641071Y-14251357D01*
X11655357Y-14308500D01*
X11655357Y-14379929D01*
X11641071Y-14437071D01*
X11626786Y-14465643D01*
X11612500Y-14479929D01*
X11583928Y-14494214D01*
X11555357Y-14494214D01*
X11526786Y-14479929D01*
X11512500Y-14465643D01*
X11498214Y-14437071D01*
X11483928Y-14379929D01*
X11483928Y-14308500D01*
X11498214Y-14251357D01*
X11512500Y-14222786D01*
X11526786Y-14208500D01*
X11555357Y-14194214D01*
X11841071Y-14194214D02*
X11869643Y-14194214D01*
X11898214Y-14208500D01*
X11912500Y-14222786D01*
X11926786Y-14251357D01*
X11941071Y-14308500D01*
X11941071Y-14379929D01*
X11926786Y-14437071D01*
X11912500Y-14465643D01*
X11898214Y-14479929D01*
X11869643Y-14494214D01*
X11841071Y-14494214D01*
X11812500Y-14479929D01*
X11798214Y-14465643D01*
X11783928Y-14437071D01*
X11769643Y-14379929D01*
X11769643Y-14308500D01*
X11783928Y-14251357D01*
X11798214Y-14222786D01*
X11812500Y-14208500D01*
X11841071Y-14194214D01*
X12069643Y-14494214D02*
X12069643Y-14294214D01*
X12069643Y-14322786D02*
X12083928Y-14308500D01*
X12112500Y-14294214D01*
X12155357Y-14294214D01*
X12183928Y-14308500D01*
X12198214Y-14337071D01*
X12198214Y-14494214D01*
X12198214Y-14337071D02*
X12212500Y-14308500D01*
X12241071Y-14294214D01*
X12283928Y-14294214D01*
X12312500Y-14308500D01*
X12326786Y-14337071D01*
X12326786Y-14494214D01*
X12469643Y-14494214D02*
X12469643Y-14294214D01*
X12469643Y-14322786D02*
X12483928Y-14308500D01*
X12512500Y-14294214D01*
X12555357Y-14294214D01*
X12583928Y-14308500D01*
X12598214Y-14337071D01*
X12598214Y-14494214D01*
X12598214Y-14337071D02*
X12612500Y-14308500D01*
X12641071Y-14294214D01*
X12683928Y-14294214D01*
X12712500Y-14308500D01*
X12726786Y-14337071D01*
X12726786Y-14494214D01*
X13312500Y-14179929D02*
X13055357Y-14565643D01*
X13698214Y-14194214D02*
X13726786Y-14194214D01*
X13755357Y-14208500D01*
X13769643Y-14222786D01*
X13783928Y-14251357D01*
X13798214Y-14308500D01*
X13798214Y-14379929D01*
X13783928Y-14437071D01*
X13769643Y-14465643D01*
X13755357Y-14479929D01*
X13726786Y-14494214D01*
X13698214Y-14494214D01*
X13669643Y-14479929D01*
X13655357Y-14465643D01*
X13641071Y-14437071D01*
X13626786Y-14379929D01*
X13626786Y-14308500D01*
X13641071Y-14251357D01*
X13655357Y-14222786D01*
X13669643Y-14208500D01*
X13698214Y-14194214D01*
X13926786Y-14465643D02*
X13941071Y-14479929D01*
X13926786Y-14494214D01*
X13912500Y-14479929D01*
X13926786Y-14465643D01*
X13926786Y-14494214D01*
X14126786Y-14194214D02*
X14155357Y-14194214D01*
X14183928Y-14208500D01*
X14198214Y-14222786D01*
X14212500Y-14251357D01*
X14226786Y-14308500D01*
X14226786Y-14379929D01*
X14212500Y-14437071D01*
X14198214Y-14465643D01*
X14183928Y-14479929D01*
X14155357Y-14494214D01*
X14126786Y-14494214D01*
X14098214Y-14479929D01*
X14083928Y-14465643D01*
X14069643Y-14437071D01*
X14055357Y-14379929D01*
X14055357Y-14308500D01*
X14069643Y-14251357D01*
X14083928Y-14222786D01*
X14098214Y-14208500D01*
X14126786Y-14194214D01*
X14498214Y-14194214D02*
X14355357Y-14194214D01*
X14341071Y-14337071D01*
X14355357Y-14322786D01*
X14383928Y-14308500D01*
X14455357Y-14308500D01*
X14483928Y-14322786D01*
X14498214Y-14337071D01*
X14512500Y-14365643D01*
X14512500Y-14437071D01*
X14498214Y-14465643D01*
X14483928Y-14479929D01*
X14455357Y-14494214D01*
X14383928Y-14494214D01*
X14355357Y-14479929D01*
X14341071Y-14465643D01*
X14783928Y-14194214D02*
X14641071Y-14194214D01*
X14626786Y-14337071D01*
X14641071Y-14322786D01*
X14669643Y-14308500D01*
X14741071Y-14308500D01*
X14769643Y-14322786D01*
X14783928Y-14337071D01*
X14798214Y-14365643D01*
X14798214Y-14437071D01*
X14783928Y-14465643D01*
X14769643Y-14479929D01*
X14741071Y-14494214D01*
X14669643Y-14494214D01*
X14641071Y-14479929D01*
X14626786Y-14465643D01*
X15083928Y-14494214D02*
X14912500Y-14494214D01*
X14998214Y-14494214D02*
X14998214Y-14194214D01*
X14969643Y-14237071D01*
X14941071Y-14265643D01*
X14912500Y-14279929D01*
X15198214Y-14194214D02*
X15198214Y-14251357D01*
X15312500Y-14194214D02*
X15312500Y-14251357D01*
X15755357Y-14608500D02*
X15741071Y-14594214D01*
X15712500Y-14551357D01*
X15698214Y-14522786D01*
X15683928Y-14479929D01*
X15669643Y-14408500D01*
X15669643Y-14351357D01*
X15683928Y-14279929D01*
X15698214Y-14237071D01*
X15712500Y-14208500D01*
X15741071Y-14165643D01*
X15755357Y-14151357D01*
X15998214Y-14194214D02*
X15941071Y-14194214D01*
X15912500Y-14208500D01*
X15898214Y-14222786D01*
X15869643Y-14265643D01*
X15855357Y-14322786D01*
X15855357Y-14437071D01*
X15869643Y-14465643D01*
X15883928Y-14479929D01*
X15912500Y-14494214D01*
X15969643Y-14494214D01*
X15998214Y-14479929D01*
X16012500Y-14465643D01*
X16026786Y-14437071D01*
X16026786Y-14365643D01*
X16012500Y-14337071D01*
X15998214Y-14322786D01*
X15969643Y-14308500D01*
X15912500Y-14308500D01*
X15883928Y-14322786D01*
X15869643Y-14337071D01*
X15855357Y-14365643D01*
X16383928Y-14494214D02*
X16383928Y-14194214D01*
X16512500Y-14494214D02*
X16512500Y-14337071D01*
X16498214Y-14308500D01*
X16469643Y-14294214D01*
X16426786Y-14294214D01*
X16398214Y-14308500D01*
X16383928Y-14322786D01*
X16698214Y-14494214D02*
X16669643Y-14479929D01*
X16655357Y-14465643D01*
X16641071Y-14437071D01*
X16641071Y-14351357D01*
X16655357Y-14322786D01*
X16669643Y-14308500D01*
X16698214Y-14294214D01*
X16741071Y-14294214D01*
X16769643Y-14308500D01*
X16783928Y-14322786D01*
X16798214Y-14351357D01*
X16798214Y-14437071D01*
X16783928Y-14465643D01*
X16769643Y-14479929D01*
X16741071Y-14494214D01*
X16698214Y-14494214D01*
X16969643Y-14494214D02*
X16941071Y-14479929D01*
X16926786Y-14451357D01*
X16926786Y-14194214D01*
X17198214Y-14479929D02*
X17169643Y-14494214D01*
X17112500Y-14494214D01*
X17083928Y-14479929D01*
X17069643Y-14451357D01*
X17069643Y-14337071D01*
X17083928Y-14308500D01*
X17112500Y-14294214D01*
X17169643Y-14294214D01*
X17198214Y-14308500D01*
X17212500Y-14337071D01*
X17212500Y-14365643D01*
X17069643Y-14394214D01*
X17326786Y-14479929D02*
X17355357Y-14494214D01*
X17412500Y-14494214D01*
X17441071Y-14479929D01*
X17455357Y-14451357D01*
X17455357Y-14437071D01*
X17441071Y-14408500D01*
X17412500Y-14394214D01*
X17369643Y-14394214D01*
X17341071Y-14379929D01*
X17326786Y-14351357D01*
X17326786Y-14337071D01*
X17341071Y-14308500D01*
X17369643Y-14294214D01*
X17412500Y-14294214D01*
X17441071Y-14308500D01*
X17555357Y-14608500D02*
X17569643Y-14594214D01*
X17598214Y-14551357D01*
X17612500Y-14522786D01*
X17626786Y-14479929D01*
X17641071Y-14408500D01*
X17641071Y-14351357D01*
X17626786Y-14279929D01*
X17612500Y-14237071D01*
X17598214Y-14208500D01*
X17569643Y-14165643D01*
X17555357Y-14151357D01*
X10415000Y-14672000D02*
X10415000Y-14837000D01*
X10332500Y-14754500D02*
X10497500Y-14754500D01*
X10941071Y-14890214D02*
X10769643Y-14890214D01*
X10855357Y-14890214D02*
X10855357Y-14590214D01*
X10826786Y-14633071D01*
X10798214Y-14661643D01*
X10769643Y-14675929D01*
X11069643Y-14861643D02*
X11083928Y-14875929D01*
X11069643Y-14890214D01*
X11055357Y-14875929D01*
X11069643Y-14861643D01*
X11069643Y-14890214D01*
X11341071Y-14590214D02*
X11283928Y-14590214D01*
X11255357Y-14604500D01*
X11241071Y-14618786D01*
X11212500Y-14661643D01*
X11198214Y-14718786D01*
X11198214Y-14833071D01*
X11212500Y-14861643D01*
X11226786Y-14875929D01*
X11255357Y-14890214D01*
X11312500Y-14890214D01*
X11341071Y-14875929D01*
X11355357Y-14861643D01*
X11369643Y-14833071D01*
X11369643Y-14761643D01*
X11355357Y-14733071D01*
X11341071Y-14718786D01*
X11312500Y-14704500D01*
X11255357Y-14704500D01*
X11226786Y-14718786D01*
X11212500Y-14733071D01*
X11198214Y-14761643D01*
X11641071Y-14590214D02*
X11498214Y-14590214D01*
X11483928Y-14733071D01*
X11498214Y-14718786D01*
X11526786Y-14704500D01*
X11598214Y-14704500D01*
X11626786Y-14718786D01*
X11641071Y-14733071D01*
X11655357Y-14761643D01*
X11655357Y-14833071D01*
X11641071Y-14861643D01*
X11626786Y-14875929D01*
X11598214Y-14890214D01*
X11526786Y-14890214D01*
X11498214Y-14875929D01*
X11483928Y-14861643D01*
X11841071Y-14590214D02*
X11869643Y-14590214D01*
X11898214Y-14604500D01*
X11912500Y-14618786D01*
X11926786Y-14647357D01*
X11941071Y-14704500D01*
X11941071Y-14775929D01*
X11926786Y-14833071D01*
X11912500Y-14861643D01*
X11898214Y-14875929D01*
X11869643Y-14890214D01*
X11841071Y-14890214D01*
X11812500Y-14875929D01*
X11798214Y-14861643D01*
X11783928Y-14833071D01*
X11769643Y-14775929D01*
X11769643Y-14704500D01*
X11783928Y-14647357D01*
X11798214Y-14618786D01*
X11812500Y-14604500D01*
X11841071Y-14590214D01*
X12069643Y-14890214D02*
X12069643Y-14690214D01*
X12069643Y-14718786D02*
X12083928Y-14704500D01*
X12112500Y-14690214D01*
X12155357Y-14690214D01*
X12183928Y-14704500D01*
X12198214Y-14733071D01*
X12198214Y-14890214D01*
X12198214Y-14733071D02*
X12212500Y-14704500D01*
X12241071Y-14690214D01*
X12283928Y-14690214D01*
X12312500Y-14704500D01*
X12326786Y-14733071D01*
X12326786Y-14890214D01*
X12469643Y-14890214D02*
X12469643Y-14690214D01*
X12469643Y-14718786D02*
X12483928Y-14704500D01*
X12512500Y-14690214D01*
X12555357Y-14690214D01*
X12583928Y-14704500D01*
X12598214Y-14733071D01*
X12598214Y-14890214D01*
X12598214Y-14733071D02*
X12612500Y-14704500D01*
X12641071Y-14690214D01*
X12683928Y-14690214D01*
X12712500Y-14704500D01*
X12726786Y-14733071D01*
X12726786Y-14890214D01*
X13312500Y-14575929D02*
X13055357Y-14961643D01*
X13698214Y-14590214D02*
X13726786Y-14590214D01*
X13755357Y-14604500D01*
X13769643Y-14618786D01*
X13783928Y-14647357D01*
X13798214Y-14704500D01*
X13798214Y-14775929D01*
X13783928Y-14833071D01*
X13769643Y-14861643D01*
X13755357Y-14875929D01*
X13726786Y-14890214D01*
X13698214Y-14890214D01*
X13669643Y-14875929D01*
X13655357Y-14861643D01*
X13641071Y-14833071D01*
X13626786Y-14775929D01*
X13626786Y-14704500D01*
X13641071Y-14647357D01*
X13655357Y-14618786D01*
X13669643Y-14604500D01*
X13698214Y-14590214D01*
X13926786Y-14861643D02*
X13941071Y-14875929D01*
X13926786Y-14890214D01*
X13912500Y-14875929D01*
X13926786Y-14861643D01*
X13926786Y-14890214D01*
X14126786Y-14590214D02*
X14155357Y-14590214D01*
X14183928Y-14604500D01*
X14198214Y-14618786D01*
X14212500Y-14647357D01*
X14226786Y-14704500D01*
X14226786Y-14775929D01*
X14212500Y-14833071D01*
X14198214Y-14861643D01*
X14183928Y-14875929D01*
X14155357Y-14890214D01*
X14126786Y-14890214D01*
X14098214Y-14875929D01*
X14083928Y-14861643D01*
X14069643Y-14833071D01*
X14055357Y-14775929D01*
X14055357Y-14704500D01*
X14069643Y-14647357D01*
X14083928Y-14618786D01*
X14098214Y-14604500D01*
X14126786Y-14590214D01*
X14483928Y-14590214D02*
X14426786Y-14590214D01*
X14398214Y-14604500D01*
X14383928Y-14618786D01*
X14355357Y-14661643D01*
X14341071Y-14718786D01*
X14341071Y-14833071D01*
X14355357Y-14861643D01*
X14369643Y-14875929D01*
X14398214Y-14890214D01*
X14455357Y-14890214D01*
X14483928Y-14875929D01*
X14498214Y-14861643D01*
X14512500Y-14833071D01*
X14512500Y-14761643D01*
X14498214Y-14733071D01*
X14483928Y-14718786D01*
X14455357Y-14704500D01*
X14398214Y-14704500D01*
X14369643Y-14718786D01*
X14355357Y-14733071D01*
X14341071Y-14761643D01*
X14783928Y-14590214D02*
X14641071Y-14590214D01*
X14626786Y-14733071D01*
X14641071Y-14718786D01*
X14669643Y-14704500D01*
X14741071Y-14704500D01*
X14769643Y-14718786D01*
X14783928Y-14733071D01*
X14798214Y-14761643D01*
X14798214Y-14833071D01*
X14783928Y-14861643D01*
X14769643Y-14875929D01*
X14741071Y-14890214D01*
X14669643Y-14890214D01*
X14641071Y-14875929D01*
X14626786Y-14861643D01*
X14983928Y-14590214D02*
X15012500Y-14590214D01*
X15041071Y-14604500D01*
X15055357Y-14618786D01*
X15069643Y-14647357D01*
X15083928Y-14704500D01*
X15083928Y-14775929D01*
X15069643Y-14833071D01*
X15055357Y-14861643D01*
X15041071Y-14875929D01*
X15012500Y-14890214D01*
X14983928Y-14890214D01*
X14955357Y-14875929D01*
X14941071Y-14861643D01*
X14926786Y-14833071D01*
X14912500Y-14775929D01*
X14912500Y-14704500D01*
X14926786Y-14647357D01*
X14941071Y-14618786D01*
X14955357Y-14604500D01*
X14983928Y-14590214D01*
X15198214Y-14590214D02*
X15198214Y-14647357D01*
X15312500Y-14590214D02*
X15312500Y-14647357D01*
X15755357Y-15004500D02*
X15741071Y-14990214D01*
X15712500Y-14947357D01*
X15698214Y-14918786D01*
X15683928Y-14875929D01*
X15669643Y-14804500D01*
X15669643Y-14747357D01*
X15683928Y-14675929D01*
X15698214Y-14633071D01*
X15712500Y-14604500D01*
X15741071Y-14561643D01*
X15755357Y-14547357D01*
X15855357Y-14618786D02*
X15869643Y-14604500D01*
X15898214Y-14590214D01*
X15969643Y-14590214D01*
X15998214Y-14604500D01*
X16012500Y-14618786D01*
X16026786Y-14647357D01*
X16026786Y-14675929D01*
X16012500Y-14718786D01*
X15841071Y-14890214D01*
X16026786Y-14890214D01*
X16383928Y-14890214D02*
X16383928Y-14590214D01*
X16512500Y-14890214D02*
X16512500Y-14733071D01*
X16498214Y-14704500D01*
X16469643Y-14690214D01*
X16426786Y-14690214D01*
X16398214Y-14704500D01*
X16383928Y-14718786D01*
X16698214Y-14890214D02*
X16669643Y-14875929D01*
X16655357Y-14861643D01*
X16641071Y-14833071D01*
X16641071Y-14747357D01*
X16655357Y-14718786D01*
X16669643Y-14704500D01*
X16698214Y-14690214D01*
X16741071Y-14690214D01*
X16769643Y-14704500D01*
X16783928Y-14718786D01*
X16798214Y-14747357D01*
X16798214Y-14833071D01*
X16783928Y-14861643D01*
X16769643Y-14875929D01*
X16741071Y-14890214D01*
X16698214Y-14890214D01*
X16969643Y-14890214D02*
X16941071Y-14875929D01*
X16926786Y-14847357D01*
X16926786Y-14590214D01*
X17198214Y-14875929D02*
X17169643Y-14890214D01*
X17112500Y-14890214D01*
X17083928Y-14875929D01*
X17069643Y-14847357D01*
X17069643Y-14733071D01*
X17083928Y-14704500D01*
X17112500Y-14690214D01*
X17169643Y-14690214D01*
X17198214Y-14704500D01*
X17212500Y-14733071D01*
X17212500Y-14761643D01*
X17069643Y-14790214D01*
X17326786Y-14875929D02*
X17355357Y-14890214D01*
X17412500Y-14890214D01*
X17441071Y-14875929D01*
X17455357Y-14847357D01*
X17455357Y-14833071D01*
X17441071Y-14804500D01*
X17412500Y-14790214D01*
X17369643Y-14790214D01*
X17341071Y-14775929D01*
X17326786Y-14747357D01*
X17326786Y-14733071D01*
X17341071Y-14704500D01*
X17369643Y-14690214D01*
X17412500Y-14690214D01*
X17441071Y-14704500D01*
X17555357Y-15004500D02*
X17569643Y-14990214D01*
X17598214Y-14947357D01*
X17612500Y-14918786D01*
X17626786Y-14875929D01*
X17641071Y-14804500D01*
X17641071Y-14747357D01*
X17626786Y-14675929D01*
X17612500Y-14633071D01*
X17598214Y-14604500D01*
X17569643Y-14561643D01*
X17555357Y-14547357D01*
M02*
