G04 #@! TF.GenerationSoftware,KiCad,Pcbnew,(5.1.10)-1*
G04 #@! TF.CreationDate,2021-12-10T13:20:38-08:00*
G04 #@! TF.ProjectId,BQ298xyz,42513239-3878-4797-9a2e-6b696361645f,rev?*
G04 #@! TF.SameCoordinates,Original*
G04 #@! TF.FileFunction,Soldermask,Top*
G04 #@! TF.FilePolarity,Negative*
%FSLAX46Y46*%
G04 Gerber Fmt 4.6, Leading zero omitted, Abs format (unit mm)*
G04 Created by KiCad (PCBNEW (5.1.10)-1) date 2021-12-10 13:20:38*
%MOMM*%
%LPD*%
G01*
G04 APERTURE LIST*
%ADD10C,0.250000*%
%ADD11C,3.000000*%
%ADD12R,0.300000X0.600000*%
%ADD13R,0.530000X0.250000*%
%ADD14C,3.500000*%
%ADD15C,3.200000*%
%ADD16R,7.300000X6.400000*%
G04 APERTURE END LIST*
G36*
G01*
X123315000Y-119335000D02*
X123315000Y-119335000D01*
G75*
G02*
X123415000Y-119235000I100000J0D01*
G01*
X124535000Y-119235000D01*
G75*
G02*
X124635000Y-119335000I0J-100000D01*
G01*
X124635000Y-119335000D01*
G75*
G02*
X124535000Y-119435000I-100000J0D01*
G01*
X123415000Y-119435000D01*
G75*
G02*
X123315000Y-119335000I0J100000D01*
G01*
G37*
G36*
G01*
X121245000Y-119335000D02*
X121245000Y-119335000D01*
G75*
G02*
X121345000Y-119235000I100000J0D01*
G01*
X122465000Y-119235000D01*
G75*
G02*
X122565000Y-119335000I0J-100000D01*
G01*
X122565000Y-119335000D01*
G75*
G02*
X122465000Y-119435000I-100000J0D01*
G01*
X121345000Y-119435000D01*
G75*
G02*
X121245000Y-119335000I0J100000D01*
G01*
G37*
G36*
G01*
X123315000Y-120485000D02*
X123315000Y-120485000D01*
G75*
G02*
X123415000Y-120385000I100000J0D01*
G01*
X124535000Y-120385000D01*
G75*
G02*
X124635000Y-120485000I0J-100000D01*
G01*
X124635000Y-120485000D01*
G75*
G02*
X124535000Y-120585000I-100000J0D01*
G01*
X123415000Y-120585000D01*
G75*
G02*
X123315000Y-120485000I0J100000D01*
G01*
G37*
G36*
G01*
X121245000Y-120485000D02*
X121245000Y-120485000D01*
G75*
G02*
X121345000Y-120385000I100000J0D01*
G01*
X122465000Y-120385000D01*
G75*
G02*
X122565000Y-120485000I0J-100000D01*
G01*
X122565000Y-120485000D01*
G75*
G02*
X122465000Y-120585000I-100000J0D01*
G01*
X121345000Y-120585000D01*
G75*
G02*
X121245000Y-120485000I0J100000D01*
G01*
G37*
D10*
X122940000Y-119510000D03*
X122940000Y-120310000D03*
G36*
G01*
X123315000Y-120135000D02*
X123315000Y-120135000D01*
G75*
G02*
X123415000Y-120035000I100000J0D01*
G01*
X124535000Y-120035000D01*
G75*
G02*
X124635000Y-120135000I0J-100000D01*
G01*
X124635000Y-120135000D01*
G75*
G02*
X124535000Y-120235000I-100000J0D01*
G01*
X123415000Y-120235000D01*
G75*
G02*
X123315000Y-120135000I0J100000D01*
G01*
G37*
G36*
G01*
X121245000Y-120135000D02*
X121245000Y-120135000D01*
G75*
G02*
X121345000Y-120035000I100000J0D01*
G01*
X122465000Y-120035000D01*
G75*
G02*
X122565000Y-120135000I0J-100000D01*
G01*
X122565000Y-120135000D01*
G75*
G02*
X122465000Y-120235000I-100000J0D01*
G01*
X121345000Y-120235000D01*
G75*
G02*
X121245000Y-120135000I0J100000D01*
G01*
G37*
G36*
G01*
X123315000Y-119685000D02*
X123315000Y-119685000D01*
G75*
G02*
X123415000Y-119585000I100000J0D01*
G01*
X124535000Y-119585000D01*
G75*
G02*
X124635000Y-119685000I0J-100000D01*
G01*
X124635000Y-119685000D01*
G75*
G02*
X124535000Y-119785000I-100000J0D01*
G01*
X123415000Y-119785000D01*
G75*
G02*
X123315000Y-119685000I0J100000D01*
G01*
G37*
G36*
G01*
X121245000Y-119685000D02*
X121245000Y-119685000D01*
G75*
G02*
X121345000Y-119585000I100000J0D01*
G01*
X122465000Y-119585000D01*
G75*
G02*
X122565000Y-119685000I0J-100000D01*
G01*
X122565000Y-119685000D01*
G75*
G02*
X122465000Y-119785000I-100000J0D01*
G01*
X121345000Y-119785000D01*
G75*
G02*
X121245000Y-119685000I0J100000D01*
G01*
G37*
D11*
X190900000Y-121000000D03*
X190900000Y-126000000D03*
G36*
G01*
X183450000Y-110675000D02*
X183450000Y-113525000D01*
G75*
G02*
X183200000Y-113775000I-250000J0D01*
G01*
X182475000Y-113775000D01*
G75*
G02*
X182225000Y-113525000I0J250000D01*
G01*
X182225000Y-110675000D01*
G75*
G02*
X182475000Y-110425000I250000J0D01*
G01*
X183200000Y-110425000D01*
G75*
G02*
X183450000Y-110675000I0J-250000D01*
G01*
G37*
G36*
G01*
X189375000Y-110675000D02*
X189375000Y-113525000D01*
G75*
G02*
X189125000Y-113775000I-250000J0D01*
G01*
X188400000Y-113775000D01*
G75*
G02*
X188150000Y-113525000I0J250000D01*
G01*
X188150000Y-110675000D01*
G75*
G02*
X188400000Y-110425000I250000J0D01*
G01*
X189125000Y-110425000D01*
G75*
G02*
X189375000Y-110675000I0J-250000D01*
G01*
G37*
D12*
X114872501Y-119820000D03*
D13*
X115510001Y-119745000D03*
X115510001Y-120245000D03*
X115510001Y-120745000D03*
D12*
X114872501Y-120670000D03*
D13*
X114235001Y-120745000D03*
X114235001Y-120245000D03*
X114235001Y-119745000D03*
D14*
X177074999Y-69484999D03*
D15*
X177074999Y-86984999D03*
D14*
X121874999Y-104484999D03*
D15*
X121874999Y-86984999D03*
D16*
X188824999Y-77434999D03*
X188824999Y-96534999D03*
X110124999Y-96534999D03*
X110124999Y-77434999D03*
G36*
G01*
X116985000Y-120660000D02*
X116615000Y-120660000D01*
G75*
G02*
X116480000Y-120525000I0J135000D01*
G01*
X116480000Y-120255000D01*
G75*
G02*
X116615000Y-120120000I135000J0D01*
G01*
X116985000Y-120120000D01*
G75*
G02*
X117120000Y-120255000I0J-135000D01*
G01*
X117120000Y-120525000D01*
G75*
G02*
X116985000Y-120660000I-135000J0D01*
G01*
G37*
G36*
G01*
X116985000Y-121680000D02*
X116615000Y-121680000D01*
G75*
G02*
X116480000Y-121545000I0J135000D01*
G01*
X116480000Y-121275000D01*
G75*
G02*
X116615000Y-121140000I135000J0D01*
G01*
X116985000Y-121140000D01*
G75*
G02*
X117120000Y-121275000I0J-135000D01*
G01*
X117120000Y-121545000D01*
G75*
G02*
X116985000Y-121680000I-135000J0D01*
G01*
G37*
G36*
G01*
X113930000Y-118685000D02*
X113930000Y-118315000D01*
G75*
G02*
X114065000Y-118180000I135000J0D01*
G01*
X114335000Y-118180000D01*
G75*
G02*
X114470000Y-118315000I0J-135000D01*
G01*
X114470000Y-118685000D01*
G75*
G02*
X114335000Y-118820000I-135000J0D01*
G01*
X114065000Y-118820000D01*
G75*
G02*
X113930000Y-118685000I0J135000D01*
G01*
G37*
G36*
G01*
X112910000Y-118685000D02*
X112910000Y-118315000D01*
G75*
G02*
X113045000Y-118180000I135000J0D01*
G01*
X113315000Y-118180000D01*
G75*
G02*
X113450000Y-118315000I0J-135000D01*
G01*
X113450000Y-118685000D01*
G75*
G02*
X113315000Y-118820000I-135000J0D01*
G01*
X113045000Y-118820000D01*
G75*
G02*
X112910000Y-118685000I0J135000D01*
G01*
G37*
G36*
G01*
X111715000Y-119840000D02*
X112085000Y-119840000D01*
G75*
G02*
X112220000Y-119975000I0J-135000D01*
G01*
X112220000Y-120245000D01*
G75*
G02*
X112085000Y-120380000I-135000J0D01*
G01*
X111715000Y-120380000D01*
G75*
G02*
X111580000Y-120245000I0J135000D01*
G01*
X111580000Y-119975000D01*
G75*
G02*
X111715000Y-119840000I135000J0D01*
G01*
G37*
G36*
G01*
X111715000Y-118820000D02*
X112085000Y-118820000D01*
G75*
G02*
X112220000Y-118955000I0J-135000D01*
G01*
X112220000Y-119225000D01*
G75*
G02*
X112085000Y-119360000I-135000J0D01*
G01*
X111715000Y-119360000D01*
G75*
G02*
X111580000Y-119225000I0J135000D01*
G01*
X111580000Y-118955000D01*
G75*
G02*
X111715000Y-118820000I135000J0D01*
G01*
G37*
G36*
G01*
X112900000Y-120570000D02*
X113100000Y-120570000D01*
G75*
G02*
X113200000Y-120670000I0J-100000D01*
G01*
X113200000Y-120930000D01*
G75*
G02*
X113100000Y-121030000I-100000J0D01*
G01*
X112900000Y-121030000D01*
G75*
G02*
X112800000Y-120930000I0J100000D01*
G01*
X112800000Y-120670000D01*
G75*
G02*
X112900000Y-120570000I100000J0D01*
G01*
G37*
G36*
G01*
X112900000Y-119930000D02*
X113100000Y-119930000D01*
G75*
G02*
X113200000Y-120030000I0J-100000D01*
G01*
X113200000Y-120290000D01*
G75*
G02*
X113100000Y-120390000I-100000J0D01*
G01*
X112900000Y-120390000D01*
G75*
G02*
X112800000Y-120290000I0J100000D01*
G01*
X112800000Y-120030000D01*
G75*
G02*
X112900000Y-119930000I100000J0D01*
G01*
G37*
M02*
