G04 #@! TF.GenerationSoftware,KiCad,Pcbnew,(5.1.10)-1*
G04 #@! TF.CreationDate,2021-12-10T13:20:38-08:00*
G04 #@! TF.ProjectId,BQ298xyz,42513239-3878-4797-9a2e-6b696361645f,rev?*
G04 #@! TF.SameCoordinates,Original*
G04 #@! TF.FileFunction,Legend,Top*
G04 #@! TF.FilePolarity,Positive*
%FSLAX46Y46*%
G04 Gerber Fmt 4.6, Leading zero omitted, Abs format (unit mm)*
G04 Created by KiCad (PCBNEW (5.1.10)-1) date 2021-12-10 13:20:38*
%MOMM*%
%LPD*%
G01*
G04 APERTURE LIST*
%ADD10C,0.120000*%
%ADD11C,0.600000*%
%ADD12C,0.150000*%
%ADD13C,0.250000*%
%ADD14C,3.000000*%
%ADD15R,0.300000X0.600000*%
%ADD16R,0.530000X0.250000*%
%ADD17C,3.500000*%
%ADD18C,3.200000*%
%ADD19R,7.300000X6.400000*%
G04 APERTURE END LIST*
D10*
X120970000Y-119335000D02*
G75*
G03*
X120970000Y-119335000I-100000J0D01*
G01*
X188900000Y-120000000D02*
X188900000Y-124000000D01*
X189900000Y-119000000D02*
X188900000Y-120000000D01*
X191900000Y-119000000D02*
X189900000Y-119000000D01*
X192900000Y-120000000D02*
X191900000Y-119000000D01*
X192900000Y-128000000D02*
X192900000Y-120000000D01*
X192900000Y-124000000D02*
X192900000Y-128000000D01*
X188900000Y-123500000D02*
X192900000Y-123500000D01*
X188900000Y-128000000D02*
X188900000Y-124000000D01*
X192900000Y-128000000D02*
X188900000Y-128000000D01*
X187977064Y-110390000D02*
X183622936Y-110390000D01*
X187977064Y-113810000D02*
X183622936Y-113810000D01*
X114372501Y-119345000D02*
G75*
G03*
X114372501Y-119345000I-100000J0D01*
G01*
D11*
X121874999Y-67084999D02*
X177074999Y-67084999D01*
X121874999Y-106884999D02*
X177074999Y-106884999D01*
X106874999Y-86984999D02*
X113174999Y-86984999D01*
X110174999Y-83784999D02*
X110174999Y-90084999D01*
D10*
X117180000Y-121053641D02*
X117180000Y-120746359D01*
X116420000Y-121053641D02*
X116420000Y-120746359D01*
X113536359Y-118880000D02*
X113843641Y-118880000D01*
X113536359Y-118120000D02*
X113843641Y-118120000D01*
X111520000Y-119446359D02*
X111520000Y-119753641D01*
X112280000Y-119446359D02*
X112280000Y-119753641D01*
D12*
X185633333Y-115172380D02*
X185300000Y-114696190D01*
X185061904Y-115172380D02*
X185061904Y-114172380D01*
X185442857Y-114172380D01*
X185538095Y-114220000D01*
X185585714Y-114267619D01*
X185633333Y-114362857D01*
X185633333Y-114505714D01*
X185585714Y-114600952D01*
X185538095Y-114648571D01*
X185442857Y-114696190D01*
X185061904Y-114696190D01*
X185966666Y-114172380D02*
X186585714Y-114172380D01*
X186252380Y-114553333D01*
X186395238Y-114553333D01*
X186490476Y-114600952D01*
X186538095Y-114648571D01*
X186585714Y-114743809D01*
X186585714Y-114981904D01*
X186538095Y-115077142D01*
X186490476Y-115124761D01*
X186395238Y-115172380D01*
X186109523Y-115172380D01*
X186014285Y-115124761D01*
X185966666Y-115077142D01*
%LPC*%
G36*
G01*
X123315000Y-119335000D02*
X123315000Y-119335000D01*
G75*
G02*
X123415000Y-119235000I100000J0D01*
G01*
X124535000Y-119235000D01*
G75*
G02*
X124635000Y-119335000I0J-100000D01*
G01*
X124635000Y-119335000D01*
G75*
G02*
X124535000Y-119435000I-100000J0D01*
G01*
X123415000Y-119435000D01*
G75*
G02*
X123315000Y-119335000I0J100000D01*
G01*
G37*
G36*
G01*
X121245000Y-119335000D02*
X121245000Y-119335000D01*
G75*
G02*
X121345000Y-119235000I100000J0D01*
G01*
X122465000Y-119235000D01*
G75*
G02*
X122565000Y-119335000I0J-100000D01*
G01*
X122565000Y-119335000D01*
G75*
G02*
X122465000Y-119435000I-100000J0D01*
G01*
X121345000Y-119435000D01*
G75*
G02*
X121245000Y-119335000I0J100000D01*
G01*
G37*
G36*
G01*
X123315000Y-120485000D02*
X123315000Y-120485000D01*
G75*
G02*
X123415000Y-120385000I100000J0D01*
G01*
X124535000Y-120385000D01*
G75*
G02*
X124635000Y-120485000I0J-100000D01*
G01*
X124635000Y-120485000D01*
G75*
G02*
X124535000Y-120585000I-100000J0D01*
G01*
X123415000Y-120585000D01*
G75*
G02*
X123315000Y-120485000I0J100000D01*
G01*
G37*
G36*
G01*
X121245000Y-120485000D02*
X121245000Y-120485000D01*
G75*
G02*
X121345000Y-120385000I100000J0D01*
G01*
X122465000Y-120385000D01*
G75*
G02*
X122565000Y-120485000I0J-100000D01*
G01*
X122565000Y-120485000D01*
G75*
G02*
X122465000Y-120585000I-100000J0D01*
G01*
X121345000Y-120585000D01*
G75*
G02*
X121245000Y-120485000I0J100000D01*
G01*
G37*
D13*
X122940000Y-119510000D03*
X122940000Y-120310000D03*
G36*
G01*
X123315000Y-120135000D02*
X123315000Y-120135000D01*
G75*
G02*
X123415000Y-120035000I100000J0D01*
G01*
X124535000Y-120035000D01*
G75*
G02*
X124635000Y-120135000I0J-100000D01*
G01*
X124635000Y-120135000D01*
G75*
G02*
X124535000Y-120235000I-100000J0D01*
G01*
X123415000Y-120235000D01*
G75*
G02*
X123315000Y-120135000I0J100000D01*
G01*
G37*
G36*
G01*
X121245000Y-120135000D02*
X121245000Y-120135000D01*
G75*
G02*
X121345000Y-120035000I100000J0D01*
G01*
X122465000Y-120035000D01*
G75*
G02*
X122565000Y-120135000I0J-100000D01*
G01*
X122565000Y-120135000D01*
G75*
G02*
X122465000Y-120235000I-100000J0D01*
G01*
X121345000Y-120235000D01*
G75*
G02*
X121245000Y-120135000I0J100000D01*
G01*
G37*
G36*
G01*
X123315000Y-119685000D02*
X123315000Y-119685000D01*
G75*
G02*
X123415000Y-119585000I100000J0D01*
G01*
X124535000Y-119585000D01*
G75*
G02*
X124635000Y-119685000I0J-100000D01*
G01*
X124635000Y-119685000D01*
G75*
G02*
X124535000Y-119785000I-100000J0D01*
G01*
X123415000Y-119785000D01*
G75*
G02*
X123315000Y-119685000I0J100000D01*
G01*
G37*
G36*
G01*
X121245000Y-119685000D02*
X121245000Y-119685000D01*
G75*
G02*
X121345000Y-119585000I100000J0D01*
G01*
X122465000Y-119585000D01*
G75*
G02*
X122565000Y-119685000I0J-100000D01*
G01*
X122565000Y-119685000D01*
G75*
G02*
X122465000Y-119785000I-100000J0D01*
G01*
X121345000Y-119785000D01*
G75*
G02*
X121245000Y-119685000I0J100000D01*
G01*
G37*
D14*
X190900000Y-121000000D03*
X190900000Y-126000000D03*
G36*
G01*
X183450000Y-110675000D02*
X183450000Y-113525000D01*
G75*
G02*
X183200000Y-113775000I-250000J0D01*
G01*
X182475000Y-113775000D01*
G75*
G02*
X182225000Y-113525000I0J250000D01*
G01*
X182225000Y-110675000D01*
G75*
G02*
X182475000Y-110425000I250000J0D01*
G01*
X183200000Y-110425000D01*
G75*
G02*
X183450000Y-110675000I0J-250000D01*
G01*
G37*
G36*
G01*
X189375000Y-110675000D02*
X189375000Y-113525000D01*
G75*
G02*
X189125000Y-113775000I-250000J0D01*
G01*
X188400000Y-113775000D01*
G75*
G02*
X188150000Y-113525000I0J250000D01*
G01*
X188150000Y-110675000D01*
G75*
G02*
X188400000Y-110425000I250000J0D01*
G01*
X189125000Y-110425000D01*
G75*
G02*
X189375000Y-110675000I0J-250000D01*
G01*
G37*
D15*
X114872501Y-119820000D03*
D16*
X115510001Y-119745000D03*
X115510001Y-120245000D03*
X115510001Y-120745000D03*
D15*
X114872501Y-120670000D03*
D16*
X114235001Y-120745000D03*
X114235001Y-120245000D03*
X114235001Y-119745000D03*
D17*
X177074999Y-69484999D03*
D18*
X177074999Y-86984999D03*
D17*
X121874999Y-104484999D03*
D18*
X121874999Y-86984999D03*
D19*
X188824999Y-77434999D03*
X188824999Y-96534999D03*
X110124999Y-96534999D03*
X110124999Y-77434999D03*
G36*
G01*
X116985000Y-120660000D02*
X116615000Y-120660000D01*
G75*
G02*
X116480000Y-120525000I0J135000D01*
G01*
X116480000Y-120255000D01*
G75*
G02*
X116615000Y-120120000I135000J0D01*
G01*
X116985000Y-120120000D01*
G75*
G02*
X117120000Y-120255000I0J-135000D01*
G01*
X117120000Y-120525000D01*
G75*
G02*
X116985000Y-120660000I-135000J0D01*
G01*
G37*
G36*
G01*
X116985000Y-121680000D02*
X116615000Y-121680000D01*
G75*
G02*
X116480000Y-121545000I0J135000D01*
G01*
X116480000Y-121275000D01*
G75*
G02*
X116615000Y-121140000I135000J0D01*
G01*
X116985000Y-121140000D01*
G75*
G02*
X117120000Y-121275000I0J-135000D01*
G01*
X117120000Y-121545000D01*
G75*
G02*
X116985000Y-121680000I-135000J0D01*
G01*
G37*
G36*
G01*
X113930000Y-118685000D02*
X113930000Y-118315000D01*
G75*
G02*
X114065000Y-118180000I135000J0D01*
G01*
X114335000Y-118180000D01*
G75*
G02*
X114470000Y-118315000I0J-135000D01*
G01*
X114470000Y-118685000D01*
G75*
G02*
X114335000Y-118820000I-135000J0D01*
G01*
X114065000Y-118820000D01*
G75*
G02*
X113930000Y-118685000I0J135000D01*
G01*
G37*
G36*
G01*
X112910000Y-118685000D02*
X112910000Y-118315000D01*
G75*
G02*
X113045000Y-118180000I135000J0D01*
G01*
X113315000Y-118180000D01*
G75*
G02*
X113450000Y-118315000I0J-135000D01*
G01*
X113450000Y-118685000D01*
G75*
G02*
X113315000Y-118820000I-135000J0D01*
G01*
X113045000Y-118820000D01*
G75*
G02*
X112910000Y-118685000I0J135000D01*
G01*
G37*
G36*
G01*
X111715000Y-119840000D02*
X112085000Y-119840000D01*
G75*
G02*
X112220000Y-119975000I0J-135000D01*
G01*
X112220000Y-120245000D01*
G75*
G02*
X112085000Y-120380000I-135000J0D01*
G01*
X111715000Y-120380000D01*
G75*
G02*
X111580000Y-120245000I0J135000D01*
G01*
X111580000Y-119975000D01*
G75*
G02*
X111715000Y-119840000I135000J0D01*
G01*
G37*
G36*
G01*
X111715000Y-118820000D02*
X112085000Y-118820000D01*
G75*
G02*
X112220000Y-118955000I0J-135000D01*
G01*
X112220000Y-119225000D01*
G75*
G02*
X112085000Y-119360000I-135000J0D01*
G01*
X111715000Y-119360000D01*
G75*
G02*
X111580000Y-119225000I0J135000D01*
G01*
X111580000Y-118955000D01*
G75*
G02*
X111715000Y-118820000I135000J0D01*
G01*
G37*
G36*
G01*
X112900000Y-120570000D02*
X113100000Y-120570000D01*
G75*
G02*
X113200000Y-120670000I0J-100000D01*
G01*
X113200000Y-120930000D01*
G75*
G02*
X113100000Y-121030000I-100000J0D01*
G01*
X112900000Y-121030000D01*
G75*
G02*
X112800000Y-120930000I0J100000D01*
G01*
X112800000Y-120670000D01*
G75*
G02*
X112900000Y-120570000I100000J0D01*
G01*
G37*
G36*
G01*
X112900000Y-119930000D02*
X113100000Y-119930000D01*
G75*
G02*
X113200000Y-120030000I0J-100000D01*
G01*
X113200000Y-120290000D01*
G75*
G02*
X113100000Y-120390000I-100000J0D01*
G01*
X112900000Y-120390000D01*
G75*
G02*
X112800000Y-120290000I0J100000D01*
G01*
X112800000Y-120030000D01*
G75*
G02*
X112900000Y-119930000I100000J0D01*
G01*
G37*
M02*
