%FSLAX45Y45*%
G04 Gerber Fmt 4.5, Leading zero omitted, Abs format (unit mm)*
G04 Created by KiCad (PCBNEW (5.1.10)-1) date 2021-12-10 13:21:43*
%MOMM*%
%LPD*%
G01*
G04 APERTURE LIST*
%TA.AperFunction,Profile*%
%ADD10C,0.050000*%
%TD*%
%ADD11C,0.200000*%
%ADD12C,0.300000*%
G04 APERTURE END LIST*
D10*
X10500000Y-13000000D02*
X10500000Y-6500000D01*
X19500000Y-13000000D02*
X10500000Y-13000000D01*
X19500000Y-6500000D02*
X19500000Y-13000000D01*
X10500000Y-6500000D02*
X19500000Y-6500000D01*
D11*
X12072500Y-8583500D02*
X12302500Y-8813500D01*
X12302500Y-8583500D02*
X12072500Y-8813500D01*
X12072500Y-10333500D02*
X12302500Y-10563500D01*
X12302500Y-10333500D02*
X12072500Y-10563500D01*
X17592500Y-6833500D02*
X17822500Y-7063500D01*
X17822500Y-6833500D02*
X17592500Y-7063500D01*
X17592500Y-8583500D02*
X17822500Y-8813500D01*
X17822500Y-8583500D02*
X17592500Y-8813500D01*
D12*
X10783928Y-13468214D02*
X10783928Y-13168214D01*
X10855357Y-13168214D01*
X10898214Y-13182500D01*
X10926786Y-13211071D01*
X10941071Y-13239643D01*
X10955357Y-13296786D01*
X10955357Y-13339643D01*
X10941071Y-13396786D01*
X10926786Y-13425357D01*
X10898214Y-13453929D01*
X10855357Y-13468214D01*
X10783928Y-13468214D01*
X11083928Y-13468214D02*
X11083928Y-13268214D01*
X11083928Y-13325357D02*
X11098214Y-13296786D01*
X11112500Y-13282500D01*
X11141071Y-13268214D01*
X11169643Y-13268214D01*
X11269643Y-13468214D02*
X11269643Y-13268214D01*
X11269643Y-13168214D02*
X11255357Y-13182500D01*
X11269643Y-13196786D01*
X11283928Y-13182500D01*
X11269643Y-13168214D01*
X11269643Y-13196786D01*
X11455357Y-13468214D02*
X11426786Y-13453929D01*
X11412500Y-13425357D01*
X11412500Y-13168214D01*
X11612500Y-13468214D02*
X11583928Y-13453929D01*
X11569643Y-13425357D01*
X11569643Y-13168214D01*
X11955357Y-13468214D02*
X11955357Y-13168214D01*
X12055357Y-13382500D01*
X12155357Y-13168214D01*
X12155357Y-13468214D01*
X12426786Y-13468214D02*
X12426786Y-13311071D01*
X12412500Y-13282500D01*
X12383928Y-13268214D01*
X12326786Y-13268214D01*
X12298214Y-13282500D01*
X12426786Y-13453929D02*
X12398214Y-13468214D01*
X12326786Y-13468214D01*
X12298214Y-13453929D01*
X12283928Y-13425357D01*
X12283928Y-13396786D01*
X12298214Y-13368214D01*
X12326786Y-13353929D01*
X12398214Y-13353929D01*
X12426786Y-13339643D01*
X12569643Y-13268214D02*
X12569643Y-13568214D01*
X12569643Y-13282500D02*
X12598214Y-13268214D01*
X12655357Y-13268214D01*
X12683928Y-13282500D01*
X12698214Y-13296786D01*
X12712500Y-13325357D01*
X12712500Y-13411071D01*
X12698214Y-13439643D01*
X12683928Y-13453929D01*
X12655357Y-13468214D01*
X12598214Y-13468214D01*
X12569643Y-13453929D01*
X12841071Y-13439643D02*
X12855357Y-13453929D01*
X12841071Y-13468214D01*
X12826786Y-13453929D01*
X12841071Y-13439643D01*
X12841071Y-13468214D01*
X12841071Y-13282500D02*
X12855357Y-13296786D01*
X12841071Y-13311071D01*
X12826786Y-13296786D01*
X12841071Y-13282500D01*
X12841071Y-13311071D01*
X10267500Y-13847500D02*
X10497500Y-14077500D01*
X10497500Y-13847500D02*
X10267500Y-14077500D01*
X10769643Y-13826786D02*
X10783928Y-13812500D01*
X10812500Y-13798214D01*
X10883928Y-13798214D01*
X10912500Y-13812500D01*
X10926786Y-13826786D01*
X10941071Y-13855357D01*
X10941071Y-13883929D01*
X10926786Y-13926786D01*
X10755357Y-14098214D01*
X10941071Y-14098214D01*
X11069643Y-14069643D02*
X11083928Y-14083929D01*
X11069643Y-14098214D01*
X11055357Y-14083929D01*
X11069643Y-14069643D01*
X11069643Y-14098214D01*
X11183928Y-13798214D02*
X11369643Y-13798214D01*
X11269643Y-13912500D01*
X11312500Y-13912500D01*
X11341071Y-13926786D01*
X11355357Y-13941071D01*
X11369643Y-13969643D01*
X11369643Y-14041071D01*
X11355357Y-14069643D01*
X11341071Y-14083929D01*
X11312500Y-14098214D01*
X11226786Y-14098214D01*
X11198214Y-14083929D01*
X11183928Y-14069643D01*
X11555357Y-13798214D02*
X11583928Y-13798214D01*
X11612500Y-13812500D01*
X11626786Y-13826786D01*
X11641071Y-13855357D01*
X11655357Y-13912500D01*
X11655357Y-13983929D01*
X11641071Y-14041071D01*
X11626786Y-14069643D01*
X11612500Y-14083929D01*
X11583928Y-14098214D01*
X11555357Y-14098214D01*
X11526786Y-14083929D01*
X11512500Y-14069643D01*
X11498214Y-14041071D01*
X11483928Y-13983929D01*
X11483928Y-13912500D01*
X11498214Y-13855357D01*
X11512500Y-13826786D01*
X11526786Y-13812500D01*
X11555357Y-13798214D01*
X11841071Y-13798214D02*
X11869643Y-13798214D01*
X11898214Y-13812500D01*
X11912500Y-13826786D01*
X11926786Y-13855357D01*
X11941071Y-13912500D01*
X11941071Y-13983929D01*
X11926786Y-14041071D01*
X11912500Y-14069643D01*
X11898214Y-14083929D01*
X11869643Y-14098214D01*
X11841071Y-14098214D01*
X11812500Y-14083929D01*
X11798214Y-14069643D01*
X11783928Y-14041071D01*
X11769643Y-13983929D01*
X11769643Y-13912500D01*
X11783928Y-13855357D01*
X11798214Y-13826786D01*
X11812500Y-13812500D01*
X11841071Y-13798214D01*
X12069643Y-14098214D02*
X12069643Y-13898214D01*
X12069643Y-13926786D02*
X12083928Y-13912500D01*
X12112500Y-13898214D01*
X12155357Y-13898214D01*
X12183928Y-13912500D01*
X12198214Y-13941071D01*
X12198214Y-14098214D01*
X12198214Y-13941071D02*
X12212500Y-13912500D01*
X12241071Y-13898214D01*
X12283928Y-13898214D01*
X12312500Y-13912500D01*
X12326786Y-13941071D01*
X12326786Y-14098214D01*
X12469643Y-14098214D02*
X12469643Y-13898214D01*
X12469643Y-13926786D02*
X12483928Y-13912500D01*
X12512500Y-13898214D01*
X12555357Y-13898214D01*
X12583928Y-13912500D01*
X12598214Y-13941071D01*
X12598214Y-14098214D01*
X12598214Y-13941071D02*
X12612500Y-13912500D01*
X12641071Y-13898214D01*
X12683928Y-13898214D01*
X12712500Y-13912500D01*
X12726786Y-13941071D01*
X12726786Y-14098214D01*
X13312500Y-13783929D02*
X13055357Y-14169643D01*
X13698214Y-13798214D02*
X13726786Y-13798214D01*
X13755357Y-13812500D01*
X13769643Y-13826786D01*
X13783928Y-13855357D01*
X13798214Y-13912500D01*
X13798214Y-13983929D01*
X13783928Y-14041071D01*
X13769643Y-14069643D01*
X13755357Y-14083929D01*
X13726786Y-14098214D01*
X13698214Y-14098214D01*
X13669643Y-14083929D01*
X13655357Y-14069643D01*
X13641071Y-14041071D01*
X13626786Y-13983929D01*
X13626786Y-13912500D01*
X13641071Y-13855357D01*
X13655357Y-13826786D01*
X13669643Y-13812500D01*
X13698214Y-13798214D01*
X13926786Y-14069643D02*
X13941071Y-14083929D01*
X13926786Y-14098214D01*
X13912500Y-14083929D01*
X13926786Y-14069643D01*
X13926786Y-14098214D01*
X14126786Y-13798214D02*
X14155357Y-13798214D01*
X14183928Y-13812500D01*
X14198214Y-13826786D01*
X14212500Y-13855357D01*
X14226786Y-13912500D01*
X14226786Y-13983929D01*
X14212500Y-14041071D01*
X14198214Y-14069643D01*
X14183928Y-14083929D01*
X14155357Y-14098214D01*
X14126786Y-14098214D01*
X14098214Y-14083929D01*
X14083928Y-14069643D01*
X14069643Y-14041071D01*
X14055357Y-13983929D01*
X14055357Y-13912500D01*
X14069643Y-13855357D01*
X14083928Y-13826786D01*
X14098214Y-13812500D01*
X14126786Y-13798214D01*
X14369643Y-14098214D02*
X14426786Y-14098214D01*
X14455357Y-14083929D01*
X14469643Y-14069643D01*
X14498214Y-14026786D01*
X14512500Y-13969643D01*
X14512500Y-13855357D01*
X14498214Y-13826786D01*
X14483928Y-13812500D01*
X14455357Y-13798214D01*
X14398214Y-13798214D01*
X14369643Y-13812500D01*
X14355357Y-13826786D01*
X14341071Y-13855357D01*
X14341071Y-13926786D01*
X14355357Y-13955357D01*
X14369643Y-13969643D01*
X14398214Y-13983929D01*
X14455357Y-13983929D01*
X14483928Y-13969643D01*
X14498214Y-13955357D01*
X14512500Y-13926786D01*
X14698214Y-13798214D02*
X14726786Y-13798214D01*
X14755357Y-13812500D01*
X14769643Y-13826786D01*
X14783928Y-13855357D01*
X14798214Y-13912500D01*
X14798214Y-13983929D01*
X14783928Y-14041071D01*
X14769643Y-14069643D01*
X14755357Y-14083929D01*
X14726786Y-14098214D01*
X14698214Y-14098214D01*
X14669643Y-14083929D01*
X14655357Y-14069643D01*
X14641071Y-14041071D01*
X14626786Y-13983929D01*
X14626786Y-13912500D01*
X14641071Y-13855357D01*
X14655357Y-13826786D01*
X14669643Y-13812500D01*
X14698214Y-13798214D01*
X15055357Y-13798214D02*
X14998214Y-13798214D01*
X14969643Y-13812500D01*
X14955357Y-13826786D01*
X14926786Y-13869643D01*
X14912500Y-13926786D01*
X14912500Y-14041071D01*
X14926786Y-14069643D01*
X14941071Y-14083929D01*
X14969643Y-14098214D01*
X15026786Y-14098214D01*
X15055357Y-14083929D01*
X15069643Y-14069643D01*
X15083928Y-14041071D01*
X15083928Y-13969643D01*
X15069643Y-13941071D01*
X15055357Y-13926786D01*
X15026786Y-13912500D01*
X14969643Y-13912500D01*
X14941071Y-13926786D01*
X14926786Y-13941071D01*
X14912500Y-13969643D01*
X15198214Y-13798214D02*
X15198214Y-13855357D01*
X15312500Y-13798214D02*
X15312500Y-13855357D01*
X15755357Y-14212500D02*
X15741071Y-14198214D01*
X15712500Y-14155357D01*
X15698214Y-14126786D01*
X15683928Y-14083929D01*
X15669643Y-14012500D01*
X15669643Y-13955357D01*
X15683928Y-13883929D01*
X15698214Y-13841071D01*
X15712500Y-13812500D01*
X15741071Y-13769643D01*
X15755357Y-13755357D01*
X15998214Y-13898214D02*
X15998214Y-14098214D01*
X15926786Y-13783929D02*
X15855357Y-13998214D01*
X16041071Y-13998214D01*
X16383928Y-14098214D02*
X16383928Y-13798214D01*
X16512500Y-14098214D02*
X16512500Y-13941071D01*
X16498214Y-13912500D01*
X16469643Y-13898214D01*
X16426786Y-13898214D01*
X16398214Y-13912500D01*
X16383928Y-13926786D01*
X16698214Y-14098214D02*
X16669643Y-14083929D01*
X16655357Y-14069643D01*
X16641071Y-14041071D01*
X16641071Y-13955357D01*
X16655357Y-13926786D01*
X16669643Y-13912500D01*
X16698214Y-13898214D01*
X16741071Y-13898214D01*
X16769643Y-13912500D01*
X16783928Y-13926786D01*
X16798214Y-13955357D01*
X16798214Y-14041071D01*
X16783928Y-14069643D01*
X16769643Y-14083929D01*
X16741071Y-14098214D01*
X16698214Y-14098214D01*
X16969643Y-14098214D02*
X16941071Y-14083929D01*
X16926786Y-14055357D01*
X16926786Y-13798214D01*
X17198214Y-14083929D02*
X17169643Y-14098214D01*
X17112500Y-14098214D01*
X17083928Y-14083929D01*
X17069643Y-14055357D01*
X17069643Y-13941071D01*
X17083928Y-13912500D01*
X17112500Y-13898214D01*
X17169643Y-13898214D01*
X17198214Y-13912500D01*
X17212500Y-13941071D01*
X17212500Y-13969643D01*
X17069643Y-13998214D01*
X17326786Y-14083929D02*
X17355357Y-14098214D01*
X17412500Y-14098214D01*
X17441071Y-14083929D01*
X17455357Y-14055357D01*
X17455357Y-14041071D01*
X17441071Y-14012500D01*
X17412500Y-13998214D01*
X17369643Y-13998214D01*
X17341071Y-13983929D01*
X17326786Y-13955357D01*
X17326786Y-13941071D01*
X17341071Y-13912500D01*
X17369643Y-13898214D01*
X17412500Y-13898214D01*
X17441071Y-13912500D01*
X17555357Y-14212500D02*
X17569643Y-14198214D01*
X17598214Y-14155357D01*
X17612500Y-14126786D01*
X17626786Y-14083929D01*
X17641071Y-14012500D01*
X17641071Y-13955357D01*
X17626786Y-13883929D01*
X17612500Y-13841071D01*
X17598214Y-13812500D01*
X17569643Y-13769643D01*
X17555357Y-13755357D01*
X18098214Y-14212500D02*
X18083928Y-14198214D01*
X18055357Y-14155357D01*
X18041071Y-14126786D01*
X18026786Y-14083929D01*
X18012500Y-14012500D01*
X18012500Y-13955357D01*
X18026786Y-13883929D01*
X18041071Y-13841071D01*
X18055357Y-13812500D01*
X18083928Y-13769643D01*
X18098214Y-13755357D01*
X18212500Y-13898214D02*
X18212500Y-14098214D01*
X18212500Y-13926786D02*
X18226786Y-13912500D01*
X18255357Y-13898214D01*
X18298214Y-13898214D01*
X18326786Y-13912500D01*
X18341071Y-13941071D01*
X18341071Y-14098214D01*
X18526786Y-14098214D02*
X18498214Y-14083929D01*
X18483928Y-14069643D01*
X18469643Y-14041071D01*
X18469643Y-13955357D01*
X18483928Y-13926786D01*
X18498214Y-13912500D01*
X18526786Y-13898214D01*
X18569643Y-13898214D01*
X18598214Y-13912500D01*
X18612500Y-13926786D01*
X18626786Y-13955357D01*
X18626786Y-14041071D01*
X18612500Y-14069643D01*
X18598214Y-14083929D01*
X18569643Y-14098214D01*
X18526786Y-14098214D01*
X18712500Y-13898214D02*
X18826786Y-13898214D01*
X18755357Y-13798214D02*
X18755357Y-14055357D01*
X18769643Y-14083929D01*
X18798214Y-14098214D01*
X18826786Y-14098214D01*
X19155357Y-13898214D02*
X19155357Y-14198214D01*
X19155357Y-13912500D02*
X19183928Y-13898214D01*
X19241071Y-13898214D01*
X19269643Y-13912500D01*
X19283928Y-13926786D01*
X19298214Y-13955357D01*
X19298214Y-14041071D01*
X19283928Y-14069643D01*
X19269643Y-14083929D01*
X19241071Y-14098214D01*
X19183928Y-14098214D01*
X19155357Y-14083929D01*
X19469643Y-14098214D02*
X19441071Y-14083929D01*
X19426786Y-14055357D01*
X19426786Y-13798214D01*
X19712500Y-14098214D02*
X19712500Y-13941071D01*
X19698214Y-13912500D01*
X19669643Y-13898214D01*
X19612500Y-13898214D01*
X19583928Y-13912500D01*
X19712500Y-14083929D02*
X19683928Y-14098214D01*
X19612500Y-14098214D01*
X19583928Y-14083929D01*
X19569643Y-14055357D01*
X19569643Y-14026786D01*
X19583928Y-13998214D01*
X19612500Y-13983929D01*
X19683928Y-13983929D01*
X19712500Y-13969643D01*
X19812500Y-13898214D02*
X19926786Y-13898214D01*
X19855357Y-13798214D02*
X19855357Y-14055357D01*
X19869643Y-14083929D01*
X19898214Y-14098214D01*
X19926786Y-14098214D01*
X20141071Y-14083929D02*
X20112500Y-14098214D01*
X20055357Y-14098214D01*
X20026786Y-14083929D01*
X20012500Y-14055357D01*
X20012500Y-13941071D01*
X20026786Y-13912500D01*
X20055357Y-13898214D01*
X20112500Y-13898214D01*
X20141071Y-13912500D01*
X20155357Y-13941071D01*
X20155357Y-13969643D01*
X20012500Y-13998214D01*
X20412500Y-14098214D02*
X20412500Y-13798214D01*
X20412500Y-14083929D02*
X20383928Y-14098214D01*
X20326786Y-14098214D01*
X20298214Y-14083929D01*
X20283928Y-14069643D01*
X20269643Y-14041071D01*
X20269643Y-13955357D01*
X20283928Y-13926786D01*
X20298214Y-13912500D01*
X20326786Y-13898214D01*
X20383928Y-13898214D01*
X20412500Y-13912500D01*
X20526786Y-14212500D02*
X20541071Y-14198214D01*
X20569643Y-14155357D01*
X20583928Y-14126786D01*
X20598214Y-14083929D01*
X20612500Y-14012500D01*
X20612500Y-13955357D01*
X20598214Y-13883929D01*
X20583928Y-13841071D01*
X20569643Y-13812500D01*
X20541071Y-13769643D01*
X20526786Y-13755357D01*
M02*
