G04 #@! TF.GenerationSoftware,KiCad,Pcbnew,(5.1.10)-1*
G04 #@! TF.CreationDate,2021-12-10T13:29:21-08:00*
G04 #@! TF.ProjectId,BQ2920x,42513239-3230-4782-9e6b-696361645f70,rev?*
G04 #@! TF.SameCoordinates,Original*
G04 #@! TF.FileFunction,Paste,Top*
G04 #@! TF.FilePolarity,Positive*
%FSLAX46Y46*%
G04 Gerber Fmt 4.6, Leading zero omitted, Abs format (unit mm)*
G04 Created by KiCad (PCBNEW (5.1.10)-1) date 2021-12-10 13:29:21*
%MOMM*%
%LPD*%
G01*
G04 APERTURE LIST*
%ADD10R,1.650000X2.400000*%
%ADD11R,0.600000X0.300000*%
G04 APERTURE END LIST*
D10*
X129400000Y-94200000D03*
D11*
X130800000Y-93225000D03*
X130800000Y-93875000D03*
X130800000Y-94525000D03*
X130800000Y-95175000D03*
X128000000Y-95175000D03*
X128000000Y-94525000D03*
X128000000Y-93875000D03*
X128000000Y-93225000D03*
G36*
G01*
X131860000Y-92015000D02*
X131860000Y-92385000D01*
G75*
G02*
X131725000Y-92520000I-135000J0D01*
G01*
X131455000Y-92520000D01*
G75*
G02*
X131320000Y-92385000I0J135000D01*
G01*
X131320000Y-92015000D01*
G75*
G02*
X131455000Y-91880000I135000J0D01*
G01*
X131725000Y-91880000D01*
G75*
G02*
X131860000Y-92015000I0J-135000D01*
G01*
G37*
G36*
G01*
X132880000Y-92015000D02*
X132880000Y-92385000D01*
G75*
G02*
X132745000Y-92520000I-135000J0D01*
G01*
X132475000Y-92520000D01*
G75*
G02*
X132340000Y-92385000I0J135000D01*
G01*
X132340000Y-92015000D01*
G75*
G02*
X132475000Y-91880000I135000J0D01*
G01*
X132745000Y-91880000D01*
G75*
G02*
X132880000Y-92015000I0J-135000D01*
G01*
G37*
G36*
G01*
X126415000Y-95240000D02*
X126785000Y-95240000D01*
G75*
G02*
X126920000Y-95375000I0J-135000D01*
G01*
X126920000Y-95645000D01*
G75*
G02*
X126785000Y-95780000I-135000J0D01*
G01*
X126415000Y-95780000D01*
G75*
G02*
X126280000Y-95645000I0J135000D01*
G01*
X126280000Y-95375000D01*
G75*
G02*
X126415000Y-95240000I135000J0D01*
G01*
G37*
G36*
G01*
X126415000Y-94220000D02*
X126785000Y-94220000D01*
G75*
G02*
X126920000Y-94355000I0J-135000D01*
G01*
X126920000Y-94625000D01*
G75*
G02*
X126785000Y-94760000I-135000J0D01*
G01*
X126415000Y-94760000D01*
G75*
G02*
X126280000Y-94625000I0J135000D01*
G01*
X126280000Y-94355000D01*
G75*
G02*
X126415000Y-94220000I135000J0D01*
G01*
G37*
G36*
G01*
X124460000Y-93815000D02*
X124460000Y-94185000D01*
G75*
G02*
X124325000Y-94320000I-135000J0D01*
G01*
X124055000Y-94320000D01*
G75*
G02*
X123920000Y-94185000I0J135000D01*
G01*
X123920000Y-93815000D01*
G75*
G02*
X124055000Y-93680000I135000J0D01*
G01*
X124325000Y-93680000D01*
G75*
G02*
X124460000Y-93815000I0J-135000D01*
G01*
G37*
G36*
G01*
X125480000Y-93815000D02*
X125480000Y-94185000D01*
G75*
G02*
X125345000Y-94320000I-135000J0D01*
G01*
X125075000Y-94320000D01*
G75*
G02*
X124940000Y-94185000I0J135000D01*
G01*
X124940000Y-93815000D01*
G75*
G02*
X125075000Y-93680000I135000J0D01*
G01*
X125345000Y-93680000D01*
G75*
G02*
X125480000Y-93815000I0J-135000D01*
G01*
G37*
G36*
G01*
X126785000Y-91960000D02*
X126415000Y-91960000D01*
G75*
G02*
X126280000Y-91825000I0J135000D01*
G01*
X126280000Y-91555000D01*
G75*
G02*
X126415000Y-91420000I135000J0D01*
G01*
X126785000Y-91420000D01*
G75*
G02*
X126920000Y-91555000I0J-135000D01*
G01*
X126920000Y-91825000D01*
G75*
G02*
X126785000Y-91960000I-135000J0D01*
G01*
G37*
G36*
G01*
X126785000Y-92980000D02*
X126415000Y-92980000D01*
G75*
G02*
X126280000Y-92845000I0J135000D01*
G01*
X126280000Y-92575000D01*
G75*
G02*
X126415000Y-92440000I135000J0D01*
G01*
X126785000Y-92440000D01*
G75*
G02*
X126920000Y-92575000I0J-135000D01*
G01*
X126920000Y-92845000D01*
G75*
G02*
X126785000Y-92980000I-135000J0D01*
G01*
G37*
G36*
G01*
X132350000Y-94925000D02*
X132850000Y-94925000D01*
G75*
G02*
X133075000Y-95150000I0J-225000D01*
G01*
X133075000Y-95600000D01*
G75*
G02*
X132850000Y-95825000I-225000J0D01*
G01*
X132350000Y-95825000D01*
G75*
G02*
X132125000Y-95600000I0J225000D01*
G01*
X132125000Y-95150000D01*
G75*
G02*
X132350000Y-94925000I225000J0D01*
G01*
G37*
G36*
G01*
X132350000Y-93375000D02*
X132850000Y-93375000D01*
G75*
G02*
X133075000Y-93600000I0J-225000D01*
G01*
X133075000Y-94050000D01*
G75*
G02*
X132850000Y-94275000I-225000J0D01*
G01*
X132350000Y-94275000D01*
G75*
G02*
X132125000Y-94050000I0J225000D01*
G01*
X132125000Y-93600000D01*
G75*
G02*
X132350000Y-93375000I225000J0D01*
G01*
G37*
G36*
G01*
X128825000Y-97150000D02*
X128825000Y-96650000D01*
G75*
G02*
X129050000Y-96425000I225000J0D01*
G01*
X129500000Y-96425000D01*
G75*
G02*
X129725000Y-96650000I0J-225000D01*
G01*
X129725000Y-97150000D01*
G75*
G02*
X129500000Y-97375000I-225000J0D01*
G01*
X129050000Y-97375000D01*
G75*
G02*
X128825000Y-97150000I0J225000D01*
G01*
G37*
G36*
G01*
X127275000Y-97150000D02*
X127275000Y-96650000D01*
G75*
G02*
X127500000Y-96425000I225000J0D01*
G01*
X127950000Y-96425000D01*
G75*
G02*
X128175000Y-96650000I0J-225000D01*
G01*
X128175000Y-97150000D01*
G75*
G02*
X127950000Y-97375000I-225000J0D01*
G01*
X127500000Y-97375000D01*
G75*
G02*
X127275000Y-97150000I0J225000D01*
G01*
G37*
G36*
G01*
X124850000Y-96425000D02*
X125350000Y-96425000D01*
G75*
G02*
X125575000Y-96650000I0J-225000D01*
G01*
X125575000Y-97100000D01*
G75*
G02*
X125350000Y-97325000I-225000J0D01*
G01*
X124850000Y-97325000D01*
G75*
G02*
X124625000Y-97100000I0J225000D01*
G01*
X124625000Y-96650000D01*
G75*
G02*
X124850000Y-96425000I225000J0D01*
G01*
G37*
G36*
G01*
X124850000Y-94875000D02*
X125350000Y-94875000D01*
G75*
G02*
X125575000Y-95100000I0J-225000D01*
G01*
X125575000Y-95550000D01*
G75*
G02*
X125350000Y-95775000I-225000J0D01*
G01*
X124850000Y-95775000D01*
G75*
G02*
X124625000Y-95550000I0J225000D01*
G01*
X124625000Y-95100000D01*
G75*
G02*
X124850000Y-94875000I225000J0D01*
G01*
G37*
G36*
G01*
X124850000Y-92025000D02*
X125350000Y-92025000D01*
G75*
G02*
X125575000Y-92250000I0J-225000D01*
G01*
X125575000Y-92700000D01*
G75*
G02*
X125350000Y-92925000I-225000J0D01*
G01*
X124850000Y-92925000D01*
G75*
G02*
X124625000Y-92700000I0J225000D01*
G01*
X124625000Y-92250000D01*
G75*
G02*
X124850000Y-92025000I225000J0D01*
G01*
G37*
G36*
G01*
X124850000Y-90475000D02*
X125350000Y-90475000D01*
G75*
G02*
X125575000Y-90700000I0J-225000D01*
G01*
X125575000Y-91150000D01*
G75*
G02*
X125350000Y-91375000I-225000J0D01*
G01*
X124850000Y-91375000D01*
G75*
G02*
X124625000Y-91150000I0J225000D01*
G01*
X124625000Y-90700000D01*
G75*
G02*
X124850000Y-90475000I225000J0D01*
G01*
G37*
M02*
