%FSLAX45Y45*%
G04 Gerber Fmt 4.5, Leading zero omitted, Abs format (unit mm)*
G04 Created by KiCad (PCBNEW (5.1.10)-1) date 2021-12-10 13:29:33*
%MOMM*%
%LPD*%
G01*
G04 APERTURE LIST*
%TA.AperFunction,Profile*%
%ADD10C,0.050000*%
%TD*%
%ADD11C,0.200000*%
%ADD12C,0.300000*%
G04 APERTURE END LIST*
D10*
X11938000Y-9652000D02*
X11938000Y-9144000D01*
X13335000Y-9652000D02*
G75*
G02*
X13208000Y-9779000I-127000J0D01*
G01*
X12065000Y-9779000D02*
G75*
G02*
X11938000Y-9652000I0J127000D01*
G01*
X11938000Y-9144000D02*
G75*
G02*
X12065000Y-9017000I127000J0D01*
G01*
X13208000Y-9017000D02*
G75*
G02*
X13335000Y-9144000I0J-127000D01*
G01*
X13208000Y-9779000D02*
X12065000Y-9779000D01*
X13335000Y-9144000D02*
X13335000Y-9652000D01*
X12065000Y-9017000D02*
X13208000Y-9017000D01*
D11*
X12630000Y-9620000D02*
X12670000Y-9660000D01*
X12670000Y-9620000D02*
X12630000Y-9660000D01*
X12770000Y-9080000D02*
X12810000Y-9120000D01*
X12810000Y-9080000D02*
X12770000Y-9120000D01*
X13050000Y-9630000D02*
X13090000Y-9670000D01*
X13090000Y-9630000D02*
X13050000Y-9670000D01*
X12242000Y-9144000D02*
G75*
G03*
X12242000Y-9144000I-50000J0D01*
G01*
X12242000Y-9398000D02*
G75*
G03*
X12242000Y-9398000I-50000J0D01*
G01*
X12242000Y-9652000D02*
G75*
G03*
X12242000Y-9652000I-50000J0D01*
G01*
D12*
X12221928Y-10247214D02*
X12221928Y-9947214D01*
X12293357Y-9947214D01*
X12336214Y-9961500D01*
X12364786Y-9990072D01*
X12379071Y-10018643D01*
X12393357Y-10075786D01*
X12393357Y-10118643D01*
X12379071Y-10175786D01*
X12364786Y-10204357D01*
X12336214Y-10232929D01*
X12293357Y-10247214D01*
X12221928Y-10247214D01*
X12521928Y-10247214D02*
X12521928Y-10047214D01*
X12521928Y-10104357D02*
X12536214Y-10075786D01*
X12550500Y-10061500D01*
X12579071Y-10047214D01*
X12607643Y-10047214D01*
X12707643Y-10247214D02*
X12707643Y-10047214D01*
X12707643Y-9947214D02*
X12693357Y-9961500D01*
X12707643Y-9975786D01*
X12721928Y-9961500D01*
X12707643Y-9947214D01*
X12707643Y-9975786D01*
X12893357Y-10247214D02*
X12864786Y-10232929D01*
X12850500Y-10204357D01*
X12850500Y-9947214D01*
X13050500Y-10247214D02*
X13021928Y-10232929D01*
X13007643Y-10204357D01*
X13007643Y-9947214D01*
X13393357Y-10247214D02*
X13393357Y-9947214D01*
X13493357Y-10161500D01*
X13593357Y-9947214D01*
X13593357Y-10247214D01*
X13864786Y-10247214D02*
X13864786Y-10090072D01*
X13850500Y-10061500D01*
X13821928Y-10047214D01*
X13764786Y-10047214D01*
X13736214Y-10061500D01*
X13864786Y-10232929D02*
X13836214Y-10247214D01*
X13764786Y-10247214D01*
X13736214Y-10232929D01*
X13721928Y-10204357D01*
X13721928Y-10175786D01*
X13736214Y-10147214D01*
X13764786Y-10132929D01*
X13836214Y-10132929D01*
X13864786Y-10118643D01*
X14007643Y-10047214D02*
X14007643Y-10347214D01*
X14007643Y-10061500D02*
X14036214Y-10047214D01*
X14093357Y-10047214D01*
X14121928Y-10061500D01*
X14136214Y-10075786D01*
X14150500Y-10104357D01*
X14150500Y-10190072D01*
X14136214Y-10218643D01*
X14121928Y-10232929D01*
X14093357Y-10247214D01*
X14036214Y-10247214D01*
X14007643Y-10232929D01*
X14279071Y-10218643D02*
X14293357Y-10232929D01*
X14279071Y-10247214D01*
X14264786Y-10232929D01*
X14279071Y-10218643D01*
X14279071Y-10247214D01*
X14279071Y-10061500D02*
X14293357Y-10075786D01*
X14279071Y-10090072D01*
X14264786Y-10075786D01*
X14279071Y-10061500D01*
X14279071Y-10090072D01*
X11895500Y-10721500D02*
X11935500Y-10761500D01*
X11935500Y-10721500D02*
X11895500Y-10761500D01*
X12279071Y-10577214D02*
X12307643Y-10577214D01*
X12336214Y-10591500D01*
X12350500Y-10605786D01*
X12364786Y-10634357D01*
X12379071Y-10691500D01*
X12379071Y-10762929D01*
X12364786Y-10820072D01*
X12350500Y-10848643D01*
X12336214Y-10862929D01*
X12307643Y-10877214D01*
X12279071Y-10877214D01*
X12250500Y-10862929D01*
X12236214Y-10848643D01*
X12221928Y-10820072D01*
X12207643Y-10762929D01*
X12207643Y-10691500D01*
X12221928Y-10634357D01*
X12236214Y-10605786D01*
X12250500Y-10591500D01*
X12279071Y-10577214D01*
X12507643Y-10848643D02*
X12521928Y-10862929D01*
X12507643Y-10877214D01*
X12493357Y-10862929D01*
X12507643Y-10848643D01*
X12507643Y-10877214D01*
X12779071Y-10677214D02*
X12779071Y-10877214D01*
X12707643Y-10562929D02*
X12636214Y-10777214D01*
X12821928Y-10777214D01*
X12993357Y-10577214D02*
X13021928Y-10577214D01*
X13050500Y-10591500D01*
X13064786Y-10605786D01*
X13079071Y-10634357D01*
X13093357Y-10691500D01*
X13093357Y-10762929D01*
X13079071Y-10820072D01*
X13064786Y-10848643D01*
X13050500Y-10862929D01*
X13021928Y-10877214D01*
X12993357Y-10877214D01*
X12964786Y-10862929D01*
X12950500Y-10848643D01*
X12936214Y-10820072D01*
X12921928Y-10762929D01*
X12921928Y-10691500D01*
X12936214Y-10634357D01*
X12950500Y-10605786D01*
X12964786Y-10591500D01*
X12993357Y-10577214D01*
X13279071Y-10577214D02*
X13307643Y-10577214D01*
X13336214Y-10591500D01*
X13350500Y-10605786D01*
X13364786Y-10634357D01*
X13379071Y-10691500D01*
X13379071Y-10762929D01*
X13364786Y-10820072D01*
X13350500Y-10848643D01*
X13336214Y-10862929D01*
X13307643Y-10877214D01*
X13279071Y-10877214D01*
X13250500Y-10862929D01*
X13236214Y-10848643D01*
X13221928Y-10820072D01*
X13207643Y-10762929D01*
X13207643Y-10691500D01*
X13221928Y-10634357D01*
X13236214Y-10605786D01*
X13250500Y-10591500D01*
X13279071Y-10577214D01*
X13507643Y-10877214D02*
X13507643Y-10677214D01*
X13507643Y-10705786D02*
X13521928Y-10691500D01*
X13550500Y-10677214D01*
X13593357Y-10677214D01*
X13621928Y-10691500D01*
X13636214Y-10720072D01*
X13636214Y-10877214D01*
X13636214Y-10720072D02*
X13650500Y-10691500D01*
X13679071Y-10677214D01*
X13721928Y-10677214D01*
X13750500Y-10691500D01*
X13764786Y-10720072D01*
X13764786Y-10877214D01*
X13907643Y-10877214D02*
X13907643Y-10677214D01*
X13907643Y-10705786D02*
X13921928Y-10691500D01*
X13950500Y-10677214D01*
X13993357Y-10677214D01*
X14021928Y-10691500D01*
X14036214Y-10720072D01*
X14036214Y-10877214D01*
X14036214Y-10720072D02*
X14050500Y-10691500D01*
X14079071Y-10677214D01*
X14121928Y-10677214D01*
X14150500Y-10691500D01*
X14164786Y-10720072D01*
X14164786Y-10877214D01*
X14750500Y-10562929D02*
X14493357Y-10948643D01*
X15136214Y-10577214D02*
X15164786Y-10577214D01*
X15193357Y-10591500D01*
X15207643Y-10605786D01*
X15221928Y-10634357D01*
X15236214Y-10691500D01*
X15236214Y-10762929D01*
X15221928Y-10820072D01*
X15207643Y-10848643D01*
X15193357Y-10862929D01*
X15164786Y-10877214D01*
X15136214Y-10877214D01*
X15107643Y-10862929D01*
X15093357Y-10848643D01*
X15079071Y-10820072D01*
X15064786Y-10762929D01*
X15064786Y-10691500D01*
X15079071Y-10634357D01*
X15093357Y-10605786D01*
X15107643Y-10591500D01*
X15136214Y-10577214D01*
X15364786Y-10848643D02*
X15379071Y-10862929D01*
X15364786Y-10877214D01*
X15350500Y-10862929D01*
X15364786Y-10848643D01*
X15364786Y-10877214D01*
X15564786Y-10577214D02*
X15593357Y-10577214D01*
X15621928Y-10591500D01*
X15636214Y-10605786D01*
X15650500Y-10634357D01*
X15664786Y-10691500D01*
X15664786Y-10762929D01*
X15650500Y-10820072D01*
X15636214Y-10848643D01*
X15621928Y-10862929D01*
X15593357Y-10877214D01*
X15564786Y-10877214D01*
X15536214Y-10862929D01*
X15521928Y-10848643D01*
X15507643Y-10820072D01*
X15493357Y-10762929D01*
X15493357Y-10691500D01*
X15507643Y-10634357D01*
X15521928Y-10605786D01*
X15536214Y-10591500D01*
X15564786Y-10577214D01*
X15950500Y-10877214D02*
X15779071Y-10877214D01*
X15864786Y-10877214D02*
X15864786Y-10577214D01*
X15836214Y-10620072D01*
X15807643Y-10648643D01*
X15779071Y-10662929D01*
X16221928Y-10577214D02*
X16079071Y-10577214D01*
X16064786Y-10720072D01*
X16079071Y-10705786D01*
X16107643Y-10691500D01*
X16179071Y-10691500D01*
X16207643Y-10705786D01*
X16221928Y-10720072D01*
X16236214Y-10748643D01*
X16236214Y-10820072D01*
X16221928Y-10848643D01*
X16207643Y-10862929D01*
X16179071Y-10877214D01*
X16107643Y-10877214D01*
X16079071Y-10862929D01*
X16064786Y-10848643D01*
X16336214Y-10577214D02*
X16536214Y-10577214D01*
X16407643Y-10877214D01*
X16636214Y-10577214D02*
X16636214Y-10634357D01*
X16750500Y-10577214D02*
X16750500Y-10634357D01*
X17193357Y-10991500D02*
X17179071Y-10977214D01*
X17150500Y-10934357D01*
X17136214Y-10905786D01*
X17121928Y-10862929D01*
X17107643Y-10791500D01*
X17107643Y-10734357D01*
X17121928Y-10662929D01*
X17136214Y-10620072D01*
X17150500Y-10591500D01*
X17179071Y-10548643D01*
X17193357Y-10534357D01*
X17279071Y-10577214D02*
X17464786Y-10577214D01*
X17364786Y-10691500D01*
X17407643Y-10691500D01*
X17436214Y-10705786D01*
X17450500Y-10720072D01*
X17464786Y-10748643D01*
X17464786Y-10820072D01*
X17450500Y-10848643D01*
X17436214Y-10862929D01*
X17407643Y-10877214D01*
X17321928Y-10877214D01*
X17293357Y-10862929D01*
X17279071Y-10848643D01*
X17821928Y-10877214D02*
X17821928Y-10577214D01*
X17950500Y-10877214D02*
X17950500Y-10720072D01*
X17936214Y-10691500D01*
X17907643Y-10677214D01*
X17864786Y-10677214D01*
X17836214Y-10691500D01*
X17821928Y-10705786D01*
X18136214Y-10877214D02*
X18107643Y-10862929D01*
X18093357Y-10848643D01*
X18079071Y-10820072D01*
X18079071Y-10734357D01*
X18093357Y-10705786D01*
X18107643Y-10691500D01*
X18136214Y-10677214D01*
X18179071Y-10677214D01*
X18207643Y-10691500D01*
X18221928Y-10705786D01*
X18236214Y-10734357D01*
X18236214Y-10820072D01*
X18221928Y-10848643D01*
X18207643Y-10862929D01*
X18179071Y-10877214D01*
X18136214Y-10877214D01*
X18407643Y-10877214D02*
X18379071Y-10862929D01*
X18364786Y-10834357D01*
X18364786Y-10577214D01*
X18636214Y-10862929D02*
X18607643Y-10877214D01*
X18550500Y-10877214D01*
X18521928Y-10862929D01*
X18507643Y-10834357D01*
X18507643Y-10720072D01*
X18521928Y-10691500D01*
X18550500Y-10677214D01*
X18607643Y-10677214D01*
X18636214Y-10691500D01*
X18650500Y-10720072D01*
X18650500Y-10748643D01*
X18507643Y-10777214D01*
X18764786Y-10862929D02*
X18793357Y-10877214D01*
X18850500Y-10877214D01*
X18879071Y-10862929D01*
X18893357Y-10834357D01*
X18893357Y-10820072D01*
X18879071Y-10791500D01*
X18850500Y-10777214D01*
X18807643Y-10777214D01*
X18779071Y-10762929D01*
X18764786Y-10734357D01*
X18764786Y-10720072D01*
X18779071Y-10691500D01*
X18807643Y-10677214D01*
X18850500Y-10677214D01*
X18879071Y-10691500D01*
X18993357Y-10991500D02*
X19007643Y-10977214D01*
X19036214Y-10934357D01*
X19050500Y-10905786D01*
X19064786Y-10862929D01*
X19079071Y-10791500D01*
X19079071Y-10734357D01*
X19064786Y-10662929D01*
X19050500Y-10620072D01*
X19036214Y-10591500D01*
X19007643Y-10548643D01*
X18993357Y-10534357D01*
X11935500Y-11137500D02*
G75*
G03*
X11935500Y-11137500I-50000J0D01*
G01*
X12379071Y-11273214D02*
X12207643Y-11273214D01*
X12293357Y-11273214D02*
X12293357Y-10973214D01*
X12264786Y-11016072D01*
X12236214Y-11044643D01*
X12207643Y-11058929D01*
X12507643Y-11244643D02*
X12521928Y-11258929D01*
X12507643Y-11273214D01*
X12493357Y-11258929D01*
X12507643Y-11244643D01*
X12507643Y-11273214D01*
X12707643Y-10973214D02*
X12736214Y-10973214D01*
X12764786Y-10987500D01*
X12779071Y-11001786D01*
X12793357Y-11030357D01*
X12807643Y-11087500D01*
X12807643Y-11158929D01*
X12793357Y-11216071D01*
X12779071Y-11244643D01*
X12764786Y-11258929D01*
X12736214Y-11273214D01*
X12707643Y-11273214D01*
X12679071Y-11258929D01*
X12664786Y-11244643D01*
X12650500Y-11216071D01*
X12636214Y-11158929D01*
X12636214Y-11087500D01*
X12650500Y-11030357D01*
X12664786Y-11001786D01*
X12679071Y-10987500D01*
X12707643Y-10973214D01*
X12993357Y-10973214D02*
X13021928Y-10973214D01*
X13050500Y-10987500D01*
X13064786Y-11001786D01*
X13079071Y-11030357D01*
X13093357Y-11087500D01*
X13093357Y-11158929D01*
X13079071Y-11216071D01*
X13064786Y-11244643D01*
X13050500Y-11258929D01*
X13021928Y-11273214D01*
X12993357Y-11273214D01*
X12964786Y-11258929D01*
X12950500Y-11244643D01*
X12936214Y-11216071D01*
X12921928Y-11158929D01*
X12921928Y-11087500D01*
X12936214Y-11030357D01*
X12950500Y-11001786D01*
X12964786Y-10987500D01*
X12993357Y-10973214D01*
X13279071Y-10973214D02*
X13307643Y-10973214D01*
X13336214Y-10987500D01*
X13350500Y-11001786D01*
X13364786Y-11030357D01*
X13379071Y-11087500D01*
X13379071Y-11158929D01*
X13364786Y-11216071D01*
X13350500Y-11244643D01*
X13336214Y-11258929D01*
X13307643Y-11273214D01*
X13279071Y-11273214D01*
X13250500Y-11258929D01*
X13236214Y-11244643D01*
X13221928Y-11216071D01*
X13207643Y-11158929D01*
X13207643Y-11087500D01*
X13221928Y-11030357D01*
X13236214Y-11001786D01*
X13250500Y-10987500D01*
X13279071Y-10973214D01*
X13507643Y-11273214D02*
X13507643Y-11073214D01*
X13507643Y-11101786D02*
X13521928Y-11087500D01*
X13550500Y-11073214D01*
X13593357Y-11073214D01*
X13621928Y-11087500D01*
X13636214Y-11116072D01*
X13636214Y-11273214D01*
X13636214Y-11116072D02*
X13650500Y-11087500D01*
X13679071Y-11073214D01*
X13721928Y-11073214D01*
X13750500Y-11087500D01*
X13764786Y-11116072D01*
X13764786Y-11273214D01*
X13907643Y-11273214D02*
X13907643Y-11073214D01*
X13907643Y-11101786D02*
X13921928Y-11087500D01*
X13950500Y-11073214D01*
X13993357Y-11073214D01*
X14021928Y-11087500D01*
X14036214Y-11116072D01*
X14036214Y-11273214D01*
X14036214Y-11116072D02*
X14050500Y-11087500D01*
X14079071Y-11073214D01*
X14121928Y-11073214D01*
X14150500Y-11087500D01*
X14164786Y-11116072D01*
X14164786Y-11273214D01*
X14750500Y-10958929D02*
X14493357Y-11344643D01*
X15136214Y-10973214D02*
X15164786Y-10973214D01*
X15193357Y-10987500D01*
X15207643Y-11001786D01*
X15221928Y-11030357D01*
X15236214Y-11087500D01*
X15236214Y-11158929D01*
X15221928Y-11216071D01*
X15207643Y-11244643D01*
X15193357Y-11258929D01*
X15164786Y-11273214D01*
X15136214Y-11273214D01*
X15107643Y-11258929D01*
X15093357Y-11244643D01*
X15079071Y-11216071D01*
X15064786Y-11158929D01*
X15064786Y-11087500D01*
X15079071Y-11030357D01*
X15093357Y-11001786D01*
X15107643Y-10987500D01*
X15136214Y-10973214D01*
X15364786Y-11244643D02*
X15379071Y-11258929D01*
X15364786Y-11273214D01*
X15350500Y-11258929D01*
X15364786Y-11244643D01*
X15364786Y-11273214D01*
X15564786Y-10973214D02*
X15593357Y-10973214D01*
X15621928Y-10987500D01*
X15636214Y-11001786D01*
X15650500Y-11030357D01*
X15664786Y-11087500D01*
X15664786Y-11158929D01*
X15650500Y-11216071D01*
X15636214Y-11244643D01*
X15621928Y-11258929D01*
X15593357Y-11273214D01*
X15564786Y-11273214D01*
X15536214Y-11258929D01*
X15521928Y-11244643D01*
X15507643Y-11216071D01*
X15493357Y-11158929D01*
X15493357Y-11087500D01*
X15507643Y-11030357D01*
X15521928Y-11001786D01*
X15536214Y-10987500D01*
X15564786Y-10973214D01*
X15764786Y-10973214D02*
X15950500Y-10973214D01*
X15850500Y-11087500D01*
X15893357Y-11087500D01*
X15921928Y-11101786D01*
X15936214Y-11116072D01*
X15950500Y-11144643D01*
X15950500Y-11216071D01*
X15936214Y-11244643D01*
X15921928Y-11258929D01*
X15893357Y-11273214D01*
X15807643Y-11273214D01*
X15779071Y-11258929D01*
X15764786Y-11244643D01*
X16093357Y-11273214D02*
X16150500Y-11273214D01*
X16179071Y-11258929D01*
X16193357Y-11244643D01*
X16221928Y-11201786D01*
X16236214Y-11144643D01*
X16236214Y-11030357D01*
X16221928Y-11001786D01*
X16207643Y-10987500D01*
X16179071Y-10973214D01*
X16121928Y-10973214D01*
X16093357Y-10987500D01*
X16079071Y-11001786D01*
X16064786Y-11030357D01*
X16064786Y-11101786D01*
X16079071Y-11130357D01*
X16093357Y-11144643D01*
X16121928Y-11158929D01*
X16179071Y-11158929D01*
X16207643Y-11144643D01*
X16221928Y-11130357D01*
X16236214Y-11101786D01*
X16493357Y-11073214D02*
X16493357Y-11273214D01*
X16421928Y-10958929D02*
X16350500Y-11173214D01*
X16536214Y-11173214D01*
X16636214Y-10973214D02*
X16636214Y-11030357D01*
X16750500Y-10973214D02*
X16750500Y-11030357D01*
X17193357Y-11387500D02*
X17179071Y-11373214D01*
X17150500Y-11330357D01*
X17136214Y-11301786D01*
X17121928Y-11258929D01*
X17107643Y-11187500D01*
X17107643Y-11130357D01*
X17121928Y-11058929D01*
X17136214Y-11016072D01*
X17150500Y-10987500D01*
X17179071Y-10944643D01*
X17193357Y-10930357D01*
X17279071Y-10973214D02*
X17464786Y-10973214D01*
X17364786Y-11087500D01*
X17407643Y-11087500D01*
X17436214Y-11101786D01*
X17450500Y-11116072D01*
X17464786Y-11144643D01*
X17464786Y-11216071D01*
X17450500Y-11244643D01*
X17436214Y-11258929D01*
X17407643Y-11273214D01*
X17321928Y-11273214D01*
X17293357Y-11258929D01*
X17279071Y-11244643D01*
X17821928Y-11273214D02*
X17821928Y-10973214D01*
X17950500Y-11273214D02*
X17950500Y-11116072D01*
X17936214Y-11087500D01*
X17907643Y-11073214D01*
X17864786Y-11073214D01*
X17836214Y-11087500D01*
X17821928Y-11101786D01*
X18136214Y-11273214D02*
X18107643Y-11258929D01*
X18093357Y-11244643D01*
X18079071Y-11216071D01*
X18079071Y-11130357D01*
X18093357Y-11101786D01*
X18107643Y-11087500D01*
X18136214Y-11073214D01*
X18179071Y-11073214D01*
X18207643Y-11087500D01*
X18221928Y-11101786D01*
X18236214Y-11130357D01*
X18236214Y-11216071D01*
X18221928Y-11244643D01*
X18207643Y-11258929D01*
X18179071Y-11273214D01*
X18136214Y-11273214D01*
X18407643Y-11273214D02*
X18379071Y-11258929D01*
X18364786Y-11230357D01*
X18364786Y-10973214D01*
X18636214Y-11258929D02*
X18607643Y-11273214D01*
X18550500Y-11273214D01*
X18521928Y-11258929D01*
X18507643Y-11230357D01*
X18507643Y-11116072D01*
X18521928Y-11087500D01*
X18550500Y-11073214D01*
X18607643Y-11073214D01*
X18636214Y-11087500D01*
X18650500Y-11116072D01*
X18650500Y-11144643D01*
X18507643Y-11173214D01*
X18764786Y-11258929D02*
X18793357Y-11273214D01*
X18850500Y-11273214D01*
X18879071Y-11258929D01*
X18893357Y-11230357D01*
X18893357Y-11216071D01*
X18879071Y-11187500D01*
X18850500Y-11173214D01*
X18807643Y-11173214D01*
X18779071Y-11158929D01*
X18764786Y-11130357D01*
X18764786Y-11116072D01*
X18779071Y-11087500D01*
X18807643Y-11073214D01*
X18850500Y-11073214D01*
X18879071Y-11087500D01*
X18993357Y-11387500D02*
X19007643Y-11373214D01*
X19036214Y-11330357D01*
X19050500Y-11301786D01*
X19064786Y-11258929D01*
X19079071Y-11187500D01*
X19079071Y-11130357D01*
X19064786Y-11058929D01*
X19050500Y-11016072D01*
X19036214Y-10987500D01*
X19007643Y-10944643D01*
X18993357Y-10930357D01*
M02*
