G04 #@! TF.GenerationSoftware,KiCad,Pcbnew,(5.1.10)-1*
G04 #@! TF.CreationDate,2021-12-10T13:29:21-08:00*
G04 #@! TF.ProjectId,BQ2920x,42513239-3230-4782-9e6b-696361645f70,rev?*
G04 #@! TF.SameCoordinates,Original*
G04 #@! TF.FileFunction,Legend,Top*
G04 #@! TF.FilePolarity,Positive*
%FSLAX46Y46*%
G04 Gerber Fmt 4.6, Leading zero omitted, Abs format (unit mm)*
G04 Created by KiCad (PCBNEW (5.1.10)-1) date 2021-12-10 13:29:21*
%MOMM*%
%LPD*%
G01*
G04 APERTURE LIST*
%ADD10C,0.150000*%
%ADD11C,0.120000*%
G04 APERTURE END LIST*
D10*
X120086428Y-91820952D02*
X120086428Y-91059047D01*
X120467380Y-91440000D02*
X119705476Y-91440000D01*
X120086428Y-96900952D02*
X120086428Y-96139047D01*
D11*
X127600000Y-93225000D02*
G75*
G03*
X127600000Y-93225000I-100000J0D01*
G01*
X132253641Y-91820000D02*
X131946359Y-91820000D01*
X132253641Y-92580000D02*
X131946359Y-92580000D01*
X126220000Y-94846359D02*
X126220000Y-95153641D01*
X126980000Y-94846359D02*
X126980000Y-95153641D01*
X124853641Y-93620000D02*
X124546359Y-93620000D01*
X124853641Y-94380000D02*
X124546359Y-94380000D01*
X126980000Y-92353641D02*
X126980000Y-92046359D01*
X126220000Y-92353641D02*
X126220000Y-92046359D01*
X120590000Y-90110000D02*
X121920000Y-90110000D01*
X120590000Y-91440000D02*
X120590000Y-90110000D01*
X120590000Y-92710000D02*
X123250000Y-92710000D01*
X123250000Y-92710000D02*
X123250000Y-97850000D01*
X120590000Y-92710000D02*
X120590000Y-97850000D01*
X120590000Y-97850000D02*
X123250000Y-97850000D01*
X132090000Y-94459420D02*
X132090000Y-94740580D01*
X133110000Y-94459420D02*
X133110000Y-94740580D01*
X128359420Y-97410000D02*
X128640580Y-97410000D01*
X128359420Y-96390000D02*
X128640580Y-96390000D01*
X124590000Y-95959420D02*
X124590000Y-96240580D01*
X125610000Y-95959420D02*
X125610000Y-96240580D01*
X124590000Y-91559420D02*
X124590000Y-91840580D01*
X125610000Y-91559420D02*
X125610000Y-91840580D01*
M02*
