%FSLAX45Y45*%
G04 Gerber Fmt 4.5, Leading zero omitted, Abs format (unit mm)*
G04 Created by KiCad (PCBNEW (5.1.10)-1) date 2021-12-10 13:29:33*
%MOMM*%
%LPD*%
G01*
G04 APERTURE LIST*
%TA.AperFunction,Profile*%
%ADD10C,0.050000*%
%TD*%
%ADD11C,0.200000*%
%ADD12C,0.300000*%
G04 APERTURE END LIST*
D10*
X11938000Y-9652000D02*
X11938000Y-9144000D01*
X13335000Y-9652000D02*
G75*
G02*
X13208000Y-9779000I-127000J0D01*
G01*
X12065000Y-9779000D02*
G75*
G02*
X11938000Y-9652000I0J127000D01*
G01*
X11938000Y-9144000D02*
G75*
G02*
X12065000Y-9017000I127000J0D01*
G01*
X13208000Y-9017000D02*
G75*
G02*
X13335000Y-9144000I0J-127000D01*
G01*
X13208000Y-9779000D02*
X12065000Y-9779000D01*
X13335000Y-9144000D02*
X13335000Y-9652000D01*
X12065000Y-9017000D02*
X13208000Y-9017000D01*
D11*
D12*
X12221928Y-10247214D02*
X12221928Y-9947214D01*
X12293357Y-9947214D01*
X12336214Y-9961500D01*
X12364786Y-9990072D01*
X12379071Y-10018643D01*
X12393357Y-10075786D01*
X12393357Y-10118643D01*
X12379071Y-10175786D01*
X12364786Y-10204357D01*
X12336214Y-10232929D01*
X12293357Y-10247214D01*
X12221928Y-10247214D01*
X12521928Y-10247214D02*
X12521928Y-10047214D01*
X12521928Y-10104357D02*
X12536214Y-10075786D01*
X12550500Y-10061500D01*
X12579071Y-10047214D01*
X12607643Y-10047214D01*
X12707643Y-10247214D02*
X12707643Y-10047214D01*
X12707643Y-9947214D02*
X12693357Y-9961500D01*
X12707643Y-9975786D01*
X12721928Y-9961500D01*
X12707643Y-9947214D01*
X12707643Y-9975786D01*
X12893357Y-10247214D02*
X12864786Y-10232929D01*
X12850500Y-10204357D01*
X12850500Y-9947214D01*
X13050500Y-10247214D02*
X13021928Y-10232929D01*
X13007643Y-10204357D01*
X13007643Y-9947214D01*
X13393357Y-10247214D02*
X13393357Y-9947214D01*
X13493357Y-10161500D01*
X13593357Y-9947214D01*
X13593357Y-10247214D01*
X13864786Y-10247214D02*
X13864786Y-10090072D01*
X13850500Y-10061500D01*
X13821928Y-10047214D01*
X13764786Y-10047214D01*
X13736214Y-10061500D01*
X13864786Y-10232929D02*
X13836214Y-10247214D01*
X13764786Y-10247214D01*
X13736214Y-10232929D01*
X13721928Y-10204357D01*
X13721928Y-10175786D01*
X13736214Y-10147214D01*
X13764786Y-10132929D01*
X13836214Y-10132929D01*
X13864786Y-10118643D01*
X14007643Y-10047214D02*
X14007643Y-10347214D01*
X14007643Y-10061500D02*
X14036214Y-10047214D01*
X14093357Y-10047214D01*
X14121928Y-10061500D01*
X14136214Y-10075786D01*
X14150500Y-10104357D01*
X14150500Y-10190072D01*
X14136214Y-10218643D01*
X14121928Y-10232929D01*
X14093357Y-10247214D01*
X14036214Y-10247214D01*
X14007643Y-10232929D01*
X14279071Y-10218643D02*
X14293357Y-10232929D01*
X14279071Y-10247214D01*
X14264786Y-10232929D01*
X14279071Y-10218643D01*
X14279071Y-10247214D01*
X14279071Y-10061500D02*
X14293357Y-10075786D01*
X14279071Y-10090072D01*
X14264786Y-10075786D01*
X14279071Y-10061500D01*
X14279071Y-10090072D01*
M02*
