G04 #@! TF.GenerationSoftware,KiCad,Pcbnew,(5.1.10)-1*
G04 #@! TF.CreationDate,2021-12-10T13:32:49-08:00*
G04 #@! TF.ProjectId,INA219_Breakout,494e4132-3139-45f4-9272-65616b6f7574,rev?*
G04 #@! TF.SameCoordinates,Original*
G04 #@! TF.FileFunction,Copper,L2,Bot*
G04 #@! TF.FilePolarity,Positive*
%FSLAX46Y46*%
G04 Gerber Fmt 4.6, Leading zero omitted, Abs format (unit mm)*
G04 Created by KiCad (PCBNEW (5.1.10)-1) date 2021-12-10 13:32:49*
%MOMM*%
%LPD*%
G01*
G04 APERTURE LIST*
G04 #@! TA.AperFunction,ComponentPad*
%ADD10O,1.700000X1.700000*%
G04 #@! TD*
G04 #@! TA.AperFunction,ComponentPad*
%ADD11R,1.700000X1.700000*%
G04 #@! TD*
G04 #@! TA.AperFunction,ViaPad*
%ADD12C,0.800000*%
G04 #@! TD*
G04 #@! TA.AperFunction,Conductor*
%ADD13C,0.250000*%
G04 #@! TD*
G04 #@! TA.AperFunction,Conductor*
%ADD14C,0.254000*%
G04 #@! TD*
G04 #@! TA.AperFunction,Conductor*
%ADD15C,0.100000*%
G04 #@! TD*
G04 APERTURE END LIST*
D10*
X102870000Y-138430000D03*
X102870000Y-135890000D03*
X102870000Y-133350000D03*
D11*
X102870000Y-130810000D03*
D10*
X102870000Y-128270000D03*
X102870000Y-125730000D03*
X102870000Y-123190000D03*
D11*
X102870000Y-120650000D03*
D12*
X106540000Y-120160000D03*
X108300000Y-120600000D03*
X104775000Y-132080000D03*
X107300000Y-128400000D03*
X107539997Y-124970001D03*
D13*
X108090000Y-130780000D02*
X102930000Y-135940000D01*
X108090000Y-127463002D02*
X108090000Y-130780000D01*
X108380000Y-127173002D02*
X108090000Y-127463002D01*
X108380000Y-122000000D02*
X108380000Y-127173002D01*
X106540000Y-120160000D02*
X108380000Y-122000000D01*
X108899999Y-121199999D02*
X108300000Y-120600000D01*
X102830000Y-138440000D02*
X108899999Y-132370001D01*
X108899999Y-132370001D02*
X108899999Y-121199999D01*
X102860000Y-120650000D02*
X107180001Y-124970001D01*
X107180001Y-124970001D02*
X107539997Y-124970001D01*
D14*
X106616202Y-125481004D02*
X106640000Y-125510002D01*
X106668998Y-125533800D01*
X106675494Y-125539131D01*
X106736060Y-125629775D01*
X106880223Y-125773938D01*
X107049741Y-125887206D01*
X107238099Y-125965227D01*
X107438058Y-126005001D01*
X107620001Y-126005001D01*
X107620001Y-126858200D01*
X107579003Y-126899198D01*
X107549999Y-126923001D01*
X107494871Y-126990176D01*
X107455026Y-127038726D01*
X107391309Y-127157932D01*
X107384454Y-127170756D01*
X107340997Y-127314017D01*
X107330000Y-127425670D01*
X107330000Y-127425680D01*
X107326324Y-127463002D01*
X107330000Y-127500325D01*
X107330001Y-130465197D01*
X104355000Y-133440199D01*
X104355000Y-133203740D01*
X104297932Y-132916842D01*
X104185990Y-132646589D01*
X104023475Y-132403368D01*
X103891620Y-132271513D01*
X103964180Y-132249502D01*
X104074494Y-132190537D01*
X104171185Y-132111185D01*
X104250537Y-132014494D01*
X104309502Y-131904180D01*
X104345812Y-131784482D01*
X104358072Y-131660000D01*
X104358072Y-129960000D01*
X104345812Y-129835518D01*
X104309502Y-129715820D01*
X104250537Y-129605506D01*
X104171185Y-129508815D01*
X104074494Y-129429463D01*
X103964180Y-129370498D01*
X103844482Y-129334188D01*
X103720000Y-129321928D01*
X102020000Y-129321928D01*
X101895518Y-129334188D01*
X101775820Y-129370498D01*
X101727000Y-129396593D01*
X101727000Y-126687107D01*
X101923368Y-126883475D01*
X102166589Y-127045990D01*
X102436842Y-127157932D01*
X102723740Y-127215000D01*
X103016260Y-127215000D01*
X103303158Y-127157932D01*
X103573411Y-127045990D01*
X103816632Y-126883475D01*
X104023475Y-126676632D01*
X104185990Y-126433411D01*
X104297932Y-126163158D01*
X104355000Y-125876260D01*
X104355000Y-125583740D01*
X104297932Y-125296842D01*
X104185990Y-125026589D01*
X104023475Y-124783368D01*
X103816632Y-124576525D01*
X103642240Y-124460000D01*
X103816632Y-124343475D01*
X104023475Y-124136632D01*
X104185990Y-123893411D01*
X104297932Y-123623158D01*
X104355000Y-123336260D01*
X104355000Y-123219801D01*
X106616202Y-125481004D01*
G04 #@! TA.AperFunction,Conductor*
D15*
G36*
X106616202Y-125481004D02*
G01*
X106640000Y-125510002D01*
X106668998Y-125533800D01*
X106675494Y-125539131D01*
X106736060Y-125629775D01*
X106880223Y-125773938D01*
X107049741Y-125887206D01*
X107238099Y-125965227D01*
X107438058Y-126005001D01*
X107620001Y-126005001D01*
X107620001Y-126858200D01*
X107579003Y-126899198D01*
X107549999Y-126923001D01*
X107494871Y-126990176D01*
X107455026Y-127038726D01*
X107391309Y-127157932D01*
X107384454Y-127170756D01*
X107340997Y-127314017D01*
X107330000Y-127425670D01*
X107330000Y-127425680D01*
X107326324Y-127463002D01*
X107330000Y-127500325D01*
X107330001Y-130465197D01*
X104355000Y-133440199D01*
X104355000Y-133203740D01*
X104297932Y-132916842D01*
X104185990Y-132646589D01*
X104023475Y-132403368D01*
X103891620Y-132271513D01*
X103964180Y-132249502D01*
X104074494Y-132190537D01*
X104171185Y-132111185D01*
X104250537Y-132014494D01*
X104309502Y-131904180D01*
X104345812Y-131784482D01*
X104358072Y-131660000D01*
X104358072Y-129960000D01*
X104345812Y-129835518D01*
X104309502Y-129715820D01*
X104250537Y-129605506D01*
X104171185Y-129508815D01*
X104074494Y-129429463D01*
X103964180Y-129370498D01*
X103844482Y-129334188D01*
X103720000Y-129321928D01*
X102020000Y-129321928D01*
X101895518Y-129334188D01*
X101775820Y-129370498D01*
X101727000Y-129396593D01*
X101727000Y-126687107D01*
X101923368Y-126883475D01*
X102166589Y-127045990D01*
X102436842Y-127157932D01*
X102723740Y-127215000D01*
X103016260Y-127215000D01*
X103303158Y-127157932D01*
X103573411Y-127045990D01*
X103816632Y-126883475D01*
X104023475Y-126676632D01*
X104185990Y-126433411D01*
X104297932Y-126163158D01*
X104355000Y-125876260D01*
X104355000Y-125583740D01*
X104297932Y-125296842D01*
X104185990Y-125026589D01*
X104023475Y-124783368D01*
X103816632Y-124576525D01*
X103642240Y-124460000D01*
X103816632Y-124343475D01*
X104023475Y-124136632D01*
X104185990Y-123893411D01*
X104297932Y-123623158D01*
X104355000Y-123336260D01*
X104355000Y-123219801D01*
X106616202Y-125481004D01*
G37*
G04 #@! TD.AperFunction*
M02*
