%FSLAX45Y45*%
G04 Gerber Fmt 4.5, Leading zero omitted, Abs format (unit mm)*
G04 Created by KiCad (PCBNEW (5.1.10)-1) date 2021-12-10 13:32:54*
%MOMM*%
%LPD*%
G01*
G04 APERTURE LIST*
%TA.AperFunction,Profile*%
%ADD10C,0.150000*%
%TD*%
%ADD11C,0.200000*%
%ADD12C,0.300000*%
G04 APERTURE END LIST*
D10*
X9969500Y-12128500D02*
X9969500Y-13779500D01*
X10795000Y-11938000D02*
X10160000Y-11938000D01*
X10985500Y-13779500D02*
X10985500Y-12128500D01*
X10160000Y-13970000D02*
X10795000Y-13970000D01*
X9969500Y-12128500D02*
G75*
G02*
X10160000Y-11938000I190500J0D01*
G01*
X10160000Y-13970000D02*
G75*
G02*
X9969500Y-13779500I0J190500D01*
G01*
X10795000Y-11938000D02*
G75*
G02*
X10985500Y-12128500I0J-190500D01*
G01*
X10985500Y-13779500D02*
G75*
G02*
X10795000Y-13970000I-190500J0D01*
G01*
D11*
D12*
X10248428Y-14443214D02*
X10248428Y-14143214D01*
X10319857Y-14143214D01*
X10362714Y-14157500D01*
X10391286Y-14186071D01*
X10405571Y-14214643D01*
X10419857Y-14271786D01*
X10419857Y-14314643D01*
X10405571Y-14371786D01*
X10391286Y-14400357D01*
X10362714Y-14428929D01*
X10319857Y-14443214D01*
X10248428Y-14443214D01*
X10548428Y-14443214D02*
X10548428Y-14243214D01*
X10548428Y-14300357D02*
X10562714Y-14271786D01*
X10577000Y-14257500D01*
X10605571Y-14243214D01*
X10634143Y-14243214D01*
X10734143Y-14443214D02*
X10734143Y-14243214D01*
X10734143Y-14143214D02*
X10719857Y-14157500D01*
X10734143Y-14171786D01*
X10748428Y-14157500D01*
X10734143Y-14143214D01*
X10734143Y-14171786D01*
X10919857Y-14443214D02*
X10891286Y-14428929D01*
X10877000Y-14400357D01*
X10877000Y-14143214D01*
X11077000Y-14443214D02*
X11048428Y-14428929D01*
X11034143Y-14400357D01*
X11034143Y-14143214D01*
X11419857Y-14443214D02*
X11419857Y-14143214D01*
X11519857Y-14357500D01*
X11619857Y-14143214D01*
X11619857Y-14443214D01*
X11891286Y-14443214D02*
X11891286Y-14286071D01*
X11877000Y-14257500D01*
X11848428Y-14243214D01*
X11791286Y-14243214D01*
X11762714Y-14257500D01*
X11891286Y-14428929D02*
X11862714Y-14443214D01*
X11791286Y-14443214D01*
X11762714Y-14428929D01*
X11748428Y-14400357D01*
X11748428Y-14371786D01*
X11762714Y-14343214D01*
X11791286Y-14328929D01*
X11862714Y-14328929D01*
X11891286Y-14314643D01*
X12034143Y-14243214D02*
X12034143Y-14543214D01*
X12034143Y-14257500D02*
X12062714Y-14243214D01*
X12119857Y-14243214D01*
X12148428Y-14257500D01*
X12162714Y-14271786D01*
X12177000Y-14300357D01*
X12177000Y-14386071D01*
X12162714Y-14414643D01*
X12148428Y-14428929D01*
X12119857Y-14443214D01*
X12062714Y-14443214D01*
X12034143Y-14428929D01*
X12305571Y-14414643D02*
X12319857Y-14428929D01*
X12305571Y-14443214D01*
X12291286Y-14428929D01*
X12305571Y-14414643D01*
X12305571Y-14443214D01*
X12305571Y-14257500D02*
X12319857Y-14271786D01*
X12305571Y-14286071D01*
X12291286Y-14271786D01*
X12305571Y-14257500D01*
X12305571Y-14286071D01*
M02*
