G04 #@! TF.GenerationSoftware,KiCad,Pcbnew,(5.1.10)-1*
G04 #@! TF.CreationDate,2021-12-10T13:32:49-08:00*
G04 #@! TF.ProjectId,INA219_Breakout,494e4132-3139-45f4-9272-65616b6f7574,rev?*
G04 #@! TF.SameCoordinates,Original*
G04 #@! TF.FileFunction,Paste,Top*
G04 #@! TF.FilePolarity,Positive*
%FSLAX46Y46*%
G04 Gerber Fmt 4.6, Leading zero omitted, Abs format (unit mm)*
G04 Created by KiCad (PCBNEW (5.1.10)-1) date 2021-12-10 13:32:49*
%MOMM*%
%LPD*%
G01*
G04 APERTURE LIST*
%ADD10R,0.450000X1.100000*%
G04 APERTURE END LIST*
D10*
X105120000Y-123310000D03*
X105770000Y-123310000D03*
X106420000Y-123310000D03*
X107070000Y-123310000D03*
X106420000Y-125910000D03*
X107070000Y-125910000D03*
X105770000Y-125910000D03*
X105120000Y-125910000D03*
G36*
G01*
X107565000Y-127100000D02*
X107565000Y-127600000D01*
G75*
G02*
X107340000Y-127825000I-225000J0D01*
G01*
X106890000Y-127825000D01*
G75*
G02*
X106665000Y-127600000I0J225000D01*
G01*
X106665000Y-127100000D01*
G75*
G02*
X106890000Y-126875000I225000J0D01*
G01*
X107340000Y-126875000D01*
G75*
G02*
X107565000Y-127100000I0J-225000D01*
G01*
G37*
G36*
G01*
X109115000Y-127100000D02*
X109115000Y-127600000D01*
G75*
G02*
X108890000Y-127825000I-225000J0D01*
G01*
X108440000Y-127825000D01*
G75*
G02*
X108215000Y-127600000I0J225000D01*
G01*
X108215000Y-127100000D01*
G75*
G02*
X108440000Y-126875000I225000J0D01*
G01*
X108890000Y-126875000D01*
G75*
G02*
X109115000Y-127100000I0J-225000D01*
G01*
G37*
G36*
G01*
X108415000Y-123410000D02*
X108045000Y-123410000D01*
G75*
G02*
X107910000Y-123275000I0J135000D01*
G01*
X107910000Y-123005000D01*
G75*
G02*
X108045000Y-122870000I135000J0D01*
G01*
X108415000Y-122870000D01*
G75*
G02*
X108550000Y-123005000I0J-135000D01*
G01*
X108550000Y-123275000D01*
G75*
G02*
X108415000Y-123410000I-135000J0D01*
G01*
G37*
G36*
G01*
X108415000Y-124430000D02*
X108045000Y-124430000D01*
G75*
G02*
X107910000Y-124295000I0J135000D01*
G01*
X107910000Y-124025000D01*
G75*
G02*
X108045000Y-123890000I135000J0D01*
G01*
X108415000Y-123890000D01*
G75*
G02*
X108550000Y-124025000I0J-135000D01*
G01*
X108550000Y-124295000D01*
G75*
G02*
X108415000Y-124430000I-135000J0D01*
G01*
G37*
G36*
G01*
X104575000Y-121140000D02*
X104945000Y-121140000D01*
G75*
G02*
X105080000Y-121275000I0J-135000D01*
G01*
X105080000Y-121545000D01*
G75*
G02*
X104945000Y-121680000I-135000J0D01*
G01*
X104575000Y-121680000D01*
G75*
G02*
X104440000Y-121545000I0J135000D01*
G01*
X104440000Y-121275000D01*
G75*
G02*
X104575000Y-121140000I135000J0D01*
G01*
G37*
G36*
G01*
X104575000Y-120120000D02*
X104945000Y-120120000D01*
G75*
G02*
X105080000Y-120255000I0J-135000D01*
G01*
X105080000Y-120525000D01*
G75*
G02*
X104945000Y-120660000I-135000J0D01*
G01*
X104575000Y-120660000D01*
G75*
G02*
X104440000Y-120525000I0J135000D01*
G01*
X104440000Y-120255000D01*
G75*
G02*
X104575000Y-120120000I135000J0D01*
G01*
G37*
G36*
G01*
X105255000Y-135700000D02*
X108105000Y-135700000D01*
G75*
G02*
X108355000Y-135950000I0J-250000D01*
G01*
X108355000Y-136675000D01*
G75*
G02*
X108105000Y-136925000I-250000J0D01*
G01*
X105255000Y-136925000D01*
G75*
G02*
X105005000Y-136675000I0J250000D01*
G01*
X105005000Y-135950000D01*
G75*
G02*
X105255000Y-135700000I250000J0D01*
G01*
G37*
G36*
G01*
X105255000Y-129775000D02*
X108105000Y-129775000D01*
G75*
G02*
X108355000Y-130025000I0J-250000D01*
G01*
X108355000Y-130750000D01*
G75*
G02*
X108105000Y-131000000I-250000J0D01*
G01*
X105255000Y-131000000D01*
G75*
G02*
X105005000Y-130750000I0J250000D01*
G01*
X105005000Y-130025000D01*
G75*
G02*
X105255000Y-129775000I250000J0D01*
G01*
G37*
M02*
