G04 #@! TF.GenerationSoftware,KiCad,Pcbnew,(5.1.10)-1*
G04 #@! TF.CreationDate,2021-12-10T13:32:49-08:00*
G04 #@! TF.ProjectId,INA219_Breakout,494e4132-3139-45f4-9272-65616b6f7574,rev?*
G04 #@! TF.SameCoordinates,Original*
G04 #@! TF.FileFunction,Legend,Top*
G04 #@! TF.FilePolarity,Positive*
%FSLAX46Y46*%
G04 Gerber Fmt 4.6, Leading zero omitted, Abs format (unit mm)*
G04 Created by KiCad (PCBNEW (5.1.10)-1) date 2021-12-10 13:32:49*
%MOMM*%
%LPD*%
G01*
G04 APERTURE LIST*
%ADD10C,0.150000*%
%ADD11C,0.120000*%
%ADD12R,0.450000X1.100000*%
%ADD13O,1.700000X1.700000*%
%ADD14R,1.700000X1.700000*%
G04 APERTURE END LIST*
D10*
X100831666Y-137858571D02*
X100831666Y-138239523D01*
X100603095Y-137782380D02*
X101403095Y-138049047D01*
X100603095Y-138315714D01*
X101403095Y-138734761D02*
X101403095Y-138810952D01*
X101365000Y-138887142D01*
X101326904Y-138925238D01*
X101250714Y-138963333D01*
X101098333Y-139001428D01*
X100907857Y-139001428D01*
X100755476Y-138963333D01*
X100679285Y-138925238D01*
X100641190Y-138887142D01*
X100603095Y-138810952D01*
X100603095Y-138734761D01*
X100641190Y-138658571D01*
X100679285Y-138620476D01*
X100755476Y-138582380D01*
X100907857Y-138544285D01*
X101098333Y-138544285D01*
X101250714Y-138582380D01*
X101326904Y-138620476D01*
X101365000Y-138658571D01*
X101403095Y-138734761D01*
X100831666Y-135318571D02*
X100831666Y-135699523D01*
X100603095Y-135242380D02*
X101403095Y-135509047D01*
X100603095Y-135775714D01*
X100603095Y-136461428D02*
X100603095Y-136004285D01*
X100603095Y-136232857D02*
X101403095Y-136232857D01*
X101288809Y-136156666D01*
X101212619Y-136080476D01*
X101174523Y-136004285D01*
X100603095Y-132435714D02*
X101403095Y-132435714D01*
X100603095Y-132816666D02*
X101403095Y-132816666D01*
X100603095Y-133273809D01*
X101403095Y-133273809D01*
X100907857Y-133654761D02*
X100907857Y-134264285D01*
X100603095Y-129895714D02*
X101403095Y-129895714D01*
X100603095Y-130276666D02*
X101403095Y-130276666D01*
X100603095Y-130733809D01*
X101403095Y-130733809D01*
X100907857Y-131114761D02*
X100907857Y-131724285D01*
X100603095Y-131419523D02*
X101212619Y-131419523D01*
X101365000Y-127660476D02*
X101403095Y-127584285D01*
X101403095Y-127470000D01*
X101365000Y-127355714D01*
X101288809Y-127279523D01*
X101212619Y-127241428D01*
X101060238Y-127203333D01*
X100945952Y-127203333D01*
X100793571Y-127241428D01*
X100717380Y-127279523D01*
X100641190Y-127355714D01*
X100603095Y-127470000D01*
X100603095Y-127546190D01*
X100641190Y-127660476D01*
X100679285Y-127698571D01*
X100945952Y-127698571D01*
X100945952Y-127546190D01*
X100603095Y-128041428D02*
X101403095Y-128041428D01*
X100603095Y-128498571D01*
X101403095Y-128498571D01*
X100603095Y-128879523D02*
X101403095Y-128879523D01*
X101403095Y-129070000D01*
X101365000Y-129184285D01*
X101288809Y-129260476D01*
X101212619Y-129298571D01*
X101060238Y-129336666D01*
X100945952Y-129336666D01*
X100793571Y-129298571D01*
X100717380Y-129260476D01*
X100641190Y-129184285D01*
X100603095Y-129070000D01*
X100603095Y-128879523D01*
X100641190Y-124777619D02*
X100603095Y-124891904D01*
X100603095Y-125082380D01*
X100641190Y-125158571D01*
X100679285Y-125196666D01*
X100755476Y-125234761D01*
X100831666Y-125234761D01*
X100907857Y-125196666D01*
X100945952Y-125158571D01*
X100984047Y-125082380D01*
X101022142Y-124930000D01*
X101060238Y-124853809D01*
X101098333Y-124815714D01*
X101174523Y-124777619D01*
X101250714Y-124777619D01*
X101326904Y-124815714D01*
X101365000Y-124853809D01*
X101403095Y-124930000D01*
X101403095Y-125120476D01*
X101365000Y-125234761D01*
X100679285Y-126034761D02*
X100641190Y-125996666D01*
X100603095Y-125882380D01*
X100603095Y-125806190D01*
X100641190Y-125691904D01*
X100717380Y-125615714D01*
X100793571Y-125577619D01*
X100945952Y-125539523D01*
X101060238Y-125539523D01*
X101212619Y-125577619D01*
X101288809Y-125615714D01*
X101365000Y-125691904D01*
X101403095Y-125806190D01*
X101403095Y-125882380D01*
X101365000Y-125996666D01*
X101326904Y-126034761D01*
X100603095Y-126758571D02*
X100603095Y-126377619D01*
X101403095Y-126377619D01*
X100641190Y-122218571D02*
X100603095Y-122332857D01*
X100603095Y-122523333D01*
X100641190Y-122599523D01*
X100679285Y-122637619D01*
X100755476Y-122675714D01*
X100831666Y-122675714D01*
X100907857Y-122637619D01*
X100945952Y-122599523D01*
X100984047Y-122523333D01*
X101022142Y-122370952D01*
X101060238Y-122294761D01*
X101098333Y-122256666D01*
X101174523Y-122218571D01*
X101250714Y-122218571D01*
X101326904Y-122256666D01*
X101365000Y-122294761D01*
X101403095Y-122370952D01*
X101403095Y-122561428D01*
X101365000Y-122675714D01*
X100603095Y-123018571D02*
X101403095Y-123018571D01*
X101403095Y-123209047D01*
X101365000Y-123323333D01*
X101288809Y-123399523D01*
X101212619Y-123437619D01*
X101060238Y-123475714D01*
X100945952Y-123475714D01*
X100793571Y-123437619D01*
X100717380Y-123399523D01*
X100641190Y-123323333D01*
X100603095Y-123209047D01*
X100603095Y-123018571D01*
X100831666Y-123780476D02*
X100831666Y-124161428D01*
X100603095Y-123704285D02*
X101403095Y-123970952D01*
X100603095Y-124237619D01*
X101403095Y-119773809D02*
X100603095Y-120040476D01*
X101403095Y-120307142D01*
X100603095Y-120573809D02*
X101403095Y-120573809D01*
X100603095Y-120954761D02*
X101403095Y-120954761D01*
X100603095Y-121411904D01*
X101403095Y-121411904D01*
D11*
X104995000Y-125210000D02*
X104995000Y-124010000D01*
X104995000Y-124010000D02*
X107195000Y-124010000D01*
X107195000Y-124010000D02*
X107195000Y-125210000D01*
X107195000Y-125210000D02*
X104995000Y-125210000D01*
X104795000Y-125910000D02*
G75*
G03*
X104795000Y-125910000I-100000J0D01*
G01*
X108030580Y-127860000D02*
X107749420Y-127860000D01*
X108030580Y-126840000D02*
X107749420Y-126840000D01*
X108610000Y-123803641D02*
X108610000Y-123496359D01*
X107850000Y-123803641D02*
X107850000Y-123496359D01*
X104380000Y-120746359D02*
X104380000Y-121053641D01*
X105140000Y-120746359D02*
X105140000Y-121053641D01*
X104970000Y-131172936D02*
X104970000Y-135527064D01*
X108390000Y-131172936D02*
X108390000Y-135527064D01*
X101540000Y-129480000D02*
X102870000Y-129480000D01*
X101540000Y-130810000D02*
X101540000Y-129480000D01*
X101540000Y-132080000D02*
X104200000Y-132080000D01*
X104200000Y-132080000D02*
X104200000Y-139760000D01*
X101540000Y-132080000D02*
X101540000Y-139760000D01*
X101540000Y-139760000D02*
X104200000Y-139760000D01*
X101540000Y-119320000D02*
X102870000Y-119320000D01*
X101540000Y-120650000D02*
X101540000Y-119320000D01*
X101540000Y-121920000D02*
X104200000Y-121920000D01*
X104200000Y-121920000D02*
X104200000Y-129600000D01*
X101540000Y-121920000D02*
X101540000Y-129600000D01*
X101540000Y-129600000D02*
X104200000Y-129600000D01*
%LPC*%
D12*
X105120000Y-123310000D03*
X105770000Y-123310000D03*
X106420000Y-123310000D03*
X107070000Y-123310000D03*
X106420000Y-125910000D03*
X107070000Y-125910000D03*
X105770000Y-125910000D03*
X105120000Y-125910000D03*
G36*
G01*
X107565000Y-127100000D02*
X107565000Y-127600000D01*
G75*
G02*
X107340000Y-127825000I-225000J0D01*
G01*
X106890000Y-127825000D01*
G75*
G02*
X106665000Y-127600000I0J225000D01*
G01*
X106665000Y-127100000D01*
G75*
G02*
X106890000Y-126875000I225000J0D01*
G01*
X107340000Y-126875000D01*
G75*
G02*
X107565000Y-127100000I0J-225000D01*
G01*
G37*
G36*
G01*
X109115000Y-127100000D02*
X109115000Y-127600000D01*
G75*
G02*
X108890000Y-127825000I-225000J0D01*
G01*
X108440000Y-127825000D01*
G75*
G02*
X108215000Y-127600000I0J225000D01*
G01*
X108215000Y-127100000D01*
G75*
G02*
X108440000Y-126875000I225000J0D01*
G01*
X108890000Y-126875000D01*
G75*
G02*
X109115000Y-127100000I0J-225000D01*
G01*
G37*
G36*
G01*
X108415000Y-123410000D02*
X108045000Y-123410000D01*
G75*
G02*
X107910000Y-123275000I0J135000D01*
G01*
X107910000Y-123005000D01*
G75*
G02*
X108045000Y-122870000I135000J0D01*
G01*
X108415000Y-122870000D01*
G75*
G02*
X108550000Y-123005000I0J-135000D01*
G01*
X108550000Y-123275000D01*
G75*
G02*
X108415000Y-123410000I-135000J0D01*
G01*
G37*
G36*
G01*
X108415000Y-124430000D02*
X108045000Y-124430000D01*
G75*
G02*
X107910000Y-124295000I0J135000D01*
G01*
X107910000Y-124025000D01*
G75*
G02*
X108045000Y-123890000I135000J0D01*
G01*
X108415000Y-123890000D01*
G75*
G02*
X108550000Y-124025000I0J-135000D01*
G01*
X108550000Y-124295000D01*
G75*
G02*
X108415000Y-124430000I-135000J0D01*
G01*
G37*
G36*
G01*
X104575000Y-121140000D02*
X104945000Y-121140000D01*
G75*
G02*
X105080000Y-121275000I0J-135000D01*
G01*
X105080000Y-121545000D01*
G75*
G02*
X104945000Y-121680000I-135000J0D01*
G01*
X104575000Y-121680000D01*
G75*
G02*
X104440000Y-121545000I0J135000D01*
G01*
X104440000Y-121275000D01*
G75*
G02*
X104575000Y-121140000I135000J0D01*
G01*
G37*
G36*
G01*
X104575000Y-120120000D02*
X104945000Y-120120000D01*
G75*
G02*
X105080000Y-120255000I0J-135000D01*
G01*
X105080000Y-120525000D01*
G75*
G02*
X104945000Y-120660000I-135000J0D01*
G01*
X104575000Y-120660000D01*
G75*
G02*
X104440000Y-120525000I0J135000D01*
G01*
X104440000Y-120255000D01*
G75*
G02*
X104575000Y-120120000I135000J0D01*
G01*
G37*
G36*
G01*
X105255000Y-135700000D02*
X108105000Y-135700000D01*
G75*
G02*
X108355000Y-135950000I0J-250000D01*
G01*
X108355000Y-136675000D01*
G75*
G02*
X108105000Y-136925000I-250000J0D01*
G01*
X105255000Y-136925000D01*
G75*
G02*
X105005000Y-136675000I0J250000D01*
G01*
X105005000Y-135950000D01*
G75*
G02*
X105255000Y-135700000I250000J0D01*
G01*
G37*
G36*
G01*
X105255000Y-129775000D02*
X108105000Y-129775000D01*
G75*
G02*
X108355000Y-130025000I0J-250000D01*
G01*
X108355000Y-130750000D01*
G75*
G02*
X108105000Y-131000000I-250000J0D01*
G01*
X105255000Y-131000000D01*
G75*
G02*
X105005000Y-130750000I0J250000D01*
G01*
X105005000Y-130025000D01*
G75*
G02*
X105255000Y-129775000I250000J0D01*
G01*
G37*
D13*
X102870000Y-138430000D03*
X102870000Y-135890000D03*
X102870000Y-133350000D03*
D14*
X102870000Y-130810000D03*
D13*
X102870000Y-128270000D03*
X102870000Y-125730000D03*
X102870000Y-123190000D03*
D14*
X102870000Y-120650000D03*
M02*
