G04 #@! TF.GenerationSoftware,KiCad,Pcbnew,(5.1.10)-1*
G04 #@! TF.CreationDate,2021-12-10T13:32:49-08:00*
G04 #@! TF.ProjectId,INA219_Breakout,494e4132-3139-45f4-9272-65616b6f7574,rev?*
G04 #@! TF.SameCoordinates,Original*
G04 #@! TF.FileFunction,Copper,L1,Top*
G04 #@! TF.FilePolarity,Positive*
%FSLAX46Y46*%
G04 Gerber Fmt 4.6, Leading zero omitted, Abs format (unit mm)*
G04 Created by KiCad (PCBNEW (5.1.10)-1) date 2021-12-10 13:32:49*
%MOMM*%
%LPD*%
G01*
G04 APERTURE LIST*
G04 #@! TA.AperFunction,SMDPad,CuDef*
%ADD10R,0.450000X1.100000*%
G04 #@! TD*
G04 #@! TA.AperFunction,ComponentPad*
%ADD11O,1.700000X1.700000*%
G04 #@! TD*
G04 #@! TA.AperFunction,ComponentPad*
%ADD12R,1.700000X1.700000*%
G04 #@! TD*
G04 #@! TA.AperFunction,ViaPad*
%ADD13C,0.800000*%
G04 #@! TD*
G04 #@! TA.AperFunction,Conductor*
%ADD14C,0.250000*%
G04 #@! TD*
G04 #@! TA.AperFunction,Conductor*
%ADD15C,1.000000*%
G04 #@! TD*
G04 #@! TA.AperFunction,Conductor*
%ADD16C,0.254000*%
G04 #@! TD*
G04 #@! TA.AperFunction,Conductor*
%ADD17C,0.100000*%
G04 #@! TD*
G04 APERTURE END LIST*
D10*
X105120000Y-123310000D03*
X105770000Y-123310000D03*
X106420000Y-123310000D03*
X107070000Y-123310000D03*
X106420000Y-125910000D03*
X107070000Y-125910000D03*
X105770000Y-125910000D03*
X105120000Y-125910000D03*
G04 #@! TA.AperFunction,SMDPad,CuDef*
G36*
G01*
X107565000Y-127100000D02*
X107565000Y-127600000D01*
G75*
G02*
X107340000Y-127825000I-225000J0D01*
G01*
X106890000Y-127825000D01*
G75*
G02*
X106665000Y-127600000I0J225000D01*
G01*
X106665000Y-127100000D01*
G75*
G02*
X106890000Y-126875000I225000J0D01*
G01*
X107340000Y-126875000D01*
G75*
G02*
X107565000Y-127100000I0J-225000D01*
G01*
G37*
G04 #@! TD.AperFunction*
G04 #@! TA.AperFunction,SMDPad,CuDef*
G36*
G01*
X109115000Y-127100000D02*
X109115000Y-127600000D01*
G75*
G02*
X108890000Y-127825000I-225000J0D01*
G01*
X108440000Y-127825000D01*
G75*
G02*
X108215000Y-127600000I0J225000D01*
G01*
X108215000Y-127100000D01*
G75*
G02*
X108440000Y-126875000I225000J0D01*
G01*
X108890000Y-126875000D01*
G75*
G02*
X109115000Y-127100000I0J-225000D01*
G01*
G37*
G04 #@! TD.AperFunction*
G04 #@! TA.AperFunction,SMDPad,CuDef*
G36*
G01*
X108415000Y-123410000D02*
X108045000Y-123410000D01*
G75*
G02*
X107910000Y-123275000I0J135000D01*
G01*
X107910000Y-123005000D01*
G75*
G02*
X108045000Y-122870000I135000J0D01*
G01*
X108415000Y-122870000D01*
G75*
G02*
X108550000Y-123005000I0J-135000D01*
G01*
X108550000Y-123275000D01*
G75*
G02*
X108415000Y-123410000I-135000J0D01*
G01*
G37*
G04 #@! TD.AperFunction*
G04 #@! TA.AperFunction,SMDPad,CuDef*
G36*
G01*
X108415000Y-124430000D02*
X108045000Y-124430000D01*
G75*
G02*
X107910000Y-124295000I0J135000D01*
G01*
X107910000Y-124025000D01*
G75*
G02*
X108045000Y-123890000I135000J0D01*
G01*
X108415000Y-123890000D01*
G75*
G02*
X108550000Y-124025000I0J-135000D01*
G01*
X108550000Y-124295000D01*
G75*
G02*
X108415000Y-124430000I-135000J0D01*
G01*
G37*
G04 #@! TD.AperFunction*
G04 #@! TA.AperFunction,SMDPad,CuDef*
G36*
G01*
X104575000Y-121140000D02*
X104945000Y-121140000D01*
G75*
G02*
X105080000Y-121275000I0J-135000D01*
G01*
X105080000Y-121545000D01*
G75*
G02*
X104945000Y-121680000I-135000J0D01*
G01*
X104575000Y-121680000D01*
G75*
G02*
X104440000Y-121545000I0J135000D01*
G01*
X104440000Y-121275000D01*
G75*
G02*
X104575000Y-121140000I135000J0D01*
G01*
G37*
G04 #@! TD.AperFunction*
G04 #@! TA.AperFunction,SMDPad,CuDef*
G36*
G01*
X104575000Y-120120000D02*
X104945000Y-120120000D01*
G75*
G02*
X105080000Y-120255000I0J-135000D01*
G01*
X105080000Y-120525000D01*
G75*
G02*
X104945000Y-120660000I-135000J0D01*
G01*
X104575000Y-120660000D01*
G75*
G02*
X104440000Y-120525000I0J135000D01*
G01*
X104440000Y-120255000D01*
G75*
G02*
X104575000Y-120120000I135000J0D01*
G01*
G37*
G04 #@! TD.AperFunction*
G04 #@! TA.AperFunction,SMDPad,CuDef*
G36*
G01*
X105255000Y-135700000D02*
X108105000Y-135700000D01*
G75*
G02*
X108355000Y-135950000I0J-250000D01*
G01*
X108355000Y-136675000D01*
G75*
G02*
X108105000Y-136925000I-250000J0D01*
G01*
X105255000Y-136925000D01*
G75*
G02*
X105005000Y-136675000I0J250000D01*
G01*
X105005000Y-135950000D01*
G75*
G02*
X105255000Y-135700000I250000J0D01*
G01*
G37*
G04 #@! TD.AperFunction*
G04 #@! TA.AperFunction,SMDPad,CuDef*
G36*
G01*
X105255000Y-129775000D02*
X108105000Y-129775000D01*
G75*
G02*
X108355000Y-130025000I0J-250000D01*
G01*
X108355000Y-130750000D01*
G75*
G02*
X108105000Y-131000000I-250000J0D01*
G01*
X105255000Y-131000000D01*
G75*
G02*
X105005000Y-130750000I0J250000D01*
G01*
X105005000Y-130025000D01*
G75*
G02*
X105255000Y-129775000I250000J0D01*
G01*
G37*
G04 #@! TD.AperFunction*
D11*
X102870000Y-138430000D03*
X102870000Y-135890000D03*
X102870000Y-133350000D03*
D12*
X102870000Y-130810000D03*
D11*
X102870000Y-128270000D03*
X102870000Y-125730000D03*
X102870000Y-123190000D03*
D12*
X102870000Y-120650000D03*
D13*
X106540000Y-120160000D03*
X108300000Y-120600000D03*
X104775000Y-132080000D03*
X107300000Y-128400000D03*
X107539997Y-124970001D03*
D14*
X106045000Y-120655000D02*
X106540000Y-120160000D01*
X106045000Y-121095554D02*
X106045000Y-120655000D01*
X105120000Y-122020554D02*
X106045000Y-121095554D01*
X105120000Y-123310000D02*
X105120000Y-122020554D01*
X105770000Y-123310000D02*
X105770000Y-122280000D01*
X105770000Y-122280000D02*
X107450000Y-120600000D01*
X107450000Y-120600000D02*
X108300000Y-120600000D01*
X106255001Y-124185001D02*
X103765001Y-124185001D01*
X106420000Y-124020002D02*
X106255001Y-124185001D01*
X106420000Y-123310000D02*
X106420000Y-124020002D01*
X103765001Y-124185001D02*
X102830000Y-123250000D01*
X102870000Y-123190000D02*
X104580000Y-121480000D01*
X104580000Y-121480000D02*
X104750000Y-121480000D01*
X106145001Y-125034999D02*
X103605001Y-125034999D01*
X107070000Y-124110000D02*
X106145001Y-125034999D01*
X107070000Y-123310000D02*
X107070000Y-124110000D01*
X103605001Y-125034999D02*
X102870000Y-125770000D01*
X108230000Y-123140000D02*
X107330000Y-123140000D01*
X107330000Y-123140000D02*
X107160000Y-123310000D01*
X106420000Y-125910000D02*
X106420000Y-126810000D01*
X106420000Y-126810000D02*
X106510000Y-126900000D01*
X102870000Y-120650000D02*
X104520000Y-120650000D01*
X104520000Y-120650000D02*
X104640000Y-120530000D01*
X108665000Y-127350000D02*
X108560000Y-127350000D01*
X108560000Y-127350000D02*
X107110000Y-125900000D01*
X108230000Y-124160000D02*
X108230000Y-124279998D01*
X108230000Y-124279998D02*
X107539997Y-124970001D01*
X107070000Y-125910000D02*
X107539997Y-125440003D01*
X107539997Y-125440003D02*
X107539997Y-124970001D01*
D15*
X106680000Y-136312500D02*
X103837500Y-133470000D01*
D14*
X103837500Y-133470000D02*
X102970000Y-133470000D01*
X108680010Y-129786820D02*
X108680010Y-134349990D01*
X108680010Y-134349990D02*
X106670000Y-136360000D01*
X108343180Y-129449990D02*
X108680010Y-129786820D01*
X107259990Y-129449990D02*
X108343180Y-129449990D01*
X105770000Y-127960000D02*
X107259990Y-129449990D01*
X105770000Y-125910000D02*
X105770000Y-127960000D01*
D15*
X106680000Y-130387500D02*
X103292500Y-130387500D01*
D14*
X103292500Y-130387500D02*
X102930000Y-130750000D01*
X105219999Y-126519999D02*
X105219999Y-128829999D01*
X105120000Y-126420000D02*
X105219999Y-126519999D01*
X105120000Y-125910000D02*
X105120000Y-126420000D01*
X105219999Y-128829999D02*
X106750000Y-130360000D01*
D16*
X104915150Y-131570472D02*
X105081746Y-131621008D01*
X105255000Y-131638072D01*
X107920010Y-131638072D01*
X107920011Y-134035186D01*
X106963915Y-134991283D01*
X104600643Y-132628012D01*
X104471122Y-132521717D01*
X104273946Y-132416324D01*
X104059998Y-132351423D01*
X103961865Y-132341758D01*
X103891620Y-132271513D01*
X103964180Y-132249502D01*
X104074494Y-132190537D01*
X104171185Y-132111185D01*
X104250537Y-132014494D01*
X104309502Y-131904180D01*
X104345812Y-131784482D01*
X104358072Y-131660000D01*
X104358072Y-131522500D01*
X104825401Y-131522500D01*
X104915150Y-131570472D01*
G04 #@! TA.AperFunction,Conductor*
D17*
G36*
X104915150Y-131570472D02*
G01*
X105081746Y-131621008D01*
X105255000Y-131638072D01*
X107920010Y-131638072D01*
X107920011Y-134035186D01*
X106963915Y-134991283D01*
X104600643Y-132628012D01*
X104471122Y-132521717D01*
X104273946Y-132416324D01*
X104059998Y-132351423D01*
X103961865Y-132341758D01*
X103891620Y-132271513D01*
X103964180Y-132249502D01*
X104074494Y-132190537D01*
X104171185Y-132111185D01*
X104250537Y-132014494D01*
X104309502Y-131904180D01*
X104345812Y-131784482D01*
X104358072Y-131660000D01*
X104358072Y-131522500D01*
X104825401Y-131522500D01*
X104915150Y-131570472D01*
G37*
G04 #@! TD.AperFunction*
D16*
X104256928Y-126460000D02*
X104269188Y-126584482D01*
X104305498Y-126704180D01*
X104364463Y-126814494D01*
X104443815Y-126911185D01*
X104459999Y-126924467D01*
X104460000Y-128792667D01*
X104456323Y-128829999D01*
X104460000Y-128867332D01*
X104467058Y-128938987D01*
X104470997Y-128978984D01*
X104514453Y-129122245D01*
X104584076Y-129252500D01*
X103236748Y-129252500D01*
X103070001Y-129268923D01*
X102895269Y-129321928D01*
X102020000Y-129321928D01*
X101895518Y-129334188D01*
X101775820Y-129370498D01*
X101727000Y-129396593D01*
X101727000Y-126687107D01*
X101923368Y-126883475D01*
X102166589Y-127045990D01*
X102436842Y-127157932D01*
X102723740Y-127215000D01*
X103016260Y-127215000D01*
X103303158Y-127157932D01*
X103573411Y-127045990D01*
X103816632Y-126883475D01*
X104023475Y-126676632D01*
X104185990Y-126433411D01*
X104256928Y-126262151D01*
X104256928Y-126460000D01*
G04 #@! TA.AperFunction,Conductor*
D17*
G36*
X104256928Y-126460000D02*
G01*
X104269188Y-126584482D01*
X104305498Y-126704180D01*
X104364463Y-126814494D01*
X104443815Y-126911185D01*
X104459999Y-126924467D01*
X104460000Y-128792667D01*
X104456323Y-128829999D01*
X104460000Y-128867332D01*
X104467058Y-128938987D01*
X104470997Y-128978984D01*
X104514453Y-129122245D01*
X104584076Y-129252500D01*
X103236748Y-129252500D01*
X103070001Y-129268923D01*
X102895269Y-129321928D01*
X102020000Y-129321928D01*
X101895518Y-129334188D01*
X101775820Y-129370498D01*
X101727000Y-129396593D01*
X101727000Y-126687107D01*
X101923368Y-126883475D01*
X102166589Y-127045990D01*
X102436842Y-127157932D01*
X102723740Y-127215000D01*
X103016260Y-127215000D01*
X103303158Y-127157932D01*
X103573411Y-127045990D01*
X103816632Y-126883475D01*
X104023475Y-126676632D01*
X104185990Y-126433411D01*
X104256928Y-126262151D01*
X104256928Y-126460000D01*
G37*
G04 #@! TD.AperFunction*
D16*
X106600820Y-127049502D02*
X106720518Y-127085812D01*
X106845000Y-127098072D01*
X107233271Y-127098072D01*
X107576928Y-127441730D01*
X107576928Y-127600000D01*
X107593512Y-127768377D01*
X107642625Y-127930283D01*
X107722382Y-128079497D01*
X107829716Y-128210284D01*
X107960503Y-128317618D01*
X108109717Y-128397375D01*
X108271623Y-128446488D01*
X108440000Y-128463072D01*
X108890000Y-128463072D01*
X109058377Y-128446488D01*
X109145001Y-128420211D01*
X109145001Y-129177010D01*
X108906984Y-128938993D01*
X108883181Y-128909989D01*
X108767456Y-128815016D01*
X108635427Y-128744444D01*
X108492166Y-128700987D01*
X108380513Y-128689990D01*
X108380502Y-128689990D01*
X108343180Y-128686314D01*
X108305858Y-128689990D01*
X107574792Y-128689990D01*
X106530000Y-127645199D01*
X106530000Y-127011647D01*
X106600820Y-127049502D01*
G04 #@! TA.AperFunction,Conductor*
D17*
G36*
X106600820Y-127049502D02*
G01*
X106720518Y-127085812D01*
X106845000Y-127098072D01*
X107233271Y-127098072D01*
X107576928Y-127441730D01*
X107576928Y-127600000D01*
X107593512Y-127768377D01*
X107642625Y-127930283D01*
X107722382Y-128079497D01*
X107829716Y-128210284D01*
X107960503Y-128317618D01*
X108109717Y-128397375D01*
X108271623Y-128446488D01*
X108440000Y-128463072D01*
X108890000Y-128463072D01*
X109058377Y-128446488D01*
X109145001Y-128420211D01*
X109145001Y-129177010D01*
X108906984Y-128938993D01*
X108883181Y-128909989D01*
X108767456Y-128815016D01*
X108635427Y-128744444D01*
X108492166Y-128700987D01*
X108380513Y-128689990D01*
X108380502Y-128689990D01*
X108343180Y-128686314D01*
X108305858Y-128689990D01*
X107574792Y-128689990D01*
X106530000Y-127645199D01*
X106530000Y-127011647D01*
X106600820Y-127049502D01*
G37*
G04 #@! TD.AperFunction*
M02*
